<svg width="1060" height="417" viewBox="0 0 1060 417" fill="none" xmlns="http://www.w3.org/2000/svg">
<g filter="url(#filter0_d_129_3)">
<rect x="4" width="1051.9" height="408.29" rx="10" fill="#F5F4F5"/>
</g>
<path d="M72.658 66.976V61.504H74.962V68.056C73.282 69.472 70.954 70.192 68.602 70.192C63.442 70.192 59.65 66.568 59.65 61.6C59.65 56.632 63.442 53.008 68.65 53.008C71.314 53.008 73.57 53.896 75.106 55.6L73.618 57.088C72.226 55.744 70.642 55.144 68.746 55.144C64.858 55.144 62.05 57.856 62.05 61.6C62.05 65.296 64.858 68.056 68.722 68.056C70.138 68.056 71.458 67.744 72.658 66.976ZM88.7971 52.312L84.7651 55.432H82.6051L85.8691 52.312H88.7971ZM90.7171 63.712C90.7171 63.904 90.6931 64.192 90.6691 64.408H80.3491C80.6371 66.64 82.4371 68.128 84.9571 68.128C86.4451 68.128 87.6931 67.624 88.6291 66.592L89.9011 68.08C88.7491 69.424 86.9971 70.144 84.8851 70.144C80.7811 70.144 78.0451 67.432 78.0451 63.64C78.0451 59.872 80.7571 57.16 84.4291 57.16C88.1011 57.16 90.7171 59.8 90.7171 63.712ZM84.4291 59.104C82.2211 59.104 80.5891 60.592 80.3491 62.752H88.5091C88.2691 60.616 86.6611 59.104 84.4291 59.104ZM100.708 57.16C103.804 57.16 105.988 58.936 105.988 62.68V70H103.684V62.944C103.684 60.448 102.436 59.224 100.252 59.224C97.8044 59.224 96.2204 60.688 96.2204 63.448V70H93.9164V57.28H96.1244V59.2C97.0604 57.904 98.6924 57.16 100.708 57.16ZM121.819 63.712C121.819 63.904 121.795 64.192 121.771 64.408H111.451C111.739 66.64 113.539 68.128 116.059 68.128C117.547 68.128 118.795 67.624 119.731 66.592L121.003 68.08C119.851 69.424 118.099 70.144 115.987 70.144C111.883 70.144 109.147 67.432 109.147 63.64C109.147 59.872 111.859 57.16 115.531 57.16C119.203 57.16 121.819 59.8 121.819 63.712ZM115.531 59.104C113.323 59.104 111.691 60.592 111.451 62.752H119.611C119.371 60.616 117.763 59.104 115.531 59.104ZM127.226 59.416C128.042 57.928 129.626 57.16 131.858 57.16V59.392C131.666 59.368 131.498 59.368 131.33 59.368C128.858 59.368 127.322 60.88 127.322 63.664V70H125.018V57.28H127.226V59.416ZM140.028 70.144C136.212 70.144 133.404 67.432 133.404 63.64C133.404 59.848 136.212 57.16 140.028 57.16C143.844 57.16 146.628 59.848 146.628 63.64C146.628 67.432 143.844 70.144 140.028 70.144ZM140.028 68.128C142.476 68.128 144.3 66.352 144.3 63.64C144.3 60.928 142.476 59.176 140.028 59.176C137.58 59.176 135.732 60.928 135.732 63.64C135.732 66.352 137.58 68.128 140.028 68.128Z" fill="#07092D"/>
<path d="M68.032 238.192C62.944 238.192 59.152 234.568 59.152 229.6C59.152 224.632 62.944 221.008 68.056 221.008C70.648 221.008 72.904 221.896 74.44 223.624L72.88 225.136C71.584 223.768 70 223.144 68.152 223.144C64.36 223.144 61.552 225.88 61.552 229.6C61.552 233.32 64.36 236.056 68.152 236.056C70 236.056 71.584 235.408 72.88 234.04L74.44 235.552C72.904 237.28 70.648 238.192 68.032 238.192ZM81.9957 225.16C85.4757 225.16 87.4437 226.84 87.4437 230.32V238H85.2597V236.32C84.4917 237.472 83.0757 238.144 81.0837 238.144C78.2037 238.144 76.3797 236.608 76.3797 234.4C76.3797 232.36 77.6997 230.68 81.4917 230.68H85.1397V230.224C85.1397 228.28 84.0117 227.152 81.7317 227.152C80.2197 227.152 78.6837 227.68 77.6997 228.52L76.7397 226.792C78.0597 225.736 79.9557 225.16 81.9957 225.16ZM81.4677 236.368C83.1957 236.368 84.5637 235.576 85.1397 234.112V232.336H81.5877C79.3077 232.336 78.6597 233.224 78.6597 234.304C78.6597 235.576 79.7157 236.368 81.4677 236.368ZM98.4994 225.16C101.595 225.16 103.779 226.936 103.779 230.68V238H101.475V230.944C101.475 228.448 100.227 227.224 98.0434 227.224C95.5954 227.224 94.0114 228.688 94.0114 231.448V238H91.7074V225.28H93.9154V227.2C94.8514 225.904 96.4834 225.16 98.4994 225.16ZM114.475 235.6L115.195 237.256C114.499 237.856 113.443 238.144 112.411 238.144C109.843 238.144 108.379 236.728 108.379 234.16V227.176H106.219V225.28H108.379V222.496H110.683V225.28H114.331V227.176H110.683V234.064C110.683 235.432 111.403 236.2 112.675 236.2C113.347 236.2 113.995 235.984 114.475 235.6ZM119.133 222.832C118.245 222.832 117.573 222.184 117.573 221.344C117.573 220.504 118.245 219.832 119.133 219.832C120.021 219.832 120.693 220.48 120.693 221.296C120.693 222.16 120.045 222.832 119.133 222.832ZM117.981 238V225.28H120.285V238H117.981ZM134.38 220.192H136.684V238H134.476V235.984C133.444 237.424 131.812 238.144 129.94 238.144C126.22 238.144 123.508 235.528 123.508 231.64C123.508 227.752 126.22 225.16 129.94 225.16C131.74 225.16 133.324 225.832 134.38 227.2V220.192ZM130.132 236.128C132.556 236.128 134.404 234.352 134.404 231.64C134.404 228.928 132.556 227.176 130.132 227.176C127.684 227.176 125.836 228.928 125.836 231.64C125.836 234.352 127.684 236.128 130.132 236.128ZM145.675 225.16C149.155 225.16 151.123 226.84 151.123 230.32V238H148.939V236.32C148.171 237.472 146.755 238.144 144.763 238.144C141.883 238.144 140.059 236.608 140.059 234.4C140.059 232.36 141.379 230.68 145.171 230.68H148.819V230.224C148.819 228.28 147.691 227.152 145.411 227.152C143.899 227.152 142.363 227.68 141.379 228.52L140.419 226.792C141.739 225.736 143.635 225.16 145.675 225.16ZM145.147 236.368C146.875 236.368 148.243 235.576 148.819 234.112V232.336H145.267C142.987 232.336 142.339 233.224 142.339 234.304C142.339 235.576 143.395 236.368 145.147 236.368ZM165.153 220.192H167.457V238H165.249V235.984C164.217 237.424 162.585 238.144 160.713 238.144C156.993 238.144 154.281 235.528 154.281 231.64C154.281 227.752 156.993 225.16 160.713 225.16C162.513 225.16 164.097 225.832 165.153 227.2V220.192ZM160.905 236.128C163.329 236.128 165.177 234.352 165.177 231.64C165.177 228.928 163.329 227.176 160.905 227.176C158.457 227.176 156.609 228.928 156.609 231.64C156.609 234.352 158.457 236.128 160.905 236.128ZM187.958 220.192H190.262V238H188.054V235.984C187.022 237.424 185.39 238.144 183.518 238.144C179.798 238.144 177.086 235.528 177.086 231.64C177.086 227.752 179.798 225.16 183.518 225.16C185.318 225.16 186.902 225.832 187.958 227.2V220.192ZM183.71 236.128C186.134 236.128 187.982 234.352 187.982 231.64C187.982 228.928 186.134 227.176 183.71 227.176C181.262 227.176 179.414 228.928 179.414 231.64C179.414 234.352 181.262 236.128 183.71 236.128ZM206.118 231.712C206.118 231.904 206.094 232.192 206.07 232.408H195.75C196.038 234.64 197.838 236.128 200.358 236.128C201.846 236.128 203.094 235.624 204.03 234.592L205.302 236.08C204.15 237.424 202.398 238.144 200.286 238.144C196.182 238.144 193.446 235.432 193.446 231.64C193.446 227.872 196.158 225.16 199.83 225.16C203.502 225.16 206.118 227.8 206.118 231.712ZM199.83 227.104C197.622 227.104 195.99 228.592 195.75 230.752H203.91C203.67 228.616 202.062 227.104 199.83 227.104ZM221.306 238.144C217.394 238.144 214.586 235.432 214.586 231.64C214.586 227.848 217.394 225.16 221.306 225.16C223.586 225.16 225.482 226.096 226.49 227.872L224.738 229C223.922 227.752 222.674 227.176 221.282 227.176C218.786 227.176 216.914 228.928 216.914 231.64C216.914 234.4 218.786 236.128 221.282 236.128C222.674 236.128 223.922 235.552 224.738 234.304L226.49 235.408C225.482 237.184 223.586 238.144 221.306 238.144ZM234.105 225.16C237.585 225.16 239.553 226.84 239.553 230.32V238H237.369V236.32C236.601 237.472 235.185 238.144 233.193 238.144C230.313 238.144 228.489 236.608 228.489 234.4C228.489 232.36 229.809 230.68 233.601 230.68H237.249V230.224C237.249 228.28 236.121 227.152 233.841 227.152C232.329 227.152 230.793 227.68 229.809 228.52L228.849 226.792C230.169 225.736 232.065 225.16 234.105 225.16ZM233.577 236.368C235.305 236.368 236.673 235.576 237.249 234.112V232.336H233.697C231.417 232.336 230.769 233.224 230.769 234.304C230.769 235.576 231.825 236.368 233.577 236.368ZM250.609 225.16C253.705 225.16 255.889 226.936 255.889 230.68V238H253.585V230.944C253.585 228.448 252.337 227.224 250.153 227.224C247.705 227.224 246.121 228.688 246.121 231.448V238H243.817V225.28H246.025V227.2C246.961 225.904 248.593 225.16 250.609 225.16ZM265.767 238.144C261.855 238.144 259.047 235.432 259.047 231.64C259.047 227.848 261.855 225.16 265.767 225.16C268.047 225.16 269.943 226.096 270.951 227.872L269.199 229C268.383 227.752 267.135 227.176 265.743 227.176C263.247 227.176 261.375 228.928 261.375 231.64C261.375 234.4 263.247 236.128 265.743 236.128C267.135 236.128 268.383 235.552 269.199 234.304L270.951 235.408C269.943 237.184 268.047 238.144 265.767 238.144ZM275.086 222.832C274.198 222.832 273.526 222.184 273.526 221.344C273.526 220.504 274.198 219.832 275.086 219.832C275.974 219.832 276.646 220.48 276.646 221.296C276.646 222.16 275.998 222.832 275.086 222.832ZM273.934 238V225.28H276.238V238H273.934ZM286.085 238.144C282.269 238.144 279.461 235.432 279.461 231.64C279.461 227.848 282.269 225.16 286.085 225.16C289.901 225.16 292.685 227.848 292.685 231.64C292.685 235.432 289.901 238.144 286.085 238.144ZM286.085 236.128C288.533 236.128 290.357 234.352 290.357 231.64C290.357 228.928 288.533 227.176 286.085 227.176C283.637 227.176 281.789 228.928 281.789 231.64C281.789 234.352 283.637 236.128 286.085 236.128ZM302.664 225.16C305.76 225.16 307.944 226.936 307.944 230.68V238H305.64V230.944C305.64 228.448 304.392 227.224 302.208 227.224C299.76 227.224 298.176 228.688 298.176 231.448V238H295.872V225.28H298.08V227.2C299.016 225.904 300.648 225.16 302.664 225.16ZM323.774 231.712C323.774 231.904 323.75 232.192 323.726 232.408H313.406C313.694 234.64 315.494 236.128 318.014 236.128C319.502 236.128 320.75 235.624 321.686 234.592L322.958 236.08C321.806 237.424 320.054 238.144 317.942 238.144C313.838 238.144 311.102 235.432 311.102 231.64C311.102 227.872 313.814 225.16 317.486 225.16C321.158 225.16 323.774 227.8 323.774 231.712ZM317.486 227.104C315.278 227.104 313.646 228.592 313.406 230.752H321.566C321.326 228.616 319.718 227.104 317.486 227.104ZM330.621 238.144C328.509 238.144 326.421 237.496 325.365 236.656L326.325 234.832C327.405 235.6 329.133 236.152 330.789 236.152C332.925 236.152 333.813 235.504 333.813 234.424C333.813 231.568 325.773 234.04 325.773 228.976C325.773 226.696 327.813 225.16 331.077 225.16C332.733 225.16 334.605 225.592 335.709 226.312L334.725 228.136C333.573 227.392 332.301 227.128 331.053 227.128C329.037 227.128 328.053 227.872 328.053 228.88C328.053 231.88 336.117 229.432 336.117 234.376C336.117 236.68 334.005 238.144 330.621 238.144Z" fill="#07092D"/>
<path d="M68.688 267.096C65.328 267.096 62.832 264.68 62.832 261.4C62.832 258.12 65.328 255.704 68.704 255.704C70.336 255.704 71.808 256.248 72.8 257.336L72.048 258.088C71.136 257.16 70.016 256.76 68.736 256.76C66.032 256.76 64 258.744 64 261.4C64 264.056 66.032 266.04 68.736 266.04C70.016 266.04 71.136 265.64 72.048 264.696L72.8 265.448C71.808 266.536 70.336 267.096 68.688 267.096ZM77.903 258.52C80.079 258.52 81.311 259.608 81.311 261.784V267H80.223V265.688C79.711 266.552 78.719 267.08 77.327 267.08C75.423 267.08 74.255 266.088 74.255 264.632C74.255 263.336 75.087 262.248 77.503 262.248H80.175V261.736C80.175 260.296 79.359 259.512 77.791 259.512C76.703 259.512 75.679 259.896 74.991 260.504L74.479 259.656C75.327 258.936 76.575 258.52 77.903 258.52ZM77.503 266.184C78.783 266.184 79.727 265.576 80.175 264.472V263.096H77.535C75.903 263.096 75.375 263.736 75.375 264.6C75.375 265.576 76.159 266.184 77.503 266.184ZM88.6845 258.52C90.7325 258.52 92.1405 259.704 92.1405 262.12V267H91.0045V262.232C91.0045 260.456 90.0765 259.544 88.4765 259.544C86.6685 259.544 85.5325 260.664 85.5325 262.584V267H84.3965V258.584H85.4845V260.136C86.0925 259.112 87.2285 258.52 88.6845 258.52ZM99.2566 265.672L99.6566 266.488C99.2086 266.888 98.5366 267.08 97.8806 267.08C96.2966 267.08 95.4166 266.184 95.4166 264.632V259.544H93.9126V258.584H95.4166V256.744H96.5526V258.584H99.1126V259.544H96.5526V264.568C96.5526 265.56 97.0646 266.104 98.0086 266.104C98.4726 266.104 98.9366 265.96 99.2566 265.672ZM102.301 256.744C101.837 256.744 101.469 256.376 101.469 255.928C101.469 255.496 101.837 255.128 102.301 255.128C102.765 255.128 103.133 255.48 103.133 255.912C103.133 256.376 102.781 256.744 102.301 256.744ZM101.725 267V258.584H102.861V267H101.725ZM112.566 255.128H113.702V267H112.614V265.336C111.926 266.472 110.758 267.08 109.366 267.08C106.966 267.08 105.174 265.336 105.174 262.792C105.174 260.248 106.966 258.52 109.366 258.52C110.71 258.52 111.862 259.096 112.566 260.184V255.128ZM109.462 266.072C111.238 266.072 112.582 264.76 112.582 262.792C112.582 260.824 111.238 259.512 109.462 259.512C107.67 259.512 106.326 260.824 106.326 262.792C106.326 264.76 107.67 266.072 109.462 266.072ZM119.809 258.52C121.985 258.52 123.217 259.608 123.217 261.784V267H122.129V265.688C121.617 266.552 120.625 267.08 119.233 267.08C117.329 267.08 116.161 266.088 116.161 264.632C116.161 263.336 116.993 262.248 119.409 262.248H122.081V261.736C122.081 260.296 121.265 259.512 119.697 259.512C118.609 259.512 117.585 259.896 116.897 260.504L116.385 259.656C117.233 258.936 118.481 258.52 119.809 258.52ZM119.409 266.184C120.689 266.184 121.633 265.576 122.081 264.472V263.096H119.441C117.809 263.096 117.281 263.736 117.281 264.6C117.281 265.576 118.065 266.184 119.409 266.184ZM132.878 255.128H134.014V267H132.926V265.336C132.238 266.472 131.07 267.08 129.678 267.08C127.278 267.08 125.486 265.336 125.486 262.792C125.486 260.248 127.278 258.52 129.678 258.52C131.022 258.52 132.174 259.096 132.878 260.184V255.128ZM129.774 266.072C131.55 266.072 132.894 264.76 132.894 262.792C132.894 260.824 131.55 259.512 129.774 259.512C127.982 259.512 126.638 260.824 126.638 262.792C126.638 264.76 127.982 266.072 129.774 266.072ZM147.909 255.128H149.045V267H147.957V265.336C147.269 266.472 146.101 267.08 144.709 267.08C142.309 267.08 140.517 265.336 140.517 262.792C140.517 260.248 142.309 258.52 144.709 258.52C146.053 258.52 147.205 259.096 147.909 260.184V255.128ZM144.805 266.072C146.581 266.072 147.925 264.76 147.925 262.792C147.925 260.824 146.581 259.512 144.805 259.512C143.013 259.512 141.669 260.824 141.669 262.792C141.669 264.76 143.013 266.072 144.805 266.072ZM159.553 262.792C159.553 262.888 159.537 263.016 159.537 263.144H152.497C152.625 264.904 153.969 266.072 155.809 266.072C156.833 266.072 157.745 265.704 158.385 264.968L159.025 265.704C158.273 266.6 157.105 267.08 155.777 267.08C153.153 267.08 151.361 265.288 151.361 262.792C151.361 260.296 153.105 258.52 155.473 258.52C157.841 258.52 159.553 260.264 159.553 262.792ZM155.473 259.496C153.841 259.496 152.641 260.648 152.497 262.296H158.465C158.321 260.648 157.121 259.496 155.473 259.496ZM176.549 258.52C178.597 258.52 179.941 259.704 179.941 262.12V267H178.805V262.232C178.805 260.456 177.909 259.544 176.389 259.544C174.661 259.544 173.573 260.664 173.573 262.584V267H172.437V262.232C172.437 260.456 171.541 259.544 170.005 259.544C168.293 259.544 167.189 260.664 167.189 262.584V267H166.053V258.584H167.141V260.12C167.733 259.112 168.821 258.52 170.229 258.52C171.621 258.52 172.709 259.112 173.221 260.296C173.829 259.208 175.029 258.52 176.549 258.52ZM186.493 267.08C184.029 267.08 182.205 265.288 182.205 262.792C182.205 260.296 184.029 258.52 186.493 258.52C188.957 258.52 190.765 260.296 190.765 262.792C190.765 265.288 188.957 267.08 186.493 267.08ZM186.493 266.072C188.285 266.072 189.613 264.76 189.613 262.792C189.613 260.824 188.285 259.512 186.493 259.512C184.701 259.512 183.357 260.824 183.357 262.792C183.357 264.76 184.701 266.072 186.493 266.072ZM195.34 267.08C193.948 267.08 192.604 266.632 191.916 266.04L192.428 265.144C193.1 265.672 194.236 266.088 195.42 266.088C197.02 266.088 197.676 265.544 197.676 264.712C197.676 262.52 192.22 264.248 192.22 260.92C192.22 259.544 193.404 258.52 195.548 258.52C196.636 258.52 197.82 258.824 198.524 259.304L198.028 260.216C197.292 259.704 196.412 259.496 195.548 259.496C194.028 259.496 193.356 260.088 193.356 260.888C193.356 263.16 198.812 261.448 198.812 264.68C198.812 266.136 197.532 267.08 195.34 267.08ZM204.944 265.672L205.344 266.488C204.896 266.888 204.224 267.08 203.568 267.08C201.984 267.08 201.104 266.184 201.104 264.632V259.544H199.6V258.584H201.104V256.744H202.24V258.584H204.8V259.544H202.24V264.568C202.24 265.56 202.752 266.104 203.696 266.104C204.16 266.104 204.624 265.96 204.944 265.672ZM210.356 258.52C212.532 258.52 213.764 259.608 213.764 261.784V267H212.676V265.688C212.164 266.552 211.172 267.08 209.78 267.08C207.876 267.08 206.708 266.088 206.708 264.632C206.708 263.336 207.54 262.248 209.956 262.248H212.628V261.736C212.628 260.296 211.812 259.512 210.244 259.512C209.156 259.512 208.132 259.896 207.444 260.504L206.932 259.656C207.78 258.936 209.028 258.52 210.356 258.52ZM209.956 266.184C211.236 266.184 212.18 265.576 212.628 264.472V263.096H209.988C208.356 263.096 207.828 263.736 207.828 264.6C207.828 265.576 208.612 266.184 209.956 266.184ZM220.369 267.08C217.857 267.08 216.033 265.304 216.033 262.792C216.033 260.28 217.857 258.52 220.369 258.52C221.793 258.52 222.993 259.08 223.665 260.184L222.817 260.76C222.241 259.912 221.345 259.512 220.369 259.512C218.529 259.512 217.185 260.824 217.185 262.792C217.185 264.776 218.529 266.072 220.369 266.072C221.345 266.072 222.241 265.688 222.817 264.84L223.665 265.416C222.993 266.504 221.793 267.08 220.369 267.08ZM226.473 256.744C226.009 256.744 225.641 256.376 225.641 255.928C225.641 255.496 226.009 255.128 226.473 255.128C226.937 255.128 227.305 255.48 227.305 255.912C227.305 256.376 226.953 256.744 226.473 256.744ZM225.897 267V258.584H227.033V267H225.897ZM230.193 267V255.128H231.329V267H230.193ZM234.49 267V255.128H235.626V267H234.49ZM241.731 258.52C243.907 258.52 245.139 259.608 245.139 261.784V267H244.051V265.688C243.539 266.552 242.547 267.08 241.155 267.08C239.251 267.08 238.083 266.088 238.083 264.632C238.083 263.336 238.915 262.248 241.331 262.248H244.003V261.736C244.003 260.296 243.187 259.512 241.619 259.512C240.531 259.512 239.507 259.896 238.819 260.504L238.307 259.656C239.155 258.936 240.403 258.52 241.731 258.52ZM241.331 266.184C242.611 266.184 243.555 265.576 244.003 264.472V263.096H241.363C239.731 263.096 239.203 263.736 239.203 264.6C239.203 265.576 239.987 266.184 241.331 266.184ZM250.481 267.08C249.089 267.08 247.745 266.632 247.057 266.04L247.569 265.144C248.241 265.672 249.377 266.088 250.561 266.088C252.161 266.088 252.817 265.544 252.817 264.712C252.817 262.52 247.361 264.248 247.361 260.92C247.361 259.544 248.545 258.52 250.689 258.52C251.777 258.52 252.961 258.824 253.665 259.304L253.169 260.216C252.433 259.704 251.553 259.496 250.689 259.496C249.169 259.496 248.497 260.088 248.497 260.888C248.497 263.16 253.953 261.448 253.953 264.68C253.953 266.136 252.673 267.08 250.481 267.08Z" fill="#AFB4B9"/>
<path d="M795.368 291H792.752L789.128 285.84C788.792 285.864 788.432 285.888 788.072 285.888H783.92V291H781.52V274.2H788.072C792.44 274.2 795.08 276.408 795.08 280.056C795.08 282.648 793.736 284.52 791.384 285.36L795.368 291ZM788 283.848C791.072 283.848 792.68 282.456 792.68 280.056C792.68 277.656 791.072 276.288 788 276.288H783.92V283.848H788ZM810.118 284.712C810.118 284.904 810.094 285.192 810.07 285.408H799.75C800.038 287.64 801.838 289.128 804.358 289.128C805.846 289.128 807.094 288.624 808.03 287.592L809.302 289.08C808.15 290.424 806.398 291.144 804.286 291.144C800.182 291.144 797.446 288.432 797.446 284.64C797.446 280.872 800.158 278.16 803.83 278.16C807.502 278.16 810.118 280.8 810.118 284.712ZM803.83 280.104C801.622 280.104 799.99 281.592 799.75 283.752H807.91C807.67 281.616 806.062 280.104 803.83 280.104ZM823.301 278.28H825.485V289.272C825.485 293.76 823.205 295.8 818.885 295.8C816.557 295.8 814.205 295.152 812.813 293.904L813.917 292.128C815.093 293.136 816.941 293.784 818.813 293.784C821.813 293.784 823.181 292.392 823.181 289.512V288.504C822.077 289.824 820.421 290.472 818.597 290.472C814.925 290.472 812.141 287.976 812.141 284.304C812.141 280.632 814.925 278.16 818.597 278.16C820.493 278.16 822.221 278.856 823.301 280.248V278.28ZM818.861 288.456C821.405 288.456 823.229 286.752 823.229 284.304C823.229 281.832 821.405 280.176 818.861 280.176C816.293 280.176 814.469 281.832 814.469 284.304C814.469 286.752 816.293 288.456 818.861 288.456ZM832.095 280.416C832.911 278.928 834.495 278.16 836.727 278.16V280.392C836.535 280.368 836.367 280.368 836.199 280.368C833.727 280.368 832.191 281.88 832.191 284.664V291H829.887V278.28H832.095V280.416ZM844.175 278.16C847.655 278.16 849.623 279.84 849.623 283.32V291H847.439V289.32C846.671 290.472 845.255 291.144 843.263 291.144C840.383 291.144 838.559 289.608 838.559 287.4C838.559 285.36 839.879 283.68 843.671 283.68H847.319V283.224C847.319 281.28 846.191 280.152 843.911 280.152C842.399 280.152 840.863 280.68 839.879 281.52L838.919 279.792C840.239 278.736 842.135 278.16 844.175 278.16ZM843.647 289.368C845.375 289.368 846.743 288.576 847.319 287.112V285.336H843.767C841.487 285.336 840.839 286.224 840.839 287.304C840.839 288.576 841.895 289.368 843.647 289.368ZM860.631 278.16C864.351 278.16 867.063 280.752 867.063 284.64C867.063 288.528 864.351 291.144 860.631 291.144C858.759 291.144 857.127 290.424 856.095 288.984V291H853.887V273.192H856.191V280.2C857.247 278.832 858.831 278.16 860.631 278.16ZM860.439 289.128C862.887 289.128 864.735 287.352 864.735 284.64C864.735 281.928 862.887 280.176 860.439 280.176C858.015 280.176 856.167 281.928 856.167 284.64C856.167 287.352 858.015 289.128 860.439 289.128ZM874.761 278.16C878.241 278.16 880.209 279.84 880.209 283.32V291H878.025V289.32C877.257 290.472 875.841 291.144 873.849 291.144C870.969 291.144 869.145 289.608 869.145 287.4C869.145 285.36 870.465 283.68 874.257 283.68H877.905V283.224C877.905 281.28 876.777 280.152 874.497 280.152C872.985 280.152 871.449 280.68 870.465 281.52L869.505 279.792C870.825 278.736 872.721 278.16 874.761 278.16ZM874.233 289.368C875.961 289.368 877.329 288.576 877.905 287.112V285.336H874.353C872.073 285.336 871.425 286.224 871.425 287.304C871.425 288.576 872.481 289.368 874.233 289.368ZM890.087 291.144C886.175 291.144 883.367 288.432 883.367 284.64C883.367 280.848 886.175 278.16 890.087 278.16C892.367 278.16 894.263 279.096 895.271 280.872L893.519 282C892.703 280.752 891.455 280.176 890.063 280.176C887.567 280.176 885.695 281.928 885.695 284.64C885.695 287.4 887.567 289.128 890.063 289.128C891.455 289.128 892.703 288.552 893.519 287.304L895.271 288.408C894.263 290.184 892.367 291.144 890.087 291.144ZM899.406 275.832C898.518 275.832 897.846 275.184 897.846 274.344C897.846 273.504 898.518 272.832 899.406 272.832C900.294 272.832 900.966 273.48 900.966 274.296C900.966 275.16 900.318 275.832 899.406 275.832ZM898.254 291V278.28H900.558V291H898.254ZM910.405 291.144C906.589 291.144 903.781 288.432 903.781 284.64C903.781 280.848 906.589 278.16 910.405 278.16C914.221 278.16 917.005 280.848 917.005 284.64C917.005 288.432 914.221 291.144 910.405 291.144ZM910.405 289.128C912.853 289.128 914.677 287.352 914.677 284.64C914.677 281.928 912.853 280.176 910.405 280.176C907.957 280.176 906.109 281.928 906.109 284.64C906.109 287.352 907.957 289.128 910.405 289.128ZM926.984 278.16C930.08 278.16 932.264 279.936 932.264 283.68V291H929.96V283.944C929.96 281.448 928.712 280.224 926.528 280.224C924.08 280.224 922.496 281.688 922.496 284.448V291H920.192V278.28H922.4V280.2C923.336 278.904 924.968 278.16 926.984 278.16ZM948.094 284.712C948.094 284.904 948.07 285.192 948.046 285.408H937.726C938.014 287.64 939.814 289.128 942.334 289.128C943.822 289.128 945.07 288.624 946.006 287.592L947.278 289.08C946.126 290.424 944.374 291.144 942.262 291.144C938.158 291.144 935.422 288.432 935.422 284.64C935.422 280.872 938.134 278.16 941.806 278.16C945.478 278.16 948.094 280.8 948.094 284.712ZM941.806 280.104C939.598 280.104 937.966 281.592 937.726 283.752H945.886C945.646 281.616 944.038 280.104 941.806 280.104ZM954.941 291.144C952.829 291.144 950.741 290.496 949.685 289.656L950.645 287.832C951.725 288.6 953.453 289.152 955.109 289.152C957.245 289.152 958.133 288.504 958.133 287.424C958.133 284.568 950.093 287.04 950.093 281.976C950.093 279.696 952.133 278.16 955.397 278.16C957.053 278.16 958.925 278.592 960.029 279.312L959.045 281.136C957.893 280.392 956.621 280.128 955.373 280.128C953.357 280.128 952.373 280.872 952.373 281.88C952.373 284.88 960.437 282.432 960.437 287.376C960.437 289.68 958.325 291.144 954.941 291.144Z" fill="#07092D"/>
<path d="M784.856 180V165.288H779.096V163.2H792.992V165.288H787.232V180H784.856ZM796.117 164.832C795.229 164.832 794.557 164.184 794.557 163.344C794.557 162.504 795.229 161.832 796.117 161.832C797.005 161.832 797.677 162.48 797.677 163.296C797.677 164.16 797.029 164.832 796.117 164.832ZM794.965 180V167.28H797.269V180H794.965ZM813.164 173.712C813.164 173.904 813.14 174.192 813.116 174.408H802.796C803.084 176.64 804.884 178.128 807.404 178.128C808.892 178.128 810.14 177.624 811.076 176.592L812.348 178.08C811.196 179.424 809.444 180.144 807.332 180.144C803.228 180.144 800.492 177.432 800.492 173.64C800.492 169.872 803.204 167.16 806.876 167.16C810.548 167.16 813.164 169.8 813.164 173.712ZM806.876 169.104C804.668 169.104 803.036 170.592 802.796 172.752H810.956C810.716 170.616 809.108 169.104 806.876 169.104ZM823.156 167.16C826.252 167.16 828.436 168.936 828.436 172.68V180H826.132V172.944C826.132 170.448 824.884 169.224 822.7 169.224C820.252 169.224 818.668 170.688 818.668 173.448V180H816.364V167.28H818.572V169.2C819.508 167.904 821.14 167.16 823.156 167.16ZM844.266 173.712C844.266 173.904 844.242 174.192 844.218 174.408H833.898C834.186 176.64 835.986 178.128 838.506 178.128C839.994 178.128 841.242 177.624 842.178 176.592L843.45 178.08C842.298 179.424 840.546 180.144 838.434 180.144C834.33 180.144 831.594 177.432 831.594 173.64C831.594 169.872 834.306 167.16 837.978 167.16C841.65 167.16 844.266 169.8 844.266 173.712ZM837.978 169.104C835.77 169.104 834.138 170.592 833.898 172.752H842.058C841.818 170.616 840.21 169.104 837.978 169.104ZM856.119 169.416C856.935 167.928 858.519 167.16 860.751 167.16V169.392C860.559 169.368 860.391 169.368 860.223 169.368C857.751 169.368 856.215 170.88 856.215 173.664V180H853.911V167.28H856.119V169.416ZM874.969 173.712C874.969 173.904 874.945 174.192 874.921 174.408H864.601C864.889 176.64 866.689 178.128 869.209 178.128C870.697 178.128 871.945 177.624 872.881 176.592L874.153 178.08C873.001 179.424 871.249 180.144 869.137 180.144C865.033 180.144 862.297 177.432 862.297 173.64C862.297 169.872 865.009 167.16 868.681 167.16C872.353 167.16 874.969 169.8 874.969 173.712ZM868.681 169.104C866.473 169.104 864.841 170.592 864.601 172.752H872.761C872.521 170.616 870.913 169.104 868.681 169.104ZM888.152 167.28H890.336V178.272C890.336 182.76 888.056 184.8 883.736 184.8C881.408 184.8 879.056 184.152 877.664 182.904L878.768 181.128C879.944 182.136 881.792 182.784 883.664 182.784C886.664 182.784 888.032 181.392 888.032 178.512V177.504C886.928 178.824 885.272 179.472 883.448 179.472C879.776 179.472 876.992 176.976 876.992 173.304C876.992 169.632 879.776 167.16 883.448 167.16C885.344 167.16 887.072 167.856 888.152 169.248V167.28ZM883.712 177.456C886.256 177.456 888.08 175.752 888.08 173.304C888.08 170.832 886.256 169.176 883.712 169.176C881.144 169.176 879.32 170.832 879.32 173.304C879.32 175.752 881.144 177.456 883.712 177.456ZM896.947 169.416C897.763 167.928 899.347 167.16 901.579 167.16V169.392C901.387 169.368 901.219 169.368 901.051 169.368C898.579 169.368 897.043 170.88 897.043 173.664V180H894.739V167.28H896.947V169.416ZM909.027 167.16C912.507 167.16 914.475 168.84 914.475 172.32V180H912.291V178.32C911.523 179.472 910.107 180.144 908.115 180.144C905.235 180.144 903.411 178.608 903.411 176.4C903.411 174.36 904.731 172.68 908.523 172.68H912.171V172.224C912.171 170.28 911.043 169.152 908.763 169.152C907.251 169.152 905.715 169.68 904.731 170.52L903.771 168.792C905.091 167.736 906.987 167.16 909.027 167.16ZM908.499 178.368C910.227 178.368 911.595 177.576 912.171 176.112V174.336H908.619C906.339 174.336 905.691 175.224 905.691 176.304C905.691 177.576 906.747 178.368 908.499 178.368ZM925.483 167.16C929.203 167.16 931.915 169.752 931.915 173.64C931.915 177.528 929.203 180.144 925.483 180.144C923.611 180.144 921.979 179.424 920.947 177.984V180H918.739V162.192H921.043V169.2C922.099 167.832 923.683 167.16 925.483 167.16ZM925.291 178.128C927.739 178.128 929.587 176.352 929.587 173.64C929.587 170.928 927.739 169.176 925.291 169.176C922.867 169.176 921.019 170.928 921.019 173.64C921.019 176.352 922.867 178.128 925.291 178.128ZM939.613 167.16C943.093 167.16 945.061 168.84 945.061 172.32V180H942.877V178.32C942.109 179.472 940.693 180.144 938.701 180.144C935.821 180.144 933.997 178.608 933.997 176.4C933.997 174.36 935.317 172.68 939.109 172.68H942.757V172.224C942.757 170.28 941.629 169.152 939.349 169.152C937.837 169.152 936.301 169.68 935.317 170.52L934.357 168.792C935.677 167.736 937.573 167.16 939.613 167.16ZM939.085 178.368C940.813 178.368 942.181 177.576 942.757 176.112V174.336H939.205C936.925 174.336 936.277 175.224 936.277 176.304C936.277 177.576 937.333 178.368 939.085 178.368ZM954.939 180.144C951.027 180.144 948.219 177.432 948.219 173.64C948.219 169.848 951.027 167.16 954.939 167.16C957.219 167.16 959.115 168.096 960.123 169.872L958.371 171C957.555 169.752 956.307 169.176 954.915 169.176C952.419 169.176 950.547 170.928 950.547 173.64C950.547 176.4 952.419 178.128 954.915 178.128C956.307 178.128 957.555 177.552 958.371 176.304L960.123 177.408C959.115 179.184 957.219 180.144 954.939 180.144ZM964.258 164.832C963.37 164.832 962.698 164.184 962.698 163.344C962.698 162.504 963.37 161.832 964.258 161.832C965.146 161.832 965.818 162.48 965.818 163.296C965.818 164.16 965.17 164.832 964.258 164.832ZM963.106 180V167.28H965.41V180H963.106ZM973.433 165.432L976.697 162.312H979.625L975.593 165.432H973.433ZM975.257 180.144C971.441 180.144 968.633 177.432 968.633 173.64C968.633 169.848 971.441 167.16 975.257 167.16C979.073 167.16 981.857 169.848 981.857 173.64C981.857 177.432 979.073 180.144 975.257 180.144ZM975.257 178.128C977.705 178.128 979.529 176.352 979.529 173.64C979.529 170.928 977.705 169.176 975.257 169.176C972.809 169.176 970.961 170.928 970.961 173.64C970.961 176.352 972.809 178.128 975.257 178.128ZM991.835 167.16C994.931 167.16 997.115 168.936 997.115 172.68V180H994.811V172.944C994.811 170.448 993.563 169.224 991.379 169.224C988.931 169.224 987.347 170.688 987.347 173.448V180H985.043V167.28H987.251V169.2C988.187 167.904 989.819 167.16 991.835 167.16Z" fill="#07092D"/>
<path d="M786.416 70.192C783.848 70.192 781.328 69.328 779.984 68.08L780.872 66.208C782.12 67.336 784.256 68.152 786.416 68.152C789.32 68.152 790.568 67.024 790.568 65.56C790.568 61.456 780.392 64.048 780.392 57.808C780.392 55.216 782.408 53.008 786.824 53.008C788.792 53.008 790.832 53.536 792.224 54.496L791.432 56.416C789.968 55.48 788.312 55.048 786.824 55.048C783.968 55.048 782.744 56.248 782.744 57.712C782.744 61.816 792.92 59.248 792.92 65.416C792.92 67.984 790.856 70.192 786.416 70.192ZM797.242 54.832C796.354 54.832 795.682 54.184 795.682 53.344C795.682 52.504 796.354 51.832 797.242 51.832C798.13 51.832 798.802 52.48 798.802 53.296C798.802 54.16 798.154 54.832 797.242 54.832ZM796.09 70V57.28H798.394V70H796.09ZM809.585 57.16C812.681 57.16 814.865 58.936 814.865 62.68V70H812.561V62.944C812.561 60.448 811.313 59.224 809.129 59.224C806.681 59.224 805.097 60.688 805.097 63.448V70H802.793V57.28H805.001V59.2C805.937 57.904 807.569 57.16 809.585 57.16ZM827.783 59.416C828.599 57.928 830.183 57.16 832.415 57.16V59.392C832.223 59.368 832.055 59.368 831.887 59.368C829.415 59.368 827.879 60.88 827.879 63.664V70H825.575V57.28H827.783V59.416ZM846.633 63.712C846.633 63.904 846.609 64.192 846.585 64.408H836.265C836.553 66.64 838.353 68.128 840.873 68.128C842.361 68.128 843.609 67.624 844.545 66.592L845.817 68.08C844.665 69.424 842.913 70.144 840.801 70.144C836.697 70.144 833.961 67.432 833.961 63.64C833.961 59.872 836.673 57.16 840.345 57.16C844.017 57.16 846.633 59.8 846.633 63.712ZM840.345 59.104C838.137 59.104 836.505 60.592 836.265 62.752H844.425C844.185 60.616 842.577 59.104 840.345 59.104ZM859.816 57.28H862V68.272C862 72.76 859.72 74.8 855.4 74.8C853.072 74.8 850.72 74.152 849.328 72.904L850.432 71.128C851.608 72.136 853.456 72.784 855.328 72.784C858.328 72.784 859.696 71.392 859.696 68.512V67.504C858.592 68.824 856.936 69.472 855.112 69.472C851.44 69.472 848.656 66.976 848.656 63.304C848.656 59.632 851.44 57.16 855.112 57.16C857.008 57.16 858.736 57.856 859.816 59.248V57.28ZM855.376 67.456C857.92 67.456 859.744 65.752 859.744 63.304C859.744 60.832 857.92 59.176 855.376 59.176C852.808 59.176 850.984 60.832 850.984 63.304C850.984 65.752 852.808 67.456 855.376 67.456ZM868.611 59.416C869.427 57.928 871.011 57.16 873.243 57.16V59.392C873.051 59.368 872.883 59.368 872.715 59.368C870.243 59.368 868.707 60.88 868.707 63.664V70H866.403V57.28H868.611V59.416ZM880.691 57.16C884.171 57.16 886.139 58.84 886.139 62.32V70H883.955V68.32C883.187 69.472 881.771 70.144 879.779 70.144C876.899 70.144 875.075 68.608 875.075 66.4C875.075 64.36 876.395 62.68 880.187 62.68H883.835V62.224C883.835 60.28 882.707 59.152 880.427 59.152C878.915 59.152 877.379 59.68 876.395 60.52L875.435 58.792C876.755 57.736 878.651 57.16 880.691 57.16ZM880.163 68.368C881.891 68.368 883.259 67.576 883.835 66.112V64.336H880.283C878.003 64.336 877.355 65.224 877.355 66.304C877.355 67.576 878.411 68.368 880.163 68.368ZM897.147 57.16C900.867 57.16 903.579 59.752 903.579 63.64C903.579 67.528 900.867 70.144 897.147 70.144C895.275 70.144 893.643 69.424 892.611 67.984V70H890.403V52.192H892.707V59.2C893.763 57.832 895.347 57.16 897.147 57.16ZM896.955 68.128C899.403 68.128 901.251 66.352 901.251 63.64C901.251 60.928 899.403 59.176 896.955 59.176C894.531 59.176 892.683 60.928 892.683 63.64C892.683 66.352 894.531 68.128 896.955 68.128ZM911.277 57.16C914.757 57.16 916.725 58.84 916.725 62.32V70H914.541V68.32C913.773 69.472 912.357 70.144 910.365 70.144C907.485 70.144 905.661 68.608 905.661 66.4C905.661 64.36 906.981 62.68 910.773 62.68H914.421V62.224C914.421 60.28 913.293 59.152 911.013 59.152C909.501 59.152 907.965 59.68 906.981 60.52L906.021 58.792C907.341 57.736 909.237 57.16 911.277 57.16ZM910.749 68.368C912.477 68.368 913.845 67.576 914.421 66.112V64.336H910.869C908.589 64.336 907.941 65.224 907.941 66.304C907.941 67.576 908.997 68.368 910.749 68.368ZM926.603 70.144C922.691 70.144 919.883 67.432 919.883 63.64C919.883 59.848 922.691 57.16 926.603 57.16C928.883 57.16 930.779 58.096 931.787 59.872L930.035 61C929.219 59.752 927.971 59.176 926.579 59.176C924.083 59.176 922.211 60.928 922.211 63.64C922.211 66.4 924.083 68.128 926.579 68.128C927.971 68.128 929.219 67.552 930.035 66.304L931.787 67.408C930.779 69.184 928.883 70.144 926.603 70.144ZM935.922 54.832C935.034 54.832 934.362 54.184 934.362 53.344C934.362 52.504 935.034 51.832 935.922 51.832C936.81 51.832 937.482 52.48 937.482 53.296C937.482 54.16 936.834 54.832 935.922 54.832ZM934.77 70V57.28H937.074V70H934.77ZM945.097 55.432L948.361 52.312H951.289L947.257 55.432H945.097ZM946.921 70.144C943.105 70.144 940.297 67.432 940.297 63.64C940.297 59.848 943.105 57.16 946.921 57.16C950.737 57.16 953.521 59.848 953.521 63.64C953.521 67.432 950.737 70.144 946.921 70.144ZM946.921 68.128C949.369 68.128 951.193 66.352 951.193 63.64C951.193 60.928 949.369 59.176 946.921 59.176C944.473 59.176 942.625 60.928 942.625 63.64C942.625 66.352 944.473 68.128 946.921 68.128ZM963.499 57.16C966.595 57.16 968.779 58.936 968.779 62.68V70H966.475V62.944C966.475 60.448 965.227 59.224 963.043 59.224C960.595 59.224 959.011 60.688 959.011 63.448V70H956.707V57.28H958.915V59.2C959.851 57.904 961.483 57.16 963.499 57.16Z" fill="#07092D"/>
<path d="M452.114 238.192C447.026 238.192 443.234 234.568 443.234 229.6C443.234 224.632 447.026 221.008 452.138 221.008C454.73 221.008 456.986 221.896 458.522 223.624L456.962 225.136C455.666 223.768 454.082 223.144 452.234 223.144C448.442 223.144 445.634 225.88 445.634 229.6C445.634 233.32 448.442 236.056 452.234 236.056C454.082 236.056 455.666 235.408 456.962 234.04L458.522 235.552C456.986 237.28 454.73 238.192 452.114 238.192ZM470.763 225.28H473.067V238H470.883V236.08C469.947 237.4 468.363 238.144 466.563 238.144C463.275 238.144 461.091 236.344 461.091 232.6V225.28H463.395V232.336C463.395 234.832 464.643 236.08 466.827 236.08C469.227 236.08 470.763 234.592 470.763 231.856V225.28ZM482.086 225.16C485.566 225.16 487.534 226.84 487.534 230.32V238H485.35V236.32C484.582 237.472 483.166 238.144 481.174 238.144C478.294 238.144 476.47 236.608 476.47 234.4C476.47 232.36 477.79 230.68 481.582 230.68H485.23V230.224C485.23 228.28 484.102 227.152 481.822 227.152C480.31 227.152 478.774 227.68 477.79 228.52L476.83 226.792C478.15 225.736 480.046 225.16 482.086 225.16ZM481.558 236.368C483.286 236.368 484.654 235.576 485.23 234.112V232.336H481.678C479.398 232.336 478.75 233.224 478.75 234.304C478.75 235.576 479.806 236.368 481.558 236.368ZM498.589 225.16C501.685 225.16 503.869 226.936 503.869 230.68V238H501.565V230.944C501.565 228.448 500.317 227.224 498.133 227.224C495.685 227.224 494.101 228.688 494.101 231.448V238H491.797V225.28H494.005V227.2C494.941 225.904 496.573 225.16 498.589 225.16ZM514.565 235.6L515.285 237.256C514.589 237.856 513.533 238.144 512.501 238.144C509.933 238.144 508.469 236.728 508.469 234.16V227.176H506.309V225.28H508.469V222.496H510.773V225.28H514.421V227.176H510.773V234.064C510.773 235.432 511.493 236.2 512.765 236.2C513.437 236.2 514.085 235.984 514.565 235.6ZM523.097 238.144C519.281 238.144 516.473 235.432 516.473 231.64C516.473 227.848 519.281 225.16 523.097 225.16C526.913 225.16 529.697 227.848 529.697 231.64C529.697 235.432 526.913 238.144 523.097 238.144ZM523.097 236.128C525.545 236.128 527.369 234.352 527.369 231.64C527.369 228.928 525.545 227.176 523.097 227.176C520.649 227.176 518.801 228.928 518.801 231.64C518.801 234.352 520.649 236.128 523.097 236.128ZM549.313 225.28H551.497V236.272C551.497 240.76 549.217 242.8 544.897 242.8C542.569 242.8 540.217 242.152 538.825 240.904L539.929 239.128C541.105 240.136 542.953 240.784 544.825 240.784C547.825 240.784 549.193 239.392 549.193 236.512V235.504C548.089 236.824 546.433 237.472 544.609 237.472C540.937 237.472 538.153 234.976 538.153 231.304C538.153 227.632 540.937 225.16 544.609 225.16C546.505 225.16 548.233 225.856 549.313 227.248V225.28ZM544.873 235.456C547.417 235.456 549.241 233.752 549.241 231.304C549.241 228.832 547.417 227.176 544.873 227.176C542.305 227.176 540.481 228.832 540.481 231.304C540.481 233.752 542.305 235.456 544.873 235.456ZM565.451 225.28H567.755V238H565.571V236.08C564.635 237.4 563.051 238.144 561.251 238.144C557.963 238.144 555.779 236.344 555.779 232.6V225.28H558.083V232.336C558.083 234.832 559.331 236.08 561.515 236.08C563.915 236.08 565.451 234.592 565.451 231.856V225.28ZM575.789 238.144C573.677 238.144 571.589 237.496 570.533 236.656L571.493 234.832C572.573 235.6 574.301 236.152 575.957 236.152C578.093 236.152 578.981 235.504 578.981 234.424C578.981 231.568 570.941 234.04 570.941 228.976C570.941 226.696 572.981 225.16 576.245 225.16C577.901 225.16 579.773 225.592 580.877 226.312L579.893 228.136C578.741 227.392 577.469 227.128 576.221 227.128C574.205 227.128 573.221 227.872 573.221 228.88C573.221 231.88 581.285 229.432 581.285 234.376C581.285 236.68 579.173 238.144 575.789 238.144ZM590.596 235.6L591.316 237.256C590.62 237.856 589.564 238.144 588.532 238.144C585.964 238.144 584.5 236.728 584.5 234.16V227.176H582.34V225.28H584.5V222.496H586.804V225.28H590.452V227.176H586.804V234.064C586.804 235.432 587.524 236.2 588.796 236.2C589.468 236.2 590.116 235.984 590.596 235.6ZM599.128 238.144C595.312 238.144 592.504 235.432 592.504 231.64C592.504 227.848 595.312 225.16 599.128 225.16C602.944 225.16 605.728 227.848 605.728 231.64C605.728 235.432 602.944 238.144 599.128 238.144ZM599.128 236.128C601.576 236.128 603.4 234.352 603.4 231.64C603.4 228.928 601.576 227.176 599.128 227.176C596.68 227.176 594.832 228.928 594.832 231.64C594.832 234.352 596.68 236.128 599.128 236.128Z" fill="#07092D"/>
<path d="M453.368 70H450.752L447.128 64.84C446.792 64.864 446.432 64.888 446.072 64.888H441.92V70H439.52V53.2H446.072C450.44 53.2 453.08 55.408 453.08 59.056C453.08 61.648 451.736 63.52 449.384 64.36L453.368 70ZM446 62.848C449.072 62.848 450.68 61.456 450.68 59.056C450.68 56.656 449.072 55.288 446 55.288H441.92V62.848H446ZM468.118 63.712C468.118 63.904 468.094 64.192 468.07 64.408H457.75C458.038 66.64 459.838 68.128 462.358 68.128C463.846 68.128 465.094 67.624 466.03 66.592L467.302 68.08C466.15 69.424 464.398 70.144 462.286 70.144C458.182 70.144 455.446 67.432 455.446 63.64C455.446 59.872 458.158 57.16 461.83 57.16C465.502 57.16 468.118 59.8 468.118 63.712ZM461.83 59.104C459.622 59.104 457.99 60.592 457.75 62.752H465.91C465.67 60.616 464.062 59.104 461.83 59.104ZM478.061 57.16C481.781 57.16 484.493 59.752 484.493 63.64C484.493 67.552 481.781 70.144 478.061 70.144C476.261 70.144 474.677 69.448 473.621 68.08V74.656H471.317V57.28H473.525V59.296C474.557 57.88 476.189 57.16 478.061 57.16ZM477.869 68.128C480.317 68.128 482.165 66.352 482.165 63.64C482.165 60.952 480.317 59.176 477.869 59.176C475.445 59.176 473.597 60.952 473.597 63.64C473.597 66.352 475.445 68.128 477.869 68.128ZM489.884 59.416C490.7 57.928 492.284 57.16 494.516 57.16V59.392C494.324 59.368 494.156 59.368 493.988 59.368C491.516 59.368 489.98 60.88 489.98 63.664V70H487.676V57.28H489.884V59.416ZM502.687 70.144C498.871 70.144 496.063 67.432 496.063 63.64C496.063 59.848 498.871 57.16 502.687 57.16C506.503 57.16 509.287 59.848 509.287 63.64C509.287 67.432 506.503 70.144 502.687 70.144ZM502.687 68.128C505.135 68.128 506.959 66.352 506.959 63.64C506.959 60.928 505.135 59.176 502.687 59.176C500.239 59.176 498.391 60.928 498.391 63.64C498.391 66.352 500.239 68.128 502.687 68.128ZM522.169 52.192H524.473V70H522.265V67.984C521.233 69.424 519.601 70.144 517.729 70.144C514.009 70.144 511.297 67.528 511.297 63.64C511.297 59.752 514.009 57.16 517.729 57.16C519.529 57.16 521.113 57.832 522.169 59.2V52.192ZM517.921 68.128C520.345 68.128 522.193 66.352 522.193 63.64C522.193 60.928 520.345 59.176 517.921 59.176C515.473 59.176 513.625 60.928 513.625 63.64C513.625 66.352 515.473 68.128 517.921 68.128ZM538.384 57.28H540.688V70H538.504V68.08C537.568 69.4 535.984 70.144 534.184 70.144C530.896 70.144 528.712 68.344 528.712 64.6V57.28H531.016V64.336C531.016 66.832 532.264 68.08 534.448 68.08C536.848 68.08 538.384 66.592 538.384 63.856V57.28ZM550.619 70.144C546.707 70.144 543.899 67.432 543.899 63.64C543.899 59.848 546.707 57.16 550.619 57.16C552.899 57.16 554.795 58.096 555.803 59.872L554.051 61C553.235 59.752 551.987 59.176 550.595 59.176C548.099 59.176 546.227 60.928 546.227 63.64C546.227 66.4 548.099 68.128 550.595 68.128C551.987 68.128 553.235 67.552 554.051 66.304L555.803 67.408C554.795 69.184 552.899 70.144 550.619 70.144ZM564.142 70.144C560.23 70.144 557.422 67.432 557.422 63.64C557.422 59.848 560.23 57.16 564.142 57.16C566.422 57.16 568.318 58.096 569.326 59.872L567.574 61C566.758 59.752 565.51 59.176 564.118 59.176C561.622 59.176 559.75 60.928 559.75 63.64C559.75 66.4 561.622 68.128 564.118 68.128C565.51 68.128 566.758 67.552 567.574 66.304L569.326 67.408C568.318 69.184 566.422 70.144 564.142 70.144ZM573.461 54.832C572.573 54.832 571.901 54.184 571.901 53.344C571.901 52.504 572.573 51.832 573.461 51.832C574.349 51.832 575.021 52.48 575.021 53.296C575.021 54.16 574.373 54.832 573.461 54.832ZM572.309 70V57.28H574.613V70H572.309ZM584.46 70.144C580.644 70.144 577.836 67.432 577.836 63.64C577.836 59.848 580.644 57.16 584.46 57.16C588.276 57.16 591.06 59.848 591.06 63.64C591.06 67.432 588.276 70.144 584.46 70.144ZM584.46 68.128C586.908 68.128 588.732 66.352 588.732 63.64C588.732 60.928 586.908 59.176 584.46 59.176C582.012 59.176 580.164 60.928 580.164 63.64C580.164 66.352 582.012 68.128 584.46 68.128ZM601.039 57.16C604.135 57.16 606.319 58.936 606.319 62.68V70H604.015V62.944C604.015 60.448 602.767 59.224 600.583 59.224C598.135 59.224 596.551 60.688 596.551 63.448V70H594.247V57.28H596.455V59.2C597.391 57.904 599.023 57.16 601.039 57.16ZM622.149 63.712C622.149 63.904 622.125 64.192 622.101 64.408H611.781C612.069 66.64 613.869 68.128 616.389 68.128C617.877 68.128 619.125 67.624 620.061 66.592L621.333 68.08C620.181 69.424 618.429 70.144 616.317 70.144C612.213 70.144 609.477 67.432 609.477 63.64C609.477 59.872 612.189 57.16 615.861 57.16C619.533 57.16 622.149 59.8 622.149 63.712ZM615.861 59.104C613.653 59.104 612.021 60.592 611.781 62.752H619.941C619.701 60.616 618.093 59.104 615.861 59.104ZM628.996 70.144C626.884 70.144 624.796 69.496 623.74 68.656L624.7 66.832C625.78 67.6 627.508 68.152 629.164 68.152C631.3 68.152 632.188 67.504 632.188 66.424C632.188 63.568 624.148 66.04 624.148 60.976C624.148 58.696 626.188 57.16 629.452 57.16C631.108 57.16 632.98 57.592 634.084 58.312L633.1 60.136C631.948 59.392 630.676 59.128 629.428 59.128C627.412 59.128 626.428 59.872 626.428 60.88C626.428 63.88 634.492 61.432 634.492 66.376C634.492 68.68 632.38 70.144 628.996 70.144Z" fill="#07092D"/>
<path d="M441.912 99.096C440.232 99.096 438.584 98.504 437.752 97.64L438.216 96.728C439.016 97.512 440.44 98.088 441.912 98.088C444.008 98.088 444.92 97.208 444.92 96.104C444.92 93.032 438.024 94.92 438.024 90.776C438.024 89.128 439.304 87.704 442.152 87.704C443.416 87.704 444.728 88.072 445.624 88.696L445.224 89.64C444.264 89.016 443.144 88.712 442.152 88.712C440.104 88.712 439.192 89.624 439.192 90.744C439.192 93.816 446.088 91.96 446.088 96.04C446.088 97.688 444.776 99.096 441.912 99.096ZM455.772 94.792C455.772 94.888 455.756 95.016 455.756 95.144H448.716C448.844 96.904 450.188 98.072 452.028 98.072C453.052 98.072 453.964 97.704 454.604 96.968L455.244 97.704C454.492 98.6 453.324 99.08 451.996 99.08C449.372 99.08 447.58 97.288 447.58 94.792C447.58 92.296 449.324 90.52 451.692 90.52C454.06 90.52 455.772 92.264 455.772 94.792ZM451.692 91.496C450.06 91.496 448.86 92.648 448.716 94.296H454.684C454.54 92.648 453.34 91.496 451.692 91.496ZM465.216 90.52C467.392 90.52 468.624 91.608 468.624 93.784V99H467.536V97.688C467.024 98.552 466.032 99.08 464.64 99.08C462.736 99.08 461.568 98.088 461.568 96.632C461.568 95.336 462.4 94.248 464.816 94.248H467.488V93.736C467.488 92.296 466.672 91.512 465.104 91.512C464.016 91.512 462.992 91.896 462.304 92.504L461.792 91.656C462.64 90.936 463.888 90.52 465.216 90.52ZM464.816 98.184C466.096 98.184 467.04 97.576 467.488 96.472V95.096H464.848C463.216 95.096 462.688 95.736 462.688 96.6C462.688 97.576 463.472 98.184 464.816 98.184ZM478.444 90.584H479.532V97.976C479.532 100.872 478.108 102.184 475.324 102.184C473.788 102.184 472.284 101.72 471.404 100.888L471.98 100.024C472.78 100.744 473.996 101.176 475.292 101.176C477.42 101.176 478.396 100.2 478.396 98.12V97.048C477.692 98.12 476.492 98.68 475.116 98.68C472.716 98.68 470.892 97 470.892 94.584C470.892 92.168 472.716 90.52 475.116 90.52C476.524 90.52 477.74 91.096 478.444 92.2V90.584ZM475.228 97.672C477.084 97.672 478.428 96.408 478.428 94.584C478.428 92.76 477.084 91.512 475.228 91.512C473.372 91.512 472.044 92.76 472.044 94.584C472.044 96.408 473.372 97.672 475.228 97.672ZM483.797 92.232C484.325 91.112 485.397 90.52 486.949 90.52V91.624C486.853 91.624 486.757 91.608 486.677 91.608C484.917 91.608 483.845 92.728 483.845 94.712V99H482.709V90.584H483.797V92.232ZM496.272 94.792C496.272 94.888 496.256 95.016 496.256 95.144H489.216C489.344 96.904 490.688 98.072 492.528 98.072C493.552 98.072 494.464 97.704 495.104 96.968L495.744 97.704C494.992 98.6 493.824 99.08 492.496 99.08C489.872 99.08 488.08 97.288 488.08 94.792C488.08 92.296 489.824 90.52 492.192 90.52C494.56 90.52 496.272 92.264 496.272 94.792ZM492.192 91.496C490.56 91.496 489.36 92.648 489.216 94.296H495.184C495.04 92.648 493.84 91.496 492.192 91.496ZM505.288 90.584H506.376V97.976C506.376 100.872 504.952 102.184 502.168 102.184C500.632 102.184 499.128 101.72 498.248 100.888L498.824 100.024C499.624 100.744 500.84 101.176 502.136 101.176C504.264 101.176 505.24 100.2 505.24 98.12V97.048C504.536 98.12 503.336 98.68 501.96 98.68C499.56 98.68 497.736 97 497.736 94.584C497.736 92.168 499.56 90.52 501.96 90.52C503.368 90.52 504.584 91.096 505.288 92.2V90.584ZM502.072 97.672C503.928 97.672 505.272 96.408 505.272 94.584C505.272 92.76 503.928 91.512 502.072 91.512C500.216 91.512 498.888 92.76 498.888 94.584C498.888 96.408 500.216 97.672 502.072 97.672ZM512.497 90.52C514.673 90.52 515.905 91.608 515.905 93.784V99H514.817V97.688C514.305 98.552 513.313 99.08 511.921 99.08C510.017 99.08 508.849 98.088 508.849 96.632C508.849 95.336 509.681 94.248 512.097 94.248H514.769V93.736C514.769 92.296 513.953 91.512 512.385 91.512C511.297 91.512 510.273 91.896 509.585 92.504L509.073 91.656C509.921 90.936 511.169 90.52 512.497 90.52ZM512.097 98.184C513.377 98.184 514.321 97.576 514.769 96.472V95.096H512.129C510.497 95.096 509.969 95.736 509.969 96.6C509.969 97.576 510.753 98.184 512.097 98.184ZM523.278 90.52C525.326 90.52 526.734 91.704 526.734 94.12V99H525.598V94.232C525.598 92.456 524.67 91.544 523.07 91.544C521.262 91.544 520.126 92.664 520.126 94.584V99H518.99V90.584H520.078V92.136C520.686 91.112 521.822 90.52 523.278 90.52ZM544.502 90.52C546.55 90.52 547.894 91.704 547.894 94.12V99H546.758V94.232C546.758 92.456 545.862 91.544 544.342 91.544C542.614 91.544 541.526 92.664 541.526 94.584V99H540.39V94.232C540.39 92.456 539.494 91.544 537.958 91.544C536.246 91.544 535.142 92.664 535.142 94.584V99H534.006V90.584H535.094V92.12C535.686 91.112 536.774 90.52 538.182 90.52C539.574 90.52 540.662 91.112 541.174 92.296C541.782 91.208 542.982 90.52 544.502 90.52ZM554.446 99.08C551.982 99.08 550.158 97.288 550.158 94.792C550.158 92.296 551.982 90.52 554.446 90.52C556.91 90.52 558.718 92.296 558.718 94.792C558.718 97.288 556.91 99.08 554.446 99.08ZM554.446 98.072C556.238 98.072 557.566 96.76 557.566 94.792C557.566 92.824 556.238 91.512 554.446 91.512C552.654 91.512 551.31 92.824 551.31 94.792C551.31 96.76 552.654 98.072 554.446 98.072ZM563.293 99.08C561.901 99.08 560.557 98.632 559.869 98.04L560.381 97.144C561.053 97.672 562.189 98.088 563.373 98.088C564.973 98.088 565.629 97.544 565.629 96.712C565.629 94.52 560.173 96.248 560.173 92.92C560.173 91.544 561.357 90.52 563.501 90.52C564.589 90.52 565.773 90.824 566.477 91.304L565.981 92.216C565.245 91.704 564.365 91.496 563.501 91.496C561.981 91.496 561.309 92.088 561.309 92.888C561.309 95.16 566.765 93.448 566.765 96.68C566.765 98.136 565.485 99.08 563.293 99.08ZM572.897 97.672L573.297 98.488C572.849 98.888 572.177 99.08 571.521 99.08C569.937 99.08 569.057 98.184 569.057 96.632V91.544H567.553V90.584H569.057V88.744H570.193V90.584H572.753V91.544H570.193V96.568C570.193 97.56 570.705 98.104 571.649 98.104C572.113 98.104 572.577 97.96 572.897 97.672ZM578.309 90.52C580.485 90.52 581.717 91.608 581.717 93.784V99H580.629V97.688C580.117 98.552 579.125 99.08 577.733 99.08C575.829 99.08 574.661 98.088 574.661 96.632C574.661 95.336 575.493 94.248 577.909 94.248H580.581V93.736C580.581 92.296 579.765 91.512 578.197 91.512C577.109 91.512 576.085 91.896 575.397 92.504L574.885 91.656C575.733 90.936 576.981 90.52 578.309 90.52ZM577.909 98.184C579.189 98.184 580.133 97.576 580.581 96.472V95.096H577.941C576.309 95.096 575.781 95.736 575.781 96.6C575.781 97.576 576.565 98.184 577.909 98.184ZM588.322 99.08C585.81 99.08 583.986 97.304 583.986 94.792C583.986 92.28 585.81 90.52 588.322 90.52C589.746 90.52 590.946 91.08 591.618 92.184L590.77 92.76C590.194 91.912 589.298 91.512 588.322 91.512C586.482 91.512 585.138 92.824 585.138 94.792C585.138 96.776 586.482 98.072 588.322 98.072C589.298 98.072 590.194 97.688 590.77 96.84L591.618 97.416C590.946 98.504 589.746 99.08 588.322 99.08ZM594.426 88.744C593.962 88.744 593.594 88.376 593.594 87.928C593.594 87.496 593.962 87.128 594.426 87.128C594.89 87.128 595.258 87.48 595.258 87.912C595.258 88.376 594.906 88.744 594.426 88.744ZM593.85 99V90.584H594.986V99H593.85ZM598.147 99V87.128H599.283V99H598.147ZM602.443 99V87.128H603.579V99H602.443ZM609.684 90.52C611.86 90.52 613.092 91.608 613.092 93.784V99H612.004V97.688C611.492 98.552 610.5 99.08 609.108 99.08C607.204 99.08 606.036 98.088 606.036 96.632C606.036 95.336 606.868 94.248 609.284 94.248H611.956V93.736C611.956 92.296 611.14 91.512 609.572 91.512C608.484 91.512 607.46 91.896 606.772 92.504L606.26 91.656C607.108 90.936 608.356 90.52 609.684 90.52ZM609.284 98.184C610.564 98.184 611.508 97.576 611.956 96.472V95.096H609.316C607.684 95.096 607.156 95.736 607.156 96.6C607.156 97.576 607.94 98.184 609.284 98.184ZM618.434 99.08C617.042 99.08 615.698 98.632 615.01 98.04L615.522 97.144C616.194 97.672 617.33 98.088 618.514 98.088C620.114 98.088 620.77 97.544 620.77 96.712C620.77 94.52 615.314 96.248 615.314 92.92C615.314 91.544 616.498 90.52 618.642 90.52C619.73 90.52 620.914 90.824 621.618 91.304L621.122 92.216C620.386 91.704 619.506 91.496 618.642 91.496C617.122 91.496 616.45 92.088 616.45 92.888C616.45 95.16 621.906 93.448 621.906 96.68C621.906 98.136 620.626 99.08 618.434 99.08ZM441.528 110.52C443.704 110.52 444.936 111.608 444.936 113.784V119H443.848V117.688C443.336 118.552 442.344 119.08 440.952 119.08C439.048 119.08 437.88 118.088 437.88 116.632C437.88 115.336 438.712 114.248 441.128 114.248H443.8V113.736C443.8 112.296 442.984 111.512 441.416 111.512C440.328 111.512 439.304 111.896 438.616 112.504L438.104 111.656C438.952 110.936 440.2 110.52 441.528 110.52ZM441.128 118.184C442.408 118.184 443.352 117.576 443.8 116.472V115.096H441.16C439.528 115.096 439 115.736 439 116.6C439 117.576 439.784 118.184 441.128 118.184ZM452.358 110.52C454.758 110.52 456.55 112.248 456.55 114.792C456.55 117.336 454.758 119.08 452.358 119.08C450.966 119.08 449.798 118.472 449.11 117.336V119H448.022V107.128H449.158V112.184C449.862 111.096 451.014 110.52 452.358 110.52ZM452.278 118.072C454.054 118.072 455.414 116.76 455.414 114.792C455.414 112.824 454.054 111.512 452.278 111.512C450.486 111.512 449.142 112.824 449.142 114.792C449.142 116.76 450.486 118.072 452.278 118.072ZM461.762 110.52C463.938 110.52 465.17 111.608 465.17 113.784V119H464.082V117.688C463.57 118.552 462.578 119.08 461.186 119.08C459.282 119.08 458.114 118.088 458.114 116.632C458.114 115.336 458.946 114.248 461.362 114.248H464.034V113.736C464.034 112.296 463.218 111.512 461.65 111.512C460.562 111.512 459.538 111.896 458.85 112.504L458.338 111.656C459.186 110.936 460.434 110.52 461.762 110.52ZM461.362 118.184C462.642 118.184 463.586 117.576 464.034 116.472V115.096H461.394C459.762 115.096 459.234 115.736 459.234 116.6C459.234 117.576 460.018 118.184 461.362 118.184ZM468.912 108.744C468.448 108.744 468.08 108.376 468.08 107.928C468.08 107.496 468.448 107.128 468.912 107.128C469.376 107.128 469.744 107.48 469.744 107.912C469.744 108.376 469.392 108.744 468.912 108.744ZM467.008 122.184C466.336 122.184 465.648 122.008 465.232 121.64L465.632 120.776C465.968 121.064 466.416 121.208 466.944 121.208C467.84 121.208 468.336 120.664 468.336 119.624V110.584H469.472V119.624C469.472 121.176 468.608 122.184 467.008 122.184ZM476.087 119.08C473.623 119.08 471.799 117.288 471.799 114.792C471.799 112.296 473.623 110.52 476.087 110.52C478.551 110.52 480.359 112.296 480.359 114.792C480.359 117.288 478.551 119.08 476.087 119.08ZM476.087 118.072C477.879 118.072 479.207 116.76 479.207 114.792C479.207 112.824 477.879 111.512 476.087 111.512C474.295 111.512 472.951 112.824 472.951 114.792C472.951 116.76 474.295 118.072 476.087 118.072ZM491.201 110.52C493.601 110.52 495.393 112.248 495.393 114.792C495.393 117.352 493.601 119.08 491.201 119.08C489.857 119.08 488.705 118.504 488.001 117.416V122.104H486.865V110.584H487.953V112.248C488.641 111.128 489.809 110.52 491.201 110.52ZM491.121 118.072C492.897 118.072 494.257 116.76 494.257 114.792C494.257 112.84 492.897 111.512 491.121 111.512C489.329 111.512 487.985 112.84 487.985 114.792C487.985 116.76 489.329 118.072 491.121 118.072ZM501.149 119.08C498.685 119.08 496.861 117.288 496.861 114.792C496.861 112.296 498.685 110.52 501.149 110.52C503.613 110.52 505.421 112.296 505.421 114.792C505.421 117.288 503.613 119.08 501.149 119.08ZM501.149 118.072C502.941 118.072 504.269 116.76 504.269 114.792C504.269 112.824 502.941 111.512 501.149 111.512C499.357 111.512 498.013 112.824 498.013 114.792C498.013 116.76 499.357 118.072 501.149 118.072ZM508.828 112.232C509.356 111.112 510.428 110.52 511.98 110.52V111.624C511.884 111.624 511.788 111.608 511.708 111.608C509.948 111.608 508.876 112.728 508.876 114.712V119H507.74V110.584H508.828V112.232ZM521.838 119.08C519.326 119.08 517.502 117.304 517.502 114.792C517.502 112.28 519.326 110.52 521.838 110.52C523.262 110.52 524.462 111.08 525.134 112.184L524.286 112.76C523.71 111.912 522.814 111.512 521.838 111.512C519.998 111.512 518.654 112.824 518.654 114.792C518.654 116.776 519.998 118.072 521.838 118.072C522.814 118.072 523.71 117.688 524.286 116.84L525.134 117.416C524.462 118.504 523.262 119.08 521.838 119.08ZM530.309 110.52C532.485 110.52 533.717 111.608 533.717 113.784V119H532.629V117.688C532.117 118.552 531.125 119.08 529.733 119.08C527.829 119.08 526.661 118.088 526.661 116.632C526.661 115.336 527.493 114.248 529.909 114.248H532.581V113.736C532.581 112.296 531.765 111.512 530.197 111.512C529.109 111.512 528.085 111.896 527.397 112.504L526.885 111.656C527.733 110.936 528.981 110.52 530.309 110.52ZM529.909 118.184C531.189 118.184 532.133 117.576 532.581 116.472V115.096H529.941C528.309 115.096 527.781 115.736 527.781 116.6C527.781 117.576 528.565 118.184 529.909 118.184ZM543.378 107.128H544.514V119H543.426V117.336C542.738 118.472 541.57 119.08 540.178 119.08C537.778 119.08 535.986 117.336 535.986 114.792C535.986 112.248 537.778 110.52 540.178 110.52C541.522 110.52 542.674 111.096 543.378 112.184V107.128ZM540.274 118.072C542.05 118.072 543.394 116.76 543.394 114.792C543.394 112.824 542.05 111.512 540.274 111.512C538.482 111.512 537.138 112.824 537.138 114.792C537.138 116.76 538.482 118.072 540.274 118.072ZM550.622 110.52C552.798 110.52 554.03 111.608 554.03 113.784V119H552.942V117.688C552.43 118.552 551.438 119.08 550.046 119.08C548.142 119.08 546.974 118.088 546.974 116.632C546.974 115.336 547.806 114.248 550.222 114.248H552.894V113.736C552.894 112.296 552.078 111.512 550.51 111.512C549.422 111.512 548.398 111.896 547.71 112.504L547.198 111.656C548.046 110.936 549.294 110.52 550.622 110.52ZM550.222 118.184C551.502 118.184 552.446 117.576 552.894 116.472V115.096H550.254C548.622 115.096 548.094 115.736 548.094 116.6C548.094 117.576 548.878 118.184 550.222 118.184ZM565.639 110.52C568.039 110.52 569.831 112.248 569.831 114.792C569.831 117.336 568.039 119.08 565.639 119.08C564.247 119.08 563.079 118.472 562.391 117.336V119H561.303V107.128H562.439V112.184C563.143 111.096 564.295 110.52 565.639 110.52ZM565.559 118.072C567.335 118.072 568.695 116.76 568.695 114.792C568.695 112.824 567.335 111.512 565.559 111.512C563.767 111.512 562.423 112.824 562.423 114.792C562.423 116.76 563.767 118.072 565.559 118.072ZM572.723 108.744C572.259 108.744 571.891 108.376 571.891 107.928C571.891 107.496 572.259 107.128 572.723 107.128C573.187 107.128 573.555 107.48 573.555 107.912C573.555 108.376 573.203 108.744 572.723 108.744ZM572.147 119V110.584H573.283V119H572.147ZM576.443 119V107.128H577.579V119H576.443ZM580.74 119V107.128H581.876V119H580.74ZM588.477 119.08C586.013 119.08 584.189 117.288 584.189 114.792C584.189 112.296 586.013 110.52 588.477 110.52C590.941 110.52 592.749 112.296 592.749 114.792C592.749 117.288 590.941 119.08 588.477 119.08ZM588.477 118.072C590.269 118.072 591.597 116.76 591.597 114.792C591.597 112.824 590.269 111.512 588.477 111.512C586.685 111.512 585.341 112.824 585.341 114.792C585.341 116.76 586.685 118.072 588.477 118.072ZM599.356 110.52C601.404 110.52 602.812 111.704 602.812 114.12V119H601.676V114.232C601.676 112.456 600.748 111.544 599.148 111.544C597.34 111.544 596.204 112.664 596.204 114.584V119H595.068V110.584H596.156V112.136C596.764 111.112 597.9 110.52 599.356 110.52ZM606.009 119.08C605.545 119.08 605.161 118.696 605.161 118.2C605.161 117.704 605.545 117.336 606.009 117.336C606.473 117.336 606.873 117.704 606.873 118.2C606.873 118.696 606.473 119.08 606.009 119.08Z" fill="#AFB4B9"/>
<path d="M454.875 255.8C457.723 255.8 459.451 257.24 459.451 259.64C459.451 262.024 457.723 263.464 454.875 263.464H451.867V267H450.683V255.8H454.875ZM454.843 262.424C457.083 262.424 458.267 261.4 458.267 259.64C458.267 257.848 457.083 256.824 454.843 256.824H451.867V262.424H454.843ZM465.164 267.08C462.7 267.08 460.876 265.288 460.876 262.792C460.876 260.296 462.7 258.52 465.164 258.52C467.628 258.52 469.436 260.296 469.436 262.792C469.436 265.288 467.628 267.08 465.164 267.08ZM465.164 266.072C466.956 266.072 468.284 264.76 468.284 262.792C468.284 260.824 466.956 259.512 465.164 259.512C463.372 259.512 462.028 260.824 462.028 262.792C462.028 264.76 463.372 266.072 465.164 266.072ZM475.244 267.08C472.732 267.08 470.908 265.304 470.908 262.792C470.908 260.28 472.732 258.52 475.244 258.52C476.668 258.52 477.868 259.08 478.54 260.184L477.692 260.76C477.116 259.912 476.22 259.512 475.244 259.512C473.404 259.512 472.06 260.824 472.06 262.792C472.06 264.776 473.404 266.072 475.244 266.072C476.22 266.072 477.116 265.688 477.692 264.84L478.54 265.416C477.868 266.504 476.668 267.08 475.244 267.08ZM484.071 267.08C481.607 267.08 479.783 265.288 479.783 262.792C479.783 260.296 481.607 258.52 484.071 258.52C486.535 258.52 488.343 260.296 488.343 262.792C488.343 265.288 486.535 267.08 484.071 267.08ZM484.071 266.072C485.863 266.072 487.191 264.76 487.191 262.792C487.191 260.824 485.863 259.512 484.071 259.512C482.279 259.512 480.935 260.824 480.935 262.792C480.935 264.76 482.279 266.072 484.071 266.072Z" fill="#AFB4B9"/>
<path d="M532.763 267V255.8H533.947V267H532.763ZM541.639 258.52C543.687 258.52 545.095 259.704 545.095 262.12V267H543.959V262.232C543.959 260.456 543.031 259.544 541.431 259.544C539.623 259.544 538.487 260.664 538.487 262.584V267H537.351V258.584H538.439V260.136C539.047 259.112 540.183 258.52 541.639 258.52ZM552.211 265.672L552.611 266.488C552.163 266.888 551.491 267.08 550.835 267.08C549.251 267.08 548.371 266.184 548.371 264.632V259.544H546.867V258.584H548.371V256.744H549.507V258.584H552.067V259.544H549.507V264.568C549.507 265.56 550.019 266.104 550.963 266.104C551.427 266.104 551.891 265.96 552.211 265.672ZM561.726 262.792C561.726 262.888 561.71 263.016 561.71 263.144H554.67C554.798 264.904 556.142 266.072 557.982 266.072C559.006 266.072 559.918 265.704 560.558 264.968L561.198 265.704C560.446 266.6 559.278 267.08 557.95 267.08C555.326 267.08 553.534 265.288 553.534 262.792C553.534 260.296 555.278 258.52 557.646 258.52C560.014 258.52 561.726 260.264 561.726 262.792ZM557.646 259.496C556.014 259.496 554.814 260.648 554.67 262.296H560.638C560.494 260.648 559.294 259.496 557.646 259.496ZM565.126 260.232C565.654 259.112 566.726 258.52 568.278 258.52V259.624C568.182 259.624 568.086 259.608 568.006 259.608C566.246 259.608 565.174 260.728 565.174 262.712V267H564.038V258.584H565.126V260.232ZM580.831 258.52C582.879 258.52 584.223 259.704 584.223 262.12V267H583.087V262.232C583.087 260.456 582.191 259.544 580.671 259.544C578.943 259.544 577.855 260.664 577.855 262.584V267H576.719V262.232C576.719 260.456 575.823 259.544 574.287 259.544C572.575 259.544 571.471 260.664 571.471 262.584V267H570.335V258.584H571.423V260.12C572.015 259.112 573.103 258.52 574.511 258.52C575.903 258.52 576.991 259.112 577.503 260.296C578.111 259.208 579.311 258.52 580.831 258.52ZM594.679 262.792C594.679 262.888 594.663 263.016 594.663 263.144H587.623C587.751 264.904 589.095 266.072 590.935 266.072C591.959 266.072 592.871 265.704 593.511 264.968L594.151 265.704C593.399 266.6 592.231 267.08 590.903 267.08C588.279 267.08 586.487 265.288 586.487 262.792C586.487 260.296 588.231 258.52 590.599 258.52C592.967 258.52 594.679 260.264 594.679 262.792ZM590.599 259.496C588.967 259.496 587.767 260.648 587.623 262.296H593.591C593.447 260.648 592.247 259.496 590.599 259.496ZM603.536 255.128H604.672V267H603.584V265.336C602.896 266.472 601.728 267.08 600.336 267.08C597.936 267.08 596.144 265.336 596.144 262.792C596.144 260.248 597.936 258.52 600.336 258.52C601.68 258.52 602.832 259.096 603.536 260.184V255.128ZM600.432 266.072C602.208 266.072 603.552 264.76 603.552 262.792C603.552 260.824 602.208 259.512 600.432 259.512C598.64 259.512 597.296 260.824 597.296 262.792C597.296 264.76 598.64 266.072 600.432 266.072ZM608.411 256.744C607.947 256.744 607.579 256.376 607.579 255.928C607.579 255.496 607.947 255.128 608.411 255.128C608.875 255.128 609.243 255.48 609.243 255.912C609.243 256.376 608.891 256.744 608.411 256.744ZM607.835 267V258.584H608.971V267H607.835ZM615.572 267.08C613.108 267.08 611.284 265.288 611.284 262.792C611.284 260.296 613.108 258.52 615.572 258.52C618.036 258.52 619.844 260.296 619.844 262.792C619.844 265.288 618.036 267.08 615.572 267.08ZM615.572 266.072C617.364 266.072 618.692 264.76 618.692 262.792C618.692 260.824 617.364 259.512 615.572 259.512C613.78 259.512 612.436 260.824 612.436 262.792C612.436 264.76 613.78 266.072 615.572 266.072Z" fill="#AFB4B9"/>
<path d="M669.295 255.8H670.271V267H669.135V258.04L664.735 265.576H664.175L659.775 258.088V267H658.639V255.8H659.615L664.479 264.104L669.295 255.8ZM680.129 258.584H681.265V267H680.177V265.464C679.585 266.488 678.497 267.08 677.153 267.08C675.009 267.08 673.601 265.88 673.601 263.464V258.584H674.737V263.352C674.737 265.144 675.665 266.056 677.265 266.056C679.025 266.056 680.129 264.92 680.129 263V258.584ZM687.934 267.08C685.422 267.08 683.598 265.304 683.598 262.792C683.598 260.28 685.422 258.52 687.934 258.52C689.358 258.52 690.558 259.08 691.23 260.184L690.382 260.76C689.806 259.912 688.91 259.512 687.934 259.512C686.094 259.512 684.75 260.824 684.75 262.792C684.75 264.776 686.094 266.072 687.934 266.072C688.91 266.072 689.806 265.688 690.382 264.84L691.23 265.416C690.558 266.504 689.358 267.08 687.934 267.08ZM697.625 258.52C699.673 258.52 701.081 259.704 701.081 262.12V267H699.945V262.232C699.945 260.456 699.017 259.544 697.417 259.544C695.609 259.544 694.473 260.664 694.473 262.584V267H693.337V255.128H694.473V260.056C695.097 259.08 696.201 258.52 697.625 258.52ZM707.636 267.08C705.172 267.08 703.348 265.288 703.348 262.792C703.348 260.296 705.172 258.52 707.636 258.52C710.1 258.52 711.908 260.296 711.908 262.792C711.908 265.288 710.1 267.08 707.636 267.08ZM707.636 266.072C709.428 266.072 710.756 264.76 710.756 262.792C710.756 260.824 709.428 259.512 707.636 259.512C705.844 259.512 704.5 260.824 704.5 262.792C704.5 264.76 705.844 266.072 707.636 266.072Z" fill="#AFB4B9"/>
<path d="M65.186 99.096C61.826 99.096 59.33 96.68 59.33 93.4C59.33 90.12 61.826 87.704 65.202 87.704C66.834 87.704 68.306 88.248 69.298 89.336L68.546 90.088C67.634 89.16 66.514 88.76 65.234 88.76C62.53 88.76 60.498 90.744 60.498 93.4C60.498 96.056 62.53 98.04 65.234 98.04C66.514 98.04 67.634 97.64 68.546 96.696L69.298 97.448C68.306 98.536 66.834 99.096 65.186 99.096ZM74.647 99.08C72.183 99.08 70.359 97.288 70.359 94.792C70.359 92.296 72.183 90.52 74.647 90.52C77.111 90.52 78.919 92.296 78.919 94.792C78.919 97.288 77.111 99.08 74.647 99.08ZM74.647 98.072C76.439 98.072 77.767 96.76 77.767 94.792C77.767 92.824 76.439 91.512 74.647 91.512C72.855 91.512 71.511 92.824 71.511 94.792C71.511 96.76 72.855 98.072 74.647 98.072ZM87.6863 90.584H88.8223V99H87.7343V97.464C87.1423 98.488 86.0543 99.08 84.7103 99.08C82.5663 99.08 81.1583 97.88 81.1583 95.464V90.584H82.2943V95.352C82.2943 97.144 83.2223 98.056 84.8223 98.056C86.5823 98.056 87.6863 96.92 87.6863 95V90.584ZM96.2919 90.52C98.3399 90.52 99.7479 91.704 99.7479 94.12V99H98.6119V94.232C98.6119 92.456 97.6839 91.544 96.0839 91.544C94.2759 91.544 93.1399 92.664 93.1399 94.584V99H92.0039V90.584H93.0919V92.136C93.6999 91.112 94.8359 90.52 96.2919 90.52ZM106.864 97.672L107.264 98.488C106.816 98.888 106.144 99.08 105.488 99.08C103.904 99.08 103.024 98.184 103.024 96.632V91.544H101.52V90.584H103.024V88.744H104.16V90.584H106.72V91.544H104.16V96.568C104.16 97.56 104.672 98.104 105.616 98.104C106.08 98.104 106.544 97.96 106.864 97.672ZM110.42 92.232C110.948 91.112 112.02 90.52 113.572 90.52V91.624C113.476 91.624 113.38 91.608 113.3 91.608C111.54 91.608 110.468 92.728 110.468 94.712V99H109.332V90.584H110.42V92.232ZM121.94 90.584H123.06L118.852 100.008C118.148 101.656 117.252 102.184 116.052 102.184C115.268 102.184 114.516 101.928 114.004 101.416L114.532 100.568C114.948 100.984 115.46 101.208 116.068 101.208C116.82 101.208 117.332 100.856 117.812 99.8L118.18 98.984L114.42 90.584H115.604L118.772 97.736L121.94 90.584Z" fill="#AFB4B9"/>
<path d="M167.455 87.8C170.303 87.8 172.031 89.24 172.031 91.64C172.031 94.024 170.303 95.464 167.455 95.464H164.447V99H163.263V87.8H167.455ZM167.423 94.424C169.663 94.424 170.847 93.4 170.847 91.64C170.847 89.848 169.663 88.824 167.423 88.824H164.447V94.424H167.423ZM177.744 99.08C175.28 99.08 173.456 97.288 173.456 94.792C173.456 92.296 175.28 90.52 177.744 90.52C180.208 90.52 182.016 92.296 182.016 94.792C182.016 97.288 180.208 99.08 177.744 99.08ZM177.744 98.072C179.536 98.072 180.864 96.76 180.864 94.792C180.864 92.824 179.536 91.512 177.744 91.512C175.952 91.512 174.608 92.824 174.608 94.792C174.608 96.76 175.952 98.072 177.744 98.072ZM188.671 90.52C191.071 90.52 192.863 92.248 192.863 94.792C192.863 97.352 191.071 99.08 188.671 99.08C187.327 99.08 186.175 98.504 185.471 97.416V102.104H184.335V90.584H185.423V92.248C186.111 91.128 187.279 90.52 188.671 90.52ZM188.591 98.072C190.367 98.072 191.727 96.76 191.727 94.792C191.727 92.84 190.367 91.512 188.591 91.512C186.799 91.512 185.455 92.84 185.455 94.792C185.455 96.76 186.799 98.072 188.591 98.072Z" fill="#AFB4B9"/>
<path d="M243.141 99H241.845L239.285 95.4C238.997 95.432 238.709 95.448 238.389 95.448H235.381V99H234.197V87.8H238.389C241.237 87.8 242.965 89.24 242.965 91.64C242.965 93.4 242.037 94.632 240.405 95.16L243.141 99ZM238.357 94.44C240.597 94.44 241.781 93.4 241.781 91.64C241.781 89.848 240.597 88.824 238.357 88.824H235.381V94.44H238.357ZM248.96 99.08C246.496 99.08 244.672 97.288 244.672 94.792C244.672 92.296 246.496 90.52 248.96 90.52C251.424 90.52 253.232 92.296 253.232 94.792C253.232 97.288 251.424 99.08 248.96 99.08ZM248.96 98.072C250.752 98.072 252.08 96.76 252.08 94.792C252.08 92.824 250.752 91.512 248.96 91.512C247.168 91.512 245.824 92.824 245.824 94.792C245.824 96.76 247.168 98.072 248.96 98.072ZM259.039 99.08C256.527 99.08 254.703 97.304 254.703 94.792C254.703 92.28 256.527 90.52 259.039 90.52C260.463 90.52 261.663 91.08 262.335 92.184L261.487 92.76C260.911 91.912 260.015 91.512 259.039 91.512C257.199 91.512 255.855 92.824 255.855 94.792C255.855 96.776 257.199 98.072 259.039 98.072C260.015 98.072 260.911 97.688 261.487 96.84L262.335 97.416C261.663 98.504 260.463 99.08 259.039 99.08ZM270.953 99L267.561 94.776L265.577 96.6V99H264.441V87.128H265.577V95.176L270.601 90.584H272.009L268.409 94.024L272.345 99H270.953Z" fill="#AFB4B9"/>
<path d="M301.671 99V87.8H302.855V99H301.671ZM310.547 90.52C312.595 90.52 314.003 91.704 314.003 94.12V99H312.867V94.232C312.867 92.456 311.939 91.544 310.339 91.544C308.531 91.544 307.395 92.664 307.395 94.584V99H306.259V90.584H307.347V92.136C307.955 91.112 309.091 90.52 310.547 90.52ZM323.662 87.128H324.798V99H323.71V97.336C323.022 98.472 321.854 99.08 320.462 99.08C318.062 99.08 316.27 97.336 316.27 94.792C316.27 92.248 318.062 90.52 320.462 90.52C321.806 90.52 322.958 91.096 323.662 92.184V87.128ZM320.558 98.072C322.334 98.072 323.678 96.76 323.678 94.792C323.678 92.824 322.334 91.512 320.558 91.512C318.766 91.512 317.422 92.824 317.422 94.792C317.422 96.76 318.766 98.072 320.558 98.072ZM328.538 88.744C328.074 88.744 327.706 88.376 327.706 87.928C327.706 87.496 328.074 87.128 328.538 87.128C329.002 87.128 329.37 87.48 329.37 87.912C329.37 88.376 329.018 88.744 328.538 88.744ZM327.962 99V90.584H329.098V99H327.962ZM339.603 94.792C339.603 94.888 339.587 95.016 339.587 95.144H332.547C332.675 96.904 334.019 98.072 335.859 98.072C336.883 98.072 337.795 97.704 338.435 96.968L339.075 97.704C338.323 98.6 337.155 99.08 335.827 99.08C333.203 99.08 331.411 97.288 331.411 94.792C331.411 92.296 333.155 90.52 335.523 90.52C337.891 90.52 339.603 92.264 339.603 94.792ZM335.523 91.496C333.891 91.496 332.691 92.648 332.547 94.296H338.515C338.371 92.648 337.171 91.496 335.523 91.496ZM354.023 88.824H347.527V93.224H353.319V94.248H347.527V99H346.343V87.8H354.023V88.824ZM359.386 99.08C356.922 99.08 355.098 97.288 355.098 94.792C355.098 92.296 356.922 90.52 359.386 90.52C361.85 90.52 363.658 92.296 363.658 94.792C363.658 97.288 361.85 99.08 359.386 99.08ZM359.386 98.072C361.178 98.072 362.506 96.76 362.506 94.792C362.506 92.824 361.178 91.512 359.386 91.512C357.594 91.512 356.25 92.824 356.25 94.792C356.25 96.76 357.594 98.072 359.386 98.072ZM365.978 99V87.128H367.114V99H365.978ZM376.786 99L373.394 94.776L371.41 96.6V99H370.274V87.128H371.41V95.176L376.434 90.584H377.842L374.242 94.024L378.178 99H376.786Z" fill="#AFB4B9"/>
<ellipse cx="94.3978" cy="152.585" rx="7.35292" ry="32.6986" fill="#210268"/>
<ellipse cx="94.3976" cy="152.585" rx="7.9537" ry="32.4394" transform="rotate(90 94.3976 152.585)" fill="#210268"/>
<ellipse cx="336.611" cy="152.585" rx="14.2733" ry="32.6986" fill="#210268"/>
<ellipse cx="336.611" cy="152.585" rx="14.1399" ry="32.4394" transform="rotate(90 336.611 152.585)" fill="#210268"/>
<ellipse cx="3.83287" cy="32.6019" rx="3.83287" ry="32.6019" transform="matrix(0.699508 -0.714625 0.699508 0.714625 150.69 131.567)" fill="#210268"/>
<ellipse cx="4.13607" cy="32.6019" rx="4.13607" ry="32.6019" transform="matrix(0.699508 0.714625 -0.699508 0.714625 195.804 126.073)" fill="#210268"/>
<ellipse cx="253.567" cy="152.585" rx="19.4636" ry="18.5586" fill="#210268"/>
<ellipse cx="685.646" cy="310.047" rx="7.35292" ry="30.0473" fill="#663CFE"/>
<ellipse cx="686.079" cy="310.489" rx="7.51183" ry="29.4117" transform="rotate(90 686.079 310.489)" fill="#663CFE"/>
<ellipse cx="580.412" cy="312.489" rx="6.92039" ry="30.4892" fill="#8B2BE8"/>
<ellipse cx="580.844" cy="312.489" rx="7.51183" ry="29.8442" transform="rotate(90 580.844 312.489)" fill="#8B2BE8"/>
<ellipse cx="472.844" cy="311.924" rx="7.35292" ry="30.4892" fill="#B90CD3"/>
<ellipse cx="472.412" cy="312.257" rx="7.51183" ry="29.4117" transform="rotate(90 472.412 312.257)" fill="#B90CD3"/>
<g filter="url(#filter1_d_129_3)">
<path d="M497 149C497 149 543.168 185.662 577.513 184.991C610.425 184.348 654 149 654 149" stroke="#AFB4B9" stroke-width="4"/>
</g>
<g filter="url(#filter2_d_129_3)">
<path d="M574.908 184.313C574.897 186.425 574.409 188.323 573.64 189.686C572.867 191.056 571.844 191.834 570.776 191.834C569.708 191.834 568.692 191.056 567.933 189.686C567.178 188.323 566.709 186.425 566.719 184.313C566.73 182.202 567.218 180.303 567.987 178.941C568.76 177.57 569.783 176.793 570.851 176.793C571.92 176.793 572.935 177.57 573.694 178.941C574.449 180.303 574.918 182.202 574.908 184.313Z" fill="#969BFF" stroke="black" stroke-width="0.5"/>
<path d="M574.203 184.371C574.195 186.023 573.813 187.506 573.214 188.567C572.611 189.636 571.821 190.228 571.01 190.228C570.198 190.228 569.415 189.636 568.822 188.567C568.234 187.506 567.867 186.023 567.875 184.371C567.883 182.719 568.266 181.236 568.864 180.175C569.468 179.105 570.257 178.514 571.069 178.514C571.88 178.514 572.664 179.105 573.256 180.175C573.844 181.236 574.212 182.719 574.203 184.371Z" fill="#E7E8FF" stroke="#210268" stroke-width="0.5"/>
</g>
<g filter="url(#filter3_d_129_3)">
<path d="M583.515 184.313C583.504 186.425 583.016 188.323 582.247 189.686C581.474 191.056 580.451 191.834 579.383 191.834C578.315 191.834 577.299 191.056 576.54 189.686C575.785 188.323 575.316 186.425 575.326 184.313C575.337 182.202 575.825 180.303 576.594 178.941C577.367 177.57 578.39 176.793 579.458 176.793C580.527 176.793 581.542 177.57 582.301 178.941C583.056 180.303 583.525 182.202 583.515 184.313Z" fill="#969BFF" stroke="black" stroke-width="0.5"/>
<path d="M582.811 184.371C582.802 186.023 582.42 187.506 581.822 188.567C581.218 189.636 580.429 190.228 579.617 190.228C578.806 190.228 578.022 189.636 577.43 188.567C576.842 187.506 576.474 186.023 576.483 184.371C576.491 182.719 576.873 181.236 577.472 180.175C578.075 179.105 578.864 178.514 579.676 178.514C580.488 178.514 581.271 179.105 581.864 180.175C582.452 181.236 582.819 182.719 582.811 184.371Z" fill="#E7E8FF" stroke="#210268" stroke-width="0.5"/>
</g>
<g filter="url(#filter4_d_129_3)">
<ellipse cx="72" cy="313.5" rx="10" ry="28.5" fill="#EBE7F3"/>
</g>
<g filter="url(#filter5_d_129_3)">
<ellipse cx="94" cy="313.5" rx="10" ry="28.5" fill="#EBE7F3"/>
</g>
<g filter="url(#filter6_d_129_3)">
<ellipse cx="116" cy="313.5" rx="10" ry="28.5" fill="#EBE7F3"/>
</g>
<g filter="url(#filter7_d_129_3)">
<ellipse cx="138" cy="313.5" rx="10" ry="28.5" fill="#EBE7F3"/>
</g>
<g filter="url(#filter8_d_129_3)">
<ellipse cx="160" cy="313.5" rx="10" ry="28.5" fill="#EBE7F3"/>
</g>
<g filter="url(#filter9_d_129_3)">
<ellipse cx="182" cy="313.5" rx="10" ry="28.5" fill="#EBE7F3"/>
</g>
<g filter="url(#filter10_d_129_3)">
<ellipse cx="204" cy="313.5" rx="10" ry="28.5" fill="#EBE7F3"/>
</g>
<g filter="url(#filter11_d_129_3)">
<ellipse cx="226" cy="313.5" rx="10" ry="28.5" fill="#EBE7F3"/>
</g>
<g filter="url(#filter12_d_129_3)">
<path d="M783.949 100.354H1005.07" stroke="#AFB4B9" stroke-width="2"/>
<ellipse cx="1005.03" cy="100.375" rx="1.59083" ry="2.52276" fill="#AFB4B9"/>
<ellipse cx="785.671" cy="100.375" rx="1.59083" ry="2.52276" fill="#AFB4B9"/>
<path d="M1005.99 100.056L1010.42 94" stroke="#AFB4B9" stroke-width="2" stroke-linecap="round"/>
<path d="M1005.99 100.51C1008.34 100.51 1010.13 101.865 1012 103.235" stroke="#AFB4B9" stroke-width="2" stroke-linecap="round"/>
<path d="M785.496 99.9976C784.043 99.0902 782.84 97.6032 781.598 96.4264" stroke="#AFB4B9" stroke-width="2" stroke-linecap="round"/>
<path d="M784.976 100.547C782.609 101.103 780.658 103.19 779 104.942" stroke="#AFB4B9" stroke-width="2" stroke-linecap="round"/>
</g>
<g filter="url(#filter13_d_129_3)">
<path d="M784 326.354H1005.12" stroke="#4D00FF" stroke-width="2"/>
<path d="M1005.68 326.219C1005.68 326.836 1005.52 327.371 1005.29 327.736C1005.06 328.107 1004.8 328.241 1004.59 328.241C1004.38 328.241 1004.12 328.107 1003.89 327.736C1003.66 327.371 1003.5 326.836 1003.5 326.219C1003.5 325.602 1003.66 325.067 1003.89 324.702C1004.12 324.33 1004.38 324.196 1004.59 324.196C1004.8 324.196 1005.06 324.33 1005.29 324.702C1005.52 325.067 1005.68 325.602 1005.68 326.219Z" fill="#CFBEF7" stroke="#4D00FF"/>
<path d="M786.762 326.219C786.762 326.836 786.604 327.371 786.373 327.736C786.139 328.107 785.878 328.241 785.671 328.241C785.465 328.241 785.204 328.107 784.969 327.736C784.739 327.371 784.581 326.836 784.581 326.219C784.581 325.602 784.739 325.067 784.969 324.702C785.204 324.33 785.465 324.196 785.671 324.196C785.878 324.196 786.139 324.33 786.373 324.702C786.604 325.067 786.762 325.602 786.762 326.219Z" fill="#CFBEF7" stroke="#4D00FF"/>
<path d="M1005.6 326.056L1010.04 320" stroke="#4D00FF" stroke-width="2" stroke-linecap="round"/>
<path d="M1005.6 326.51C1007.95 326.51 1009.74 327.865 1011.61 329.235" stroke="#4D00FF" stroke-width="2" stroke-linecap="round"/>
<path d="M785.496 325.571C784.043 324.664 782.84 323.177 781.598 322" stroke="#4D00FF" stroke-width="2" stroke-linecap="round"/>
<path d="M784.976 326.121C782.609 326.677 780.658 328.763 779 330.516" stroke="#4D00FF" stroke-width="2" stroke-linecap="round"/>
</g>
<g filter="url(#filter14_dd_129_3)">
<ellipse cx="2.09693" cy="6.8795" rx="2.09693" ry="6.8795" transform="matrix(0.793893 0.608058 -0.565277 0.824901 1004.56 314)" fill="#CFBEF7"/>
<ellipse cx="2.09693" cy="6.8795" rx="2.09693" ry="6.8795" transform="matrix(0.793893 -0.608058 -0.565277 -0.824901 1004.57 338.014)" fill="#CFBEF7"/>
</g>
<g filter="url(#filter15_d_129_3)">
<ellipse cx="2.09693" cy="6.8795" rx="2.09693" ry="6.8795" transform="matrix(-0.793893 0.608058 0.565277 0.824901 786.375 314)" fill="#CFBEF7"/>
<ellipse cx="2.09693" cy="6.8795" rx="2.09693" ry="6.8795" transform="matrix(-0.793893 -0.608058 0.565277 -0.824901 786.401 337.991)" fill="#CFBEF7"/>
</g>
<g filter="url(#filter16_d_129_3)">
<path d="M783.949 216.294H1005.07" stroke="#AFB4B9" stroke-width="2"/>
<ellipse cx="1005.03" cy="216.316" rx="1.59083" ry="2.52276" fill="#AFB4B9"/>
<ellipse cx="785.671" cy="216.316" rx="1.59083" ry="2.52276" fill="#AFB4B9"/>
<path d="M1005.99 215.997L1010.42 209.941" stroke="#AFB4B9" stroke-width="2" stroke-linecap="round"/>
<path d="M1006 216.567C1008.35 216.567 1010.14 217.922 1012.01 219.292" stroke="#AFB4B9" stroke-width="2" stroke-linecap="round"/>
<path d="M785.496 216.138C784.043 215.231 782.84 213.744 781.598 212.567" stroke="#AFB4B9" stroke-width="2" stroke-linecap="round"/>
<path d="M784.976 216.688C782.609 217.244 780.658 219.33 779 221.083" stroke="#AFB4B9" stroke-width="2" stroke-linecap="round"/>
</g>
<g filter="url(#filter17_d_129_3)">
<ellipse cx="2.09693" cy="6.8795" rx="2.09693" ry="6.8795" transform="matrix(0.793893 0.608058 -0.565277 0.824901 1003.24 204.45)" fill="#210268"/>
<ellipse cx="2.09693" cy="6.8795" rx="2.09693" ry="6.8795" transform="matrix(0.793893 -0.608058 -0.565277 -0.824901 1003.22 228.281)" fill="#210268"/>
</g>
<g filter="url(#filter18_d_129_3)">
<ellipse cx="2.09693" cy="6.8795" rx="2.09693" ry="6.8795" transform="matrix(-0.793893 0.608058 0.565277 0.824901 787.499 204)" fill="#210268"/>
<ellipse cx="2.09693" cy="6.8795" rx="2.09693" ry="6.8795" transform="matrix(-0.793893 -0.608058 0.565277 -0.824901 787.525 227.991)" fill="#210268"/>
</g>
<defs>
<filter id="filter0_d_129_3" x="0" y="0" width="1059.9" height="416.29" filterUnits="userSpaceOnUse" color-interpolation-filters="sRGB">
<feFlood flood-opacity="0" result="BackgroundImageFix"/>
<feColorMatrix in="SourceAlpha" type="matrix" values="0 0 0 0 0 0 0 0 0 0 0 0 0 0 0 0 0 0 127 0" result="hardAlpha"/>
<feOffset dy="4"/>
<feGaussianBlur stdDeviation="2"/>
<feComposite in2="hardAlpha" operator="out"/>
<feColorMatrix type="matrix" values="0 0 0 0 0 0 0 0 0 0 0 0 0 0 0 0 0 0 0.25 0"/>
<feBlend mode="normal" in2="BackgroundImageFix" result="effect1_dropShadow_129_3"/>
<feBlend mode="normal" in="SourceGraphic" in2="effect1_dropShadow_129_3" result="shape"/>
</filter>
<filter id="filter1_d_129_3" x="491.757" y="147.434" width="167.501" height="47.5663" filterUnits="userSpaceOnUse" color-interpolation-filters="sRGB">
<feFlood flood-opacity="0" result="BackgroundImageFix"/>
<feColorMatrix in="SourceAlpha" type="matrix" values="0 0 0 0 0 0 0 0 0 0 0 0 0 0 0 0 0 0 127 0" result="hardAlpha"/>
<feOffset dy="4"/>
<feGaussianBlur stdDeviation="2"/>
<feComposite in2="hardAlpha" operator="out"/>
<feColorMatrix type="matrix" values="0 0 0 0 0 0 0 0 0 0 0 0 0 0 0 0 0 0 0.25 0"/>
<feBlend mode="normal" in2="BackgroundImageFix" result="effect1_dropShadow_129_3"/>
<feBlend mode="normal" in="SourceGraphic" in2="effect1_dropShadow_129_3" result="shape"/>
</filter>
<filter id="filter2_d_129_3" x="562.469" y="176.543" width="16.689" height="23.5409" filterUnits="userSpaceOnUse" color-interpolation-filters="sRGB">
<feFlood flood-opacity="0" result="BackgroundImageFix"/>
<feColorMatrix in="SourceAlpha" type="matrix" values="0 0 0 0 0 0 0 0 0 0 0 0 0 0 0 0 0 0 127 0" result="hardAlpha"/>
<feOffset dy="4"/>
<feGaussianBlur stdDeviation="2"/>
<feComposite in2="hardAlpha" operator="out"/>
<feColorMatrix type="matrix" values="0 0 0 0 0 0 0 0 0 0 0 0 0 0 0 0 0 0 0.25 0"/>
<feBlend mode="normal" in2="BackgroundImageFix" result="effect1_dropShadow_129_3"/>
<feBlend mode="normal" in="SourceGraphic" in2="effect1_dropShadow_129_3" result="shape"/>
</filter>
<filter id="filter3_d_129_3" x="571.076" y="176.543" width="16.689" height="23.5409" filterUnits="userSpaceOnUse" color-interpolation-filters="sRGB">
<feFlood flood-opacity="0" result="BackgroundImageFix"/>
<feColorMatrix in="SourceAlpha" type="matrix" values="0 0 0 0 0 0 0 0 0 0 0 0 0 0 0 0 0 0 127 0" result="hardAlpha"/>
<feOffset dy="4"/>
<feGaussianBlur stdDeviation="2"/>
<feComposite in2="hardAlpha" operator="out"/>
<feColorMatrix type="matrix" values="0 0 0 0 0 0 0 0 0 0 0 0 0 0 0 0 0 0 0.25 0"/>
<feBlend mode="normal" in2="BackgroundImageFix" result="effect1_dropShadow_129_3"/>
<feBlend mode="normal" in="SourceGraphic" in2="effect1_dropShadow_129_3" result="shape"/>
</filter>
<filter id="filter4_d_129_3" x="58" y="285" width="28" height="65" filterUnits="userSpaceOnUse" color-interpolation-filters="sRGB">
<feFlood flood-opacity="0" result="BackgroundImageFix"/>
<feColorMatrix in="SourceAlpha" type="matrix" values="0 0 0 0 0 0 0 0 0 0 0 0 0 0 0 0 0 0 127 0" result="hardAlpha"/>
<feOffset dy="4"/>
<feGaussianBlur stdDeviation="2"/>
<feComposite in2="hardAlpha" operator="out"/>
<feColorMatrix type="matrix" values="0 0 0 0 0 0 0 0 0 0 0 0 0 0 0 0 0 0 0.25 0"/>
<feBlend mode="normal" in2="BackgroundImageFix" result="effect1_dropShadow_129_3"/>
<feBlend mode="normal" in="SourceGraphic" in2="effect1_dropShadow_129_3" result="shape"/>
</filter>
<filter id="filter5_d_129_3" x="80" y="285" width="28" height="65" filterUnits="userSpaceOnUse" color-interpolation-filters="sRGB">
<feFlood flood-opacity="0" result="BackgroundImageFix"/>
<feColorMatrix in="SourceAlpha" type="matrix" values="0 0 0 0 0 0 0 0 0 0 0 0 0 0 0 0 0 0 127 0" result="hardAlpha"/>
<feOffset dy="4"/>
<feGaussianBlur stdDeviation="2"/>
<feComposite in2="hardAlpha" operator="out"/>
<feColorMatrix type="matrix" values="0 0 0 0 0 0 0 0 0 0 0 0 0 0 0 0 0 0 0.25 0"/>
<feBlend mode="normal" in2="BackgroundImageFix" result="effect1_dropShadow_129_3"/>
<feBlend mode="normal" in="SourceGraphic" in2="effect1_dropShadow_129_3" result="shape"/>
</filter>
<filter id="filter6_d_129_3" x="102" y="285" width="28" height="65" filterUnits="userSpaceOnUse" color-interpolation-filters="sRGB">
<feFlood flood-opacity="0" result="BackgroundImageFix"/>
<feColorMatrix in="SourceAlpha" type="matrix" values="0 0 0 0 0 0 0 0 0 0 0 0 0 0 0 0 0 0 127 0" result="hardAlpha"/>
<feOffset dy="4"/>
<feGaussianBlur stdDeviation="2"/>
<feComposite in2="hardAlpha" operator="out"/>
<feColorMatrix type="matrix" values="0 0 0 0 0 0 0 0 0 0 0 0 0 0 0 0 0 0 0.25 0"/>
<feBlend mode="normal" in2="BackgroundImageFix" result="effect1_dropShadow_129_3"/>
<feBlend mode="normal" in="SourceGraphic" in2="effect1_dropShadow_129_3" result="shape"/>
</filter>
<filter id="filter7_d_129_3" x="124" y="285" width="28" height="65" filterUnits="userSpaceOnUse" color-interpolation-filters="sRGB">
<feFlood flood-opacity="0" result="BackgroundImageFix"/>
<feColorMatrix in="SourceAlpha" type="matrix" values="0 0 0 0 0 0 0 0 0 0 0 0 0 0 0 0 0 0 127 0" result="hardAlpha"/>
<feOffset dy="4"/>
<feGaussianBlur stdDeviation="2"/>
<feComposite in2="hardAlpha" operator="out"/>
<feColorMatrix type="matrix" values="0 0 0 0 0 0 0 0 0 0 0 0 0 0 0 0 0 0 0.25 0"/>
<feBlend mode="normal" in2="BackgroundImageFix" result="effect1_dropShadow_129_3"/>
<feBlend mode="normal" in="SourceGraphic" in2="effect1_dropShadow_129_3" result="shape"/>
</filter>
<filter id="filter8_d_129_3" x="146" y="285" width="28" height="65" filterUnits="userSpaceOnUse" color-interpolation-filters="sRGB">
<feFlood flood-opacity="0" result="BackgroundImageFix"/>
<feColorMatrix in="SourceAlpha" type="matrix" values="0 0 0 0 0 0 0 0 0 0 0 0 0 0 0 0 0 0 127 0" result="hardAlpha"/>
<feOffset dy="4"/>
<feGaussianBlur stdDeviation="2"/>
<feComposite in2="hardAlpha" operator="out"/>
<feColorMatrix type="matrix" values="0 0 0 0 0 0 0 0 0 0 0 0 0 0 0 0 0 0 0.25 0"/>
<feBlend mode="normal" in2="BackgroundImageFix" result="effect1_dropShadow_129_3"/>
<feBlend mode="normal" in="SourceGraphic" in2="effect1_dropShadow_129_3" result="shape"/>
</filter>
<filter id="filter9_d_129_3" x="168" y="285" width="28" height="65" filterUnits="userSpaceOnUse" color-interpolation-filters="sRGB">
<feFlood flood-opacity="0" result="BackgroundImageFix"/>
<feColorMatrix in="SourceAlpha" type="matrix" values="0 0 0 0 0 0 0 0 0 0 0 0 0 0 0 0 0 0 127 0" result="hardAlpha"/>
<feOffset dy="4"/>
<feGaussianBlur stdDeviation="2"/>
<feComposite in2="hardAlpha" operator="out"/>
<feColorMatrix type="matrix" values="0 0 0 0 0 0 0 0 0 0 0 0 0 0 0 0 0 0 0.25 0"/>
<feBlend mode="normal" in2="BackgroundImageFix" result="effect1_dropShadow_129_3"/>
<feBlend mode="normal" in="SourceGraphic" in2="effect1_dropShadow_129_3" result="shape"/>
</filter>
<filter id="filter10_d_129_3" x="190" y="285" width="28" height="65" filterUnits="userSpaceOnUse" color-interpolation-filters="sRGB">
<feFlood flood-opacity="0" result="BackgroundImageFix"/>
<feColorMatrix in="SourceAlpha" type="matrix" values="0 0 0 0 0 0 0 0 0 0 0 0 0 0 0 0 0 0 127 0" result="hardAlpha"/>
<feOffset dy="4"/>
<feGaussianBlur stdDeviation="2"/>
<feComposite in2="hardAlpha" operator="out"/>
<feColorMatrix type="matrix" values="0 0 0 0 0 0 0 0 0 0 0 0 0 0 0 0 0 0 0.25 0"/>
<feBlend mode="normal" in2="BackgroundImageFix" result="effect1_dropShadow_129_3"/>
<feBlend mode="normal" in="SourceGraphic" in2="effect1_dropShadow_129_3" result="shape"/>
</filter>
<filter id="filter11_d_129_3" x="212" y="285" width="28" height="65" filterUnits="userSpaceOnUse" color-interpolation-filters="sRGB">
<feFlood flood-opacity="0" result="BackgroundImageFix"/>
<feColorMatrix in="SourceAlpha" type="matrix" values="0 0 0 0 0 0 0 0 0 0 0 0 0 0 0 0 0 0 127 0" result="hardAlpha"/>
<feOffset dy="4"/>
<feGaussianBlur stdDeviation="2"/>
<feComposite in2="hardAlpha" operator="out"/>
<feColorMatrix type="matrix" values="0 0 0 0 0 0 0 0 0 0 0 0 0 0 0 0 0 0 0.25 0"/>
<feBlend mode="normal" in2="BackgroundImageFix" result="effect1_dropShadow_129_3"/>
<feBlend mode="normal" in="SourceGraphic" in2="effect1_dropShadow_129_3" result="shape"/>
</filter>
<filter id="filter12_d_129_3" x="774" y="92.9999" width="243" height="20.9424" filterUnits="userSpaceOnUse" color-interpolation-filters="sRGB">
<feFlood flood-opacity="0" result="BackgroundImageFix"/>
<feColorMatrix in="SourceAlpha" type="matrix" values="0 0 0 0 0 0 0 0 0 0 0 0 0 0 0 0 0 0 127 0" result="hardAlpha"/>
<feOffset dy="4"/>
<feGaussianBlur stdDeviation="2"/>
<feComposite in2="hardAlpha" operator="out"/>
<feColorMatrix type="matrix" values="0 0 0 0 0 0 0 0 0 0 0 0 0 0 0 0 0 0 0.25 0"/>
<feBlend mode="normal" in2="BackgroundImageFix" result="effect1_dropShadow_129_3"/>
<feBlend mode="normal" in="SourceGraphic" in2="effect1_dropShadow_129_3" result="shape"/>
</filter>
<filter id="filter13_d_129_3" x="774" y="319" width="242.613" height="20.5161" filterUnits="userSpaceOnUse" color-interpolation-filters="sRGB">
<feFlood flood-opacity="0" result="BackgroundImageFix"/>
<feColorMatrix in="SourceAlpha" type="matrix" values="0 0 0 0 0 0 0 0 0 0 0 0 0 0 0 0 0 0 127 0" result="hardAlpha"/>
<feOffset dy="4"/>
<feGaussianBlur stdDeviation="2"/>
<feComposite in2="hardAlpha" operator="out"/>
<feColorMatrix type="matrix" values="0 0 0 0 0 0 0 0 0 0 0 0 0 0 0 0 0 0 0.25 0"/>
<feBlend mode="normal" in2="BackgroundImageFix" result="effect1_dropShadow_129_3"/>
<feBlend mode="normal" in="SourceGraphic" in2="effect1_dropShadow_129_3" result="shape"/>
</filter>
<filter id="filter14_dd_129_3" x="994.109" y="315.132" width="16.4688" height="29.7491" filterUnits="userSpaceOnUse" color-interpolation-filters="sRGB">
<feFlood flood-opacity="0" result="BackgroundImageFix"/>
<feColorMatrix in="SourceAlpha" type="matrix" values="0 0 0 0 0 0 0 0 0 0 0 0 0 0 0 0 0 0 127 0" result="hardAlpha"/>
<feOffset dy="4"/>
<feGaussianBlur stdDeviation="2"/>
<feComposite in2="hardAlpha" operator="out"/>
<feColorMatrix type="matrix" values="0 0 0 0 0 0 0 0 0 0 0 0 0 0 0 0 0 0 0.25 0"/>
<feBlend mode="normal" in2="BackgroundImageFix" result="effect1_dropShadow_129_3"/>
<feColorMatrix in="SourceAlpha" type="matrix" values="0 0 0 0 0 0 0 0 0 0 0 0 0 0 0 0 0 0 127 0" result="hardAlpha"/>
<feOffset dy="4"/>
<feGaussianBlur stdDeviation="2"/>
<feComposite in2="hardAlpha" operator="out"/>
<feColorMatrix type="matrix" values="0 0 0 0 0 0 0 0 0 0 0 0 0 0 0 0 0 0 0.25 0"/>
<feBlend mode="normal" in2="effect1_dropShadow_129_3" result="effect2_dropShadow_129_3"/>
<feBlend mode="normal" in="SourceGraphic" in2="effect2_dropShadow_129_3" result="shape"/>
</filter>
<filter id="filter15_d_129_3" x="780.368" y="315.132" width="16.4893" height="29.7263" filterUnits="userSpaceOnUse" color-interpolation-filters="sRGB">
<feFlood flood-opacity="0" result="BackgroundImageFix"/>
<feColorMatrix in="SourceAlpha" type="matrix" values="0 0 0 0 0 0 0 0 0 0 0 0 0 0 0 0 0 0 127 0" result="hardAlpha"/>
<feOffset dy="4"/>
<feGaussianBlur stdDeviation="2"/>
<feComposite in2="hardAlpha" operator="out"/>
<feColorMatrix type="matrix" values="0 0 0 0 0 0 0 0 0 0 0 0 0 0 0 0 0 0 0.25 0"/>
<feBlend mode="normal" in2="BackgroundImageFix" result="effect1_dropShadow_129_3"/>
<feBlend mode="normal" in="SourceGraphic" in2="effect1_dropShadow_129_3" result="shape"/>
</filter>
<filter id="filter16_d_129_3" x="774" y="208.941" width="243.015" height="21.1422" filterUnits="userSpaceOnUse" color-interpolation-filters="sRGB">
<feFlood flood-opacity="0" result="BackgroundImageFix"/>
<feColorMatrix in="SourceAlpha" type="matrix" values="0 0 0 0 0 0 0 0 0 0 0 0 0 0 0 0 0 0 127 0" result="hardAlpha"/>
<feOffset dy="4"/>
<feGaussianBlur stdDeviation="2"/>
<feComposite in2="hardAlpha" operator="out"/>
<feColorMatrix type="matrix" values="0 0 0 0 0 0 0 0 0 0 0 0 0 0 0 0 0 0 0.25 0"/>
<feBlend mode="normal" in2="BackgroundImageFix" result="effect1_dropShadow_129_3"/>
<feBlend mode="normal" in="SourceGraphic" in2="effect1_dropShadow_129_3" result="shape"/>
</filter>
<filter id="filter17_d_129_3" x="992.76" y="205.582" width="16.4893" height="29.5673" filterUnits="userSpaceOnUse" color-interpolation-filters="sRGB">
<feFlood flood-opacity="0" result="BackgroundImageFix"/>
<feColorMatrix in="SourceAlpha" type="matrix" values="0 0 0 0 0 0 0 0 0 0 0 0 0 0 0 0 0 0 127 0" result="hardAlpha"/>
<feOffset dy="4"/>
<feGaussianBlur stdDeviation="2"/>
<feComposite in2="hardAlpha" operator="out"/>
<feColorMatrix type="matrix" values="0 0 0 0 0 0 0 0 0 0 0 0 0 0 0 0 0 0 0.25 0"/>
<feBlend mode="normal" in2="BackgroundImageFix" result="effect1_dropShadow_129_3"/>
<feBlend mode="normal" in="SourceGraphic" in2="effect1_dropShadow_129_3" result="shape"/>
</filter>
<filter id="filter18_d_129_3" x="781.492" y="205.132" width="16.4888" height="29.7263" filterUnits="userSpaceOnUse" color-interpolation-filters="sRGB">
<feFlood flood-opacity="0" result="BackgroundImageFix"/>
<feColorMatrix in="SourceAlpha" type="matrix" values="0 0 0 0 0 0 0 0 0 0 0 0 0 0 0 0 0 0 127 0" result="hardAlpha"/>
<feOffset dy="4"/>
<feGaussianBlur stdDeviation="2"/>
<feComposite in2="hardAlpha" operator="out"/>
<feColorMatrix type="matrix" values="0 0 0 0 0 0 0 0 0 0 0 0 0 0 0 0 0 0 0.25 0"/>
<feBlend mode="normal" in2="BackgroundImageFix" result="effect1_dropShadow_129_3"/>
<feBlend mode="normal" in="SourceGraphic" in2="effect1_dropShadow_129_3" result="shape"/>
</filter>
</defs>
</svg>
