<svg width="513" height="207" viewBox="0 0 513 207" fill="none" xmlns="http://www.w3.org/2000/svg">
<rect width="513" height="207" fill="white"/>
<g filter="url(#filter0_d_95_247)">
<ellipse cx="46.7014" cy="67.0898" rx="35.7014" ry="35.0898" fill="#F7F5F5"/>
</g>
<ellipse cx="46.7011" cy="67.0896" rx="32.9013" ry="32.3376" fill="white"/>
<g filter="url(#filter1_d_95_247)">
<ellipse cx="129.304" cy="67.0898" rx="35.7014" ry="35.0898" fill="#F7F5F5"/>
</g>
<ellipse cx="129.304" cy="67.0896" rx="32.9013" ry="32.3376" fill="white"/>
<g filter="url(#filter2_d_95_247)">
<ellipse cx="214.708" cy="67.0898" rx="35.7014" ry="35.0898" fill="#F7F5F5"/>
</g>
<ellipse cx="214.707" cy="67.0896" rx="32.9013" ry="32.3376" fill="white"/>
<g filter="url(#filter3_d_95_247)">
<ellipse cx="297.311" cy="67.0898" rx="35.7014" ry="35.0898" fill="#F7F5F5"/>
</g>
<ellipse cx="297.31" cy="67.0896" rx="32.9013" ry="32.3376" fill="white"/>
<g filter="url(#filter4_d_95_247)">
<ellipse cx="384.114" cy="67.0898" rx="35.7014" ry="35.0898" fill="#F7F5F5"/>
</g>
<ellipse cx="384.114" cy="67.0896" rx="32.9013" ry="32.3376" fill="white"/>
<g filter="url(#filter5_d_95_247)">
<ellipse cx="88.7014" cy="144.09" rx="35.7014" ry="35.0898" fill="#F7F5F5"/>
</g>
<ellipse cx="88.7011" cy="144.09" rx="32.9013" ry="32.3376" fill="white"/>
<g filter="url(#filter6_d_95_247)">
<ellipse cx="171.304" cy="144.09" rx="35.7014" ry="35.0898" fill="#F7F5F5"/>
</g>
<ellipse cx="171.304" cy="144.09" rx="32.9013" ry="32.3376" fill="white"/>
<g filter="url(#filter7_d_95_247)">
<ellipse cx="256.708" cy="144.09" rx="35.7014" ry="35.0898" fill="#F7F5F5"/>
</g>
<ellipse cx="256.707" cy="144.09" rx="32.9013" ry="32.3376" fill="white"/>
<g filter="url(#filter8_d_95_247)">
<ellipse cx="339.311" cy="144.09" rx="35.7014" ry="35.0898" fill="#F7F5F5"/>
</g>
<ellipse cx="339.31" cy="144.09" rx="32.9013" ry="32.3376" fill="white"/>
<g filter="url(#filter9_d_95_247)">
<ellipse cx="426.114" cy="144.09" rx="35.7014" ry="35.0898" fill="#F7F5F5"/>
</g>
<ellipse cx="426.114" cy="144.09" rx="32.9013" ry="32.3376" fill="white"/>
<g filter="url(#filter10_d_95_247)">
<ellipse cx="466.717" cy="67.0898" rx="35.7014" ry="35.0898" fill="#F7F5F5"/>
</g>
<ellipse cx="466.717" cy="67.0896" rx="32.9013" ry="32.3376" fill="white"/>
<path d="M52.4112 90H40.2012V86.7H44.8212V54.8H34.5912V59.97H31.2912V51.5H61.7062V59.97H58.4062V54.8H48.2862V86.7H52.4112V90Z" fill="black"/>
<path d="M119.87 86H108.43V82.7H112.83C115.434 76.4667 118.037 70.3067 120.64 64.22C123.28 58.1333 125.902 51.9733 128.505 45.74C131.109 51.9733 133.712 58.1333 136.315 64.22C138.955 70.3067 141.577 76.4667 144.18 82.7H148.58V86H137.14V82.7H140.66C139.744 80.61 138.845 78.52 137.965 76.43C137.122 74.34 136.26 72.25 135.38 70.16H121.63C120.567 72.69 119.669 74.78 118.935 76.43C118.239 78.08 117.359 80.17 116.295 82.7H119.87V86ZM127.9 55.145C127.094 57.0883 126.269 59.0683 125.425 61.085C124.619 63.065 123.83 64.99 123.06 66.86H133.95L129 55.145L128.45 53.44C128.34 53.88 128.23 54.2283 128.12 54.485C128.047 54.7417 127.974 54.9617 127.9 55.145Z" fill="black"/>
<path d="M220.782 89H208.572V85.7H212.422V74.26C210.368 70.85 208.333 67.44 206.317 64.03C204.3 60.62 202.283 57.21 200.267 53.8H195.317V50.5H207.527V53.8H204.447C206.06 56.44 207.637 59.0617 209.177 61.665C210.753 64.2683 212.33 66.89 213.907 69.53L214.512 71.125H214.567L215.227 69.53L224.522 53.8H221.497V50.5H233.707V53.8H228.757C226.74 57.2467 224.723 60.675 222.707 64.085C220.69 67.495 218.673 70.905 216.657 74.315V85.7H220.782V89Z" fill="black"/>
<path d="M312.241 85H284.741V81.7H288.151V49.8H284.741V46.5H296.181V49.8H291.616V81.7H308.886V76.53H312.241V85Z" fill="black"/>
<path d="M397.356 80.665C395.56 82.4617 393.47 83.8733 391.086 84.9C388.703 85.9267 386.155 86.44 383.441 86.44C380.728 86.44 378.18 85.9267 375.796 84.9C373.413 83.8733 371.341 82.4617 369.581 80.665C367.785 78.905 366.373 76.8333 365.346 74.45C364.32 72.0667 363.806 69.5183 363.806 66.805C363.806 64.0917 364.32 61.5433 365.346 59.16C366.373 56.7767 367.785 54.6867 369.581 52.89C371.341 51.0933 373.413 49.6817 375.796 48.655C378.18 47.5917 380.728 47.06 383.441 47.06C386.155 47.06 388.703 47.5917 391.086 48.655C393.47 49.6817 395.56 51.0933 397.356 52.89C399.153 54.6867 400.565 56.7767 401.591 59.16C402.655 61.5433 403.186 64.0917 403.186 66.805C403.186 69.5183 402.655 72.0667 401.591 74.45C400.565 76.8333 399.153 78.905 397.356 80.665ZM372.056 78.3C373.486 79.8033 375.173 80.995 377.116 81.875C379.096 82.7183 381.205 83.14 383.441 83.14C385.678 83.14 387.786 82.7183 389.766 81.875C391.746 80.995 393.47 79.8033 394.936 78.3C396.403 76.87 397.558 75.165 398.401 73.185C399.281 71.1683 399.721 69.0417 399.721 66.805C399.721 64.5683 399.281 62.46 398.401 60.48C397.558 58.4633 396.421 56.7217 394.991 55.255C393.488 53.7517 391.746 52.5783 389.766 51.735C387.823 50.855 385.733 50.415 383.496 50.415C381.26 50.415 379.151 50.855 377.171 51.735C375.191 52.5783 373.486 53.7517 372.056 55.255C370.553 56.7217 369.38 58.4633 368.536 60.48C367.693 62.46 367.271 64.5683 367.271 66.805C367.271 69.0783 367.693 71.205 368.536 73.185C369.38 75.165 370.553 76.87 372.056 78.3Z" fill="black"/>
<path d="M464.844 85H452.634V81.7H455.549V49.8H452.634V46.5H464.184C465.394 46.5 466.714 46.7017 468.144 47.105C469.611 47.4717 470.967 48.0583 472.214 48.865C473.497 49.7083 474.561 50.7717 475.404 52.055C476.247 53.3383 476.669 54.915 476.669 56.785C476.669 59.425 475.972 61.6617 474.579 63.495C473.186 65.2917 471.151 66.465 468.474 67.015L475.349 81.7H480.354V85H473.204L464.844 67.29C464.367 67.29 463.964 67.3083 463.634 67.345C463.304 67.3817 462.901 67.4 462.424 67.4H459.014V81.7H464.844V85ZM459.014 49.8V64.045H464.239C465.962 64.045 467.392 63.8067 468.529 63.33C469.702 62.8533 470.637 62.2667 471.334 61.57C471.994 60.8733 472.471 60.1033 472.764 59.26C473.057 58.38 473.204 57.555 473.204 56.785C473.204 55.8317 472.966 54.9517 472.489 54.145C472.049 53.3017 471.426 52.55 470.619 51.89C469.812 51.2667 468.859 50.7717 467.759 50.405C466.696 50.0017 465.541 49.8 464.294 49.8H459.014Z" fill="black"/>
<path d="M97.0927 163.58C96.0293 164.497 94.801 165.212 93.4077 165.725C92.0143 166.202 90.5293 166.44 88.9527 166.44C87.5593 166.44 86.221 166.293 84.9377 166C83.6543 165.67 82.4993 165.267 81.4727 164.79C80.446 164.313 79.5293 163.782 78.7227 163.195C77.9527 162.572 77.3477 161.948 76.9077 161.325V155.22H80.2077V160.115C81.1977 160.958 82.3893 161.673 83.7827 162.26C85.176 162.847 86.7893 163.14 88.6227 163.14C89.7227 163.14 90.7677 162.975 91.7577 162.645C92.7843 162.315 93.6827 161.838 94.4527 161.215C95.2227 160.592 95.8277 159.822 96.2677 158.905C96.7443 157.988 96.9827 156.943 96.9827 155.77C96.9827 154.817 96.8727 153.937 96.6527 153.13C96.4327 152.323 96.0843 151.645 95.6077 151.095C94.9843 150.362 94.2693 149.775 93.4627 149.335C92.6927 148.895 91.831 148.473 90.8777 148.07C89.5577 147.593 88.1643 147.153 86.6977 146.75C85.2677 146.347 83.9477 145.797 82.7377 145.1C81.491 144.44 80.446 143.542 79.6027 142.405C78.796 141.232 78.3743 139.618 78.3377 137.565C78.301 136.355 78.4477 135.145 78.7777 133.935C79.1443 132.725 79.7493 131.625 80.5927 130.635C81.3993 129.645 82.4627 128.838 83.7827 128.215C85.1393 127.592 86.7893 127.28 88.7327 127.28C89.356 127.28 90.0527 127.317 90.8227 127.39C91.5927 127.463 92.381 127.592 93.1877 127.775C93.9577 127.995 94.7643 128.307 95.6077 128.71C96.451 129.113 97.276 129.645 98.0827 130.305V135.97H94.7827V131.955C94.086 131.588 93.2243 131.277 92.1977 131.02C91.171 130.727 90.016 130.58 88.7327 130.58C87.5227 130.58 86.4777 130.782 85.5977 131.185C84.7177 131.552 84.0027 132.065 83.4527 132.725C82.9027 133.385 82.481 134.118 82.1877 134.925C81.931 135.732 81.8027 136.575 81.8027 137.455C81.8027 138.812 82.1143 139.893 82.7377 140.7C83.3977 141.47 84.2593 142.112 85.3227 142.625C86.6793 143.285 88.256 143.872 90.0527 144.385C91.8493 144.862 93.5727 145.503 95.2227 146.31C96.7627 147.043 98.0093 148.162 98.9627 149.665C99.9527 151.132 100.448 153.148 100.448 155.715C100.484 157.365 100.191 158.85 99.5677 160.17C98.981 161.49 98.156 162.627 97.0927 163.58Z" fill="black"/>
<path d="M165.988 156.375C165.108 158.282 164.265 160.207 163.458 162.15C162.652 164.057 161.863 165.927 161.093 167.76C158.49 161.563 155.868 155.422 153.228 149.335C150.625 143.212 148.022 137.033 145.418 130.8H140.688V127.5H152.898V130.8H148.883C150.863 135.42 152.807 140.022 154.713 144.605C156.62 149.188 158.582 153.772 160.598 158.355L161.093 160.06C161.533 158.777 162.083 157.31 162.743 155.66C163.44 153.973 164.118 152.36 164.778 150.82C165.585 148.913 166.392 147.025 167.198 145.155C168.005 143.248 168.793 141.342 169.563 139.435C168.977 138.005 168.372 136.575 167.748 135.145C167.125 133.715 166.52 132.267 165.933 130.8H161.038V127.5H173.303V130.8H169.398C171.342 135.42 173.267 140.022 175.173 144.605C177.117 149.188 179.078 153.772 181.058 158.355L181.553 160.06L182.048 158.355C184.028 153.772 185.972 149.207 187.878 144.66C189.822 140.077 191.765 135.457 193.708 130.8H190.078V127.5H202.288V130.8H197.228C194.625 137.033 192.003 143.212 189.363 149.335C186.76 155.422 184.157 161.563 181.553 167.76L171.818 144.825L171.323 143.12C170.627 145.027 169.802 147.172 168.848 149.555C167.895 151.902 166.942 154.175 165.988 156.375Z" fill="black"/>
<path d="M262.605 166H250.395V162.7H254.685V130.8H250.395V127.5H262.605V130.8H258.15V162.7H262.605V166Z" fill="black"/>
<path d="M339.327 166H327.117V162.7H330.637V130.8H327.117V127.5H353.902V135.97H350.602V130.8H334.102V144.935H351.757V148.235H334.102V162.7H339.327V166Z" fill="black"/>
<path d="M431.411 166H419.201V162.7H423.821V130.8H413.591V135.97H410.291V127.5H440.706V135.97H437.406V130.8H427.286V162.7H431.411V166Z" fill="black"/>
<defs>
<filter id="filter0_d_95_247" x="7" y="32" width="79.4028" height="78.1794" filterUnits="userSpaceOnUse" color-interpolation-filters="sRGB">
<feFlood flood-opacity="0" result="BackgroundImageFix"/>
<feColorMatrix in="SourceAlpha" type="matrix" values="0 0 0 0 0 0 0 0 0 0 0 0 0 0 0 0 0 0 127 0" result="hardAlpha"/>
<feOffset dy="4"/>
<feGaussianBlur stdDeviation="2"/>
<feComposite in2="hardAlpha" operator="out"/>
<feColorMatrix type="matrix" values="0 0 0 0 0 0 0 0 0 0 0 0 0 0 0 0 0 0 0.25 0"/>
<feBlend mode="normal" in2="BackgroundImageFix" result="effect1_dropShadow_95_247"/>
<feBlend mode="normal" in="SourceGraphic" in2="effect1_dropShadow_95_247" result="shape"/>
</filter>
<filter id="filter1_d_95_247" x="89.603" y="32" width="79.4028" height="78.1794" filterUnits="userSpaceOnUse" color-interpolation-filters="sRGB">
<feFlood flood-opacity="0" result="BackgroundImageFix"/>
<feColorMatrix in="SourceAlpha" type="matrix" values="0 0 0 0 0 0 0 0 0 0 0 0 0 0 0 0 0 0 127 0" result="hardAlpha"/>
<feOffset dy="4"/>
<feGaussianBlur stdDeviation="2"/>
<feComposite in2="hardAlpha" operator="out"/>
<feColorMatrix type="matrix" values="0 0 0 0 0 0 0 0 0 0 0 0 0 0 0 0 0 0 0.25 0"/>
<feBlend mode="normal" in2="BackgroundImageFix" result="effect1_dropShadow_95_247"/>
<feBlend mode="normal" in="SourceGraphic" in2="effect1_dropShadow_95_247" result="shape"/>
</filter>
<filter id="filter2_d_95_247" x="175.006" y="32" width="79.4028" height="78.1794" filterUnits="userSpaceOnUse" color-interpolation-filters="sRGB">
<feFlood flood-opacity="0" result="BackgroundImageFix"/>
<feColorMatrix in="SourceAlpha" type="matrix" values="0 0 0 0 0 0 0 0 0 0 0 0 0 0 0 0 0 0 127 0" result="hardAlpha"/>
<feOffset dy="4"/>
<feGaussianBlur stdDeviation="2"/>
<feComposite in2="hardAlpha" operator="out"/>
<feColorMatrix type="matrix" values="0 0 0 0 0 0 0 0 0 0 0 0 0 0 0 0 0 0 0.25 0"/>
<feBlend mode="normal" in2="BackgroundImageFix" result="effect1_dropShadow_95_247"/>
<feBlend mode="normal" in="SourceGraphic" in2="effect1_dropShadow_95_247" result="shape"/>
</filter>
<filter id="filter3_d_95_247" x="257.609" y="32" width="79.4028" height="78.1794" filterUnits="userSpaceOnUse" color-interpolation-filters="sRGB">
<feFlood flood-opacity="0" result="BackgroundImageFix"/>
<feColorMatrix in="SourceAlpha" type="matrix" values="0 0 0 0 0 0 0 0 0 0 0 0 0 0 0 0 0 0 127 0" result="hardAlpha"/>
<feOffset dy="4"/>
<feGaussianBlur stdDeviation="2"/>
<feComposite in2="hardAlpha" operator="out"/>
<feColorMatrix type="matrix" values="0 0 0 0 0 0 0 0 0 0 0 0 0 0 0 0 0 0 0.25 0"/>
<feBlend mode="normal" in2="BackgroundImageFix" result="effect1_dropShadow_95_247"/>
<feBlend mode="normal" in="SourceGraphic" in2="effect1_dropShadow_95_247" result="shape"/>
</filter>
<filter id="filter4_d_95_247" x="344.413" y="32" width="79.4028" height="78.1794" filterUnits="userSpaceOnUse" color-interpolation-filters="sRGB">
<feFlood flood-opacity="0" result="BackgroundImageFix"/>
<feColorMatrix in="SourceAlpha" type="matrix" values="0 0 0 0 0 0 0 0 0 0 0 0 0 0 0 0 0 0 127 0" result="hardAlpha"/>
<feOffset dy="4"/>
<feGaussianBlur stdDeviation="2"/>
<feComposite in2="hardAlpha" operator="out"/>
<feColorMatrix type="matrix" values="0 0 0 0 0 0 0 0 0 0 0 0 0 0 0 0 0 0 0.25 0"/>
<feBlend mode="normal" in2="BackgroundImageFix" result="effect1_dropShadow_95_247"/>
<feBlend mode="normal" in="SourceGraphic" in2="effect1_dropShadow_95_247" result="shape"/>
</filter>
<filter id="filter5_d_95_247" x="49" y="109" width="79.4028" height="78.1794" filterUnits="userSpaceOnUse" color-interpolation-filters="sRGB">
<feFlood flood-opacity="0" result="BackgroundImageFix"/>
<feColorMatrix in="SourceAlpha" type="matrix" values="0 0 0 0 0 0 0 0 0 0 0 0 0 0 0 0 0 0 127 0" result="hardAlpha"/>
<feOffset dy="4"/>
<feGaussianBlur stdDeviation="2"/>
<feComposite in2="hardAlpha" operator="out"/>
<feColorMatrix type="matrix" values="0 0 0 0 0 0 0 0 0 0 0 0 0 0 0 0 0 0 0.25 0"/>
<feBlend mode="normal" in2="BackgroundImageFix" result="effect1_dropShadow_95_247"/>
<feBlend mode="normal" in="SourceGraphic" in2="effect1_dropShadow_95_247" result="shape"/>
</filter>
<filter id="filter6_d_95_247" x="131.603" y="109" width="79.4028" height="78.1794" filterUnits="userSpaceOnUse" color-interpolation-filters="sRGB">
<feFlood flood-opacity="0" result="BackgroundImageFix"/>
<feColorMatrix in="SourceAlpha" type="matrix" values="0 0 0 0 0 0 0 0 0 0 0 0 0 0 0 0 0 0 127 0" result="hardAlpha"/>
<feOffset dy="4"/>
<feGaussianBlur stdDeviation="2"/>
<feComposite in2="hardAlpha" operator="out"/>
<feColorMatrix type="matrix" values="0 0 0 0 0 0 0 0 0 0 0 0 0 0 0 0 0 0 0.25 0"/>
<feBlend mode="normal" in2="BackgroundImageFix" result="effect1_dropShadow_95_247"/>
<feBlend mode="normal" in="SourceGraphic" in2="effect1_dropShadow_95_247" result="shape"/>
</filter>
<filter id="filter7_d_95_247" x="217.006" y="109" width="79.4028" height="78.1794" filterUnits="userSpaceOnUse" color-interpolation-filters="sRGB">
<feFlood flood-opacity="0" result="BackgroundImageFix"/>
<feColorMatrix in="SourceAlpha" type="matrix" values="0 0 0 0 0 0 0 0 0 0 0 0 0 0 0 0 0 0 127 0" result="hardAlpha"/>
<feOffset dy="4"/>
<feGaussianBlur stdDeviation="2"/>
<feComposite in2="hardAlpha" operator="out"/>
<feColorMatrix type="matrix" values="0 0 0 0 0 0 0 0 0 0 0 0 0 0 0 0 0 0 0.25 0"/>
<feBlend mode="normal" in2="BackgroundImageFix" result="effect1_dropShadow_95_247"/>
<feBlend mode="normal" in="SourceGraphic" in2="effect1_dropShadow_95_247" result="shape"/>
</filter>
<filter id="filter8_d_95_247" x="299.609" y="109" width="79.4028" height="78.1794" filterUnits="userSpaceOnUse" color-interpolation-filters="sRGB">
<feFlood flood-opacity="0" result="BackgroundImageFix"/>
<feColorMatrix in="SourceAlpha" type="matrix" values="0 0 0 0 0 0 0 0 0 0 0 0 0 0 0 0 0 0 127 0" result="hardAlpha"/>
<feOffset dy="4"/>
<feGaussianBlur stdDeviation="2"/>
<feComposite in2="hardAlpha" operator="out"/>
<feColorMatrix type="matrix" values="0 0 0 0 0 0 0 0 0 0 0 0 0 0 0 0 0 0 0.25 0"/>
<feBlend mode="normal" in2="BackgroundImageFix" result="effect1_dropShadow_95_247"/>
<feBlend mode="normal" in="SourceGraphic" in2="effect1_dropShadow_95_247" result="shape"/>
</filter>
<filter id="filter9_d_95_247" x="386.413" y="109" width="79.4028" height="78.1794" filterUnits="userSpaceOnUse" color-interpolation-filters="sRGB">
<feFlood flood-opacity="0" result="BackgroundImageFix"/>
<feColorMatrix in="SourceAlpha" type="matrix" values="0 0 0 0 0 0 0 0 0 0 0 0 0 0 0 0 0 0 127 0" result="hardAlpha"/>
<feOffset dy="4"/>
<feGaussianBlur stdDeviation="2"/>
<feComposite in2="hardAlpha" operator="out"/>
<feColorMatrix type="matrix" values="0 0 0 0 0 0 0 0 0 0 0 0 0 0 0 0 0 0 0.25 0"/>
<feBlend mode="normal" in2="BackgroundImageFix" result="effect1_dropShadow_95_247"/>
<feBlend mode="normal" in="SourceGraphic" in2="effect1_dropShadow_95_247" result="shape"/>
</filter>
<filter id="filter10_d_95_247" x="427.016" y="32" width="79.4028" height="78.1794" filterUnits="userSpaceOnUse" color-interpolation-filters="sRGB">
<feFlood flood-opacity="0" result="BackgroundImageFix"/>
<feColorMatrix in="SourceAlpha" type="matrix" values="0 0 0 0 0 0 0 0 0 0 0 0 0 0 0 0 0 0 127 0" result="hardAlpha"/>
<feOffset dy="4"/>
<feGaussianBlur stdDeviation="2"/>
<feComposite in2="hardAlpha" operator="out"/>
<feColorMatrix type="matrix" values="0 0 0 0 0 0 0 0 0 0 0 0 0 0 0 0 0 0 0.25 0"/>
<feBlend mode="normal" in2="BackgroundImageFix" result="effect1_dropShadow_95_247"/>
<feBlend mode="normal" in="SourceGraphic" in2="effect1_dropShadow_95_247" result="shape"/>
</filter>
</defs>
</svg>
