<svg width="301" height="99" viewBox="0 0 301 99" fill="none" xmlns="http://www.w3.org/2000/svg">
<rect width="301" height="99" />
<g filter="url(#filter0_d_66_472)">
<path d="M14 13C14 13 94.2793 76.1404 154 74.9843C211.23 73.8765 287 13 287 13" stroke="#AFB4B9" stroke-width="4"/>
</g>
<g filter="url(#filter1_d_66_472)">
<path d="M135.029 73.9775C134.704 77.6682 133.573 80.9277 132.021 83.2139C130.464 85.5078 128.52 86.7746 126.567 86.6125C124.614 86.4503 122.92 84.8814 121.786 82.364C120.656 79.8551 120.112 76.4566 120.437 72.7659C120.763 69.0752 121.893 65.8157 123.445 63.5295C125.002 61.2356 126.947 59.9688 128.899 60.1309C130.852 60.293 132.547 61.862 133.68 64.3794C134.81 66.8883 135.354 70.2868 135.029 73.9775Z" fill="#969BFF" stroke="black" stroke-width="0.5"/>
<path d="M133.797 73.9761C133.542 76.8692 132.656 79.4216 131.442 81.2093C130.223 83.0049 128.711 83.9819 127.205 83.8568C125.698 83.7317 124.379 82.5196 123.492 80.5492C122.608 78.5873 122.182 75.9259 122.436 73.0328C122.691 70.1397 123.577 67.5873 124.791 65.7995C126.01 64.004 127.522 63.0269 129.029 63.152C130.535 63.2771 131.854 64.4893 132.741 66.4597C133.625 68.4216 134.052 71.083 133.797 73.9761Z" fill="#E7E8FF" stroke="#210268" stroke-width="0.5"/>
</g>
<g filter="url(#filter2_d_66_472)">
<path d="M165.437 73.7336C165.762 77.4243 166.892 80.6838 168.445 82.97C170.002 85.2639 171.946 86.5307 173.899 86.3686C175.852 86.2064 177.546 84.6375 178.68 82.1201C179.809 79.6112 180.353 76.2127 180.028 72.522C179.703 68.8313 178.573 65.5718 177.021 63.2856C175.463 60.9917 173.519 59.7249 171.566 59.887C169.614 60.0492 167.919 61.6181 166.786 64.1355C165.656 66.6444 165.112 70.0429 165.437 73.7336Z" fill="#969BFF" stroke="black" stroke-width="0.5"/>
<path d="M166.669 73.7322C166.924 76.6253 167.81 79.1777 169.023 80.9655C170.242 82.761 171.754 83.738 173.261 83.6129C174.767 83.4878 176.087 82.2757 176.974 80.3053C177.857 78.3434 178.284 75.682 178.029 72.7889C177.775 69.8958 176.889 67.3434 175.675 65.5556C174.456 63.7601 172.944 62.783 171.437 62.9081C169.931 63.0332 168.612 64.2454 167.724 66.2158C166.841 68.1777 166.414 70.8391 166.669 73.7322Z" fill="#E7E8FF" stroke="#210268" stroke-width="0.5"/>
</g>
<g filter="url(#filter3_d_66_472)">
<path d="M150.054 73.3717C150.035 77.0766 149.178 80.4185 147.821 82.8253C146.459 85.2402 144.626 86.6636 142.667 86.6636C140.707 86.6636 138.889 85.2402 137.551 82.8253C136.217 80.4185 135.394 77.0766 135.412 73.3717C135.431 69.6668 136.288 66.3249 137.645 63.9182C139.007 61.5032 140.84 60.0798 142.8 60.0798C144.759 60.0798 146.577 61.5032 147.915 63.9182C149.249 66.3249 150.072 69.6668 150.054 73.3717Z" fill="#969BFF" stroke="black" stroke-width="0.5"/>
<path d="M148.826 73.4722C148.812 76.3764 148.14 78.9934 147.078 80.8755C146.012 82.7657 144.586 83.8645 143.074 83.8645C141.563 83.8645 140.148 82.7657 139.101 80.8755C138.058 78.9934 137.412 76.3764 137.427 73.4722C137.441 70.5679 138.113 67.951 139.175 66.0689C140.241 64.1787 141.667 63.0798 143.178 63.0798C144.69 63.0798 146.105 64.1787 147.152 66.0689C148.195 67.951 148.841 70.5679 148.826 73.4722Z" fill="#E7E8FF" stroke="#210268" stroke-width="0.5"/>
</g>
<g filter="url(#filter4_d_66_472)">
<path d="M164.96 73.5421C164.941 77.2471 164.084 80.5889 162.727 82.9957C161.364 85.4106 159.532 86.834 157.572 86.834C155.613 86.834 153.794 85.4106 152.456 82.9957C151.123 80.5889 150.299 77.2471 150.318 73.5421C150.337 69.8372 151.193 66.4954 152.551 64.0886C153.913 61.6736 155.746 60.2502 157.705 60.2502C159.665 60.2502 161.483 61.6736 162.821 64.0886C164.155 66.4954 164.978 69.8372 164.96 73.5421Z" fill="#969BFF" stroke="black" stroke-width="0.5"/>
<path d="M163.732 73.6426C163.717 76.5468 163.046 79.1638 161.984 81.0459C160.918 82.9361 159.492 84.0349 157.98 84.0349C156.468 84.0349 155.054 82.9361 154.006 81.0459C152.964 79.1638 152.318 76.5468 152.332 73.6426C152.347 70.7383 153.019 68.1214 154.08 66.2393C155.147 64.3491 156.572 63.2502 158.084 63.2502C159.596 63.2502 161.011 64.3491 162.058 66.2393C163.101 68.1214 163.747 70.7383 163.732 73.6426Z" fill="#E7E8FF" stroke="#210268" stroke-width="0.5"/>
</g>
<g filter="url(#filter5_d_66_472)">
<path d="M194.284 69.3504C194.979 72.9897 194.781 76.434 193.911 79.057C193.039 81.6888 191.514 83.4381 189.591 83.8149C187.669 84.1918 185.61 83.1447 183.833 81.0322C182.061 78.9268 180.61 75.8057 179.916 72.1664C179.222 68.527 179.42 65.0828 180.289 62.4598C181.162 59.828 182.686 58.0787 184.609 57.7019C186.532 57.325 188.59 58.3721 190.368 60.4846C192.139 62.59 193.59 65.7111 194.284 69.3504Z" fill="#969BFF" stroke="black" stroke-width="0.5"/>
<path d="M193.099 69.6851C193.644 72.5379 193.488 75.2352 192.808 77.2863C192.125 79.3463 190.937 80.6989 189.454 80.9896C187.97 81.2804 186.37 80.4742 184.979 78.8207C183.594 77.1743 182.457 74.7303 181.913 71.8775C181.368 69.0247 181.524 66.3274 182.204 64.2763C182.887 62.2163 184.075 60.8637 185.558 60.573C187.042 60.2822 188.642 61.0884 190.033 62.7419C191.418 64.3883 192.555 66.8323 193.099 69.6851Z" fill="#E7E8FF" stroke="#210268" stroke-width="0.5"/>
</g>
<g filter="url(#filter6_d_66_472)">
<path d="M208.273 64.0398C209.341 67.5872 209.502 71.0334 208.91 73.7325C208.316 76.4407 206.981 78.339 205.108 78.9136C203.235 79.4882 201.079 78.6607 199.091 76.7443C197.111 74.8344 195.344 71.881 194.275 68.3335C193.206 64.786 193.045 61.3398 193.637 58.6407C194.231 55.9325 195.566 54.0342 197.439 53.4596C199.313 52.885 201.469 53.7125 203.456 55.6289C205.437 57.5388 207.204 60.4923 208.273 64.0398Z" fill="#969BFF" stroke="black" stroke-width="0.5"/>
<path d="M207.129 64.4959C207.967 67.2768 208.092 69.9757 207.629 72.0863C207.164 74.2061 206.123 75.6748 204.677 76.1181C203.232 76.5615 201.557 75.9258 200.002 74.4258C198.453 72.9323 197.068 70.6197 196.23 67.8389C195.393 65.0581 195.267 62.3592 195.73 60.2485C196.195 58.1287 197.236 56.6601 198.682 56.2167C200.127 55.7734 201.802 56.409 203.357 57.909C204.906 59.4025 206.291 61.7151 207.129 64.4959Z" fill="#E7E8FF" stroke="#210268" stroke-width="0.5"/>
</g>
<g filter="url(#filter7_d_66_472)">
<path d="M221.272 56.4157C222.816 59.7837 223.446 63.1755 223.229 65.9302C223.011 68.6942 221.948 70.7572 220.171 71.5826C218.394 72.4079 216.145 71.883 213.914 70.2564C211.691 68.6353 209.536 65.9512 207.993 62.5832C206.449 59.2152 205.818 55.8234 206.036 53.0687C206.254 50.3047 207.316 48.2417 209.094 47.4164C210.871 46.591 213.12 47.1159 215.35 48.7425C217.574 50.3636 219.728 53.0477 221.272 56.4157Z" fill="#969BFF" stroke="black" stroke-width="0.5"/>
<path d="M220.201 57.0239C221.411 59.6641 221.904 62.3205 221.734 64.4746C221.563 66.6381 220.733 68.2353 219.362 68.8721C217.991 69.5089 216.245 69.1083 214.499 67.8351C212.76 66.5675 211.072 64.4659 209.862 61.8258C208.652 59.1857 208.159 56.5293 208.329 54.3751C208.5 52.2116 209.33 50.6144 210.701 49.9776C212.072 49.3408 213.818 49.7414 215.564 51.0146C217.303 52.2823 218.991 54.3838 220.201 57.0239Z" fill="#E7E8FF" stroke="#210268" stroke-width="0.5"/>
</g>
<g filter="url(#filter8_d_66_472)">
<path d="M78.9923 57.4157C77.4485 60.7837 76.8179 64.1755 77.0353 66.9302C77.2535 69.6942 78.3161 71.7572 80.0932 72.5826C81.8703 73.4079 84.1192 72.883 86.35 71.2564C88.5732 69.6353 90.7277 66.9512 92.2715 63.5832C93.8153 60.2152 94.446 56.8234 94.2285 54.0687C94.0103 51.3047 92.9477 49.2417 91.1706 48.4164C89.3935 47.591 87.1446 48.1159 84.9139 49.7425C82.6906 51.3636 80.5361 54.0477 78.9923 57.4157Z" fill="#969BFF" stroke="black" stroke-width="0.5"/>
<path d="M80.0633 58.0239C78.8531 60.6641 78.36 63.3205 78.53 65.4746C78.7008 67.6381 79.5311 69.2353 80.9022 69.8721C82.2733 70.5089 84.0194 70.1083 85.7655 68.8351C87.5041 67.5675 89.1919 65.4659 90.4021 62.8258C91.6123 60.1857 92.1054 57.5293 91.9354 55.3751C91.7646 53.2116 90.9343 51.6144 89.5632 50.9776C88.1921 50.3408 86.446 50.7414 84.6999 52.0146C82.9613 53.2823 81.2735 55.3838 80.0633 58.0239Z" fill="#E7E8FF" stroke="#210268" stroke-width="0.5"/>
</g>
<g filter="url(#filter9_d_66_472)">
<path d="M92.2751 64.0398C91.2064 67.5872 91.0455 71.0334 91.6376 73.7325C92.2317 76.4407 93.5665 78.339 95.4397 78.9136C97.313 79.4882 99.469 78.6607 101.456 76.7443C103.437 74.8344 105.204 71.881 106.273 68.3335C107.342 64.786 107.503 61.3398 106.911 58.6407C106.316 55.9325 104.982 54.0342 103.108 53.4596C101.235 52.885 99.0792 53.7125 97.0918 55.6289C95.1111 57.5388 93.3439 60.4923 92.2751 64.0398Z" fill="#969BFF" stroke="black" stroke-width="0.5"/>
<path d="M93.4191 64.4959C92.5813 67.2768 92.4561 69.9757 92.9191 72.0863C93.3841 74.2061 94.4251 75.6748 95.8704 76.1181C97.3157 76.5615 98.9906 75.9258 100.546 74.4258C102.095 72.9323 103.48 70.6197 104.317 67.8389C105.155 65.0581 105.28 62.3592 104.817 60.2485C104.352 58.1287 103.311 56.6601 101.866 56.2167C100.421 55.7734 98.746 56.409 97.1904 57.909C95.6415 59.4025 94.2569 61.7151 93.4191 64.4959Z" fill="#E7E8FF" stroke="#210268" stroke-width="0.5"/>
</g>
<g filter="url(#filter10_d_66_472)">
<path d="M105.916 69.3504C105.222 72.9897 105.42 76.434 106.289 79.057C107.162 81.6888 108.687 83.4381 110.609 83.8149C112.532 84.1918 114.59 83.1447 116.368 81.0322C118.139 78.9268 119.59 75.8057 120.285 72.1664C120.979 68.527 120.781 65.0828 119.911 62.4598C119.039 59.828 117.514 58.0787 115.592 57.7019C113.669 57.325 111.61 58.3721 109.833 60.4846C108.061 62.59 106.611 65.7111 105.916 69.3504Z" fill="#969BFF" stroke="black" stroke-width="0.5"/>
<path d="M107.101 69.6851C106.557 72.5379 106.713 75.2352 107.393 77.2863C108.075 79.3463 109.263 80.6989 110.747 80.9896C112.23 81.2804 113.83 80.4742 115.222 78.8207C116.607 77.1743 117.744 74.7303 118.288 71.8775C118.832 69.0247 118.676 66.3274 117.997 64.2763C117.314 62.2163 116.126 60.8637 114.642 60.573C113.159 60.2822 111.559 61.0884 110.168 62.7419C108.782 64.3883 107.646 66.8323 107.101 69.6851Z" fill="#E7E8FF" stroke="#210268" stroke-width="0.5"/>
</g>
<defs>
<filter id="filter0_d_66_472" x="8.76514" y="11.4282" width="283.486" height="73.5718" filterUnits="userSpaceOnUse" color-interpolation-filters="sRGB">
<feFlood flood-opacity="0" result="BackgroundImageFix"/>
<feColorMatrix in="SourceAlpha" type="matrix" values="0 0 0 0 0 0 0 0 0 0 0 0 0 0 0 0 0 0 127 0" result="hardAlpha"/>
<feOffset dy="4"/>
<feGaussianBlur stdDeviation="2"/>
<feComposite in2="hardAlpha" operator="out"/>
<feColorMatrix type="matrix" values="0 0 0 0 0 0 0 0 0 0 0 0 0 0 0 0 0 0 0.25 0"/>
<feBlend mode="normal" in2="BackgroundImageFix" result="effect1_dropShadow_66_472"/>
<feBlend mode="normal" in="SourceGraphic" in2="effect1_dropShadow_66_472" result="shape"/>
</filter>
<filter id="filter1_d_66_472" x="116.094" y="59.8669" width="23.2778" height="35.0093" filterUnits="userSpaceOnUse" color-interpolation-filters="sRGB">
<feFlood flood-opacity="0" result="BackgroundImageFix"/>
<feColorMatrix in="SourceAlpha" type="matrix" values="0 0 0 0 0 0 0 0 0 0 0 0 0 0 0 0 0 0 127 0" result="hardAlpha"/>
<feOffset dy="4"/>
<feGaussianBlur stdDeviation="2"/>
<feComposite in2="hardAlpha" operator="out"/>
<feColorMatrix type="matrix" values="0 0 0 0 0 0 0 0 0 0 0 0 0 0 0 0 0 0 0.25 0"/>
<feBlend mode="normal" in2="BackgroundImageFix" result="effect1_dropShadow_66_472"/>
<feBlend mode="normal" in="SourceGraphic" in2="effect1_dropShadow_66_472" result="shape"/>
</filter>
<filter id="filter2_d_66_472" x="161.094" y="59.623" width="23.2778" height="35.0093" filterUnits="userSpaceOnUse" color-interpolation-filters="sRGB">
<feFlood flood-opacity="0" result="BackgroundImageFix"/>
<feColorMatrix in="SourceAlpha" type="matrix" values="0 0 0 0 0 0 0 0 0 0 0 0 0 0 0 0 0 0 127 0" result="hardAlpha"/>
<feOffset dy="4"/>
<feGaussianBlur stdDeviation="2"/>
<feComposite in2="hardAlpha" operator="out"/>
<feColorMatrix type="matrix" values="0 0 0 0 0 0 0 0 0 0 0 0 0 0 0 0 0 0 0.25 0"/>
<feBlend mode="normal" in2="BackgroundImageFix" result="effect1_dropShadow_66_472"/>
<feBlend mode="normal" in="SourceGraphic" in2="effect1_dropShadow_66_472" result="shape"/>
</filter>
<filter id="filter3_d_66_472" x="131.162" y="59.8298" width="23.1421" height="35.0837" filterUnits="userSpaceOnUse" color-interpolation-filters="sRGB">
<feFlood flood-opacity="0" result="BackgroundImageFix"/>
<feColorMatrix in="SourceAlpha" type="matrix" values="0 0 0 0 0 0 0 0 0 0 0 0 0 0 0 0 0 0 127 0" result="hardAlpha"/>
<feOffset dy="4"/>
<feGaussianBlur stdDeviation="2"/>
<feComposite in2="hardAlpha" operator="out"/>
<feColorMatrix type="matrix" values="0 0 0 0 0 0 0 0 0 0 0 0 0 0 0 0 0 0 0.25 0"/>
<feBlend mode="normal" in2="BackgroundImageFix" result="effect1_dropShadow_66_472"/>
<feBlend mode="normal" in="SourceGraphic" in2="effect1_dropShadow_66_472" result="shape"/>
</filter>
<filter id="filter4_d_66_472" x="146.068" y="60.0002" width="23.1421" height="35.0837" filterUnits="userSpaceOnUse" color-interpolation-filters="sRGB">
<feFlood flood-opacity="0" result="BackgroundImageFix"/>
<feColorMatrix in="SourceAlpha" type="matrix" values="0 0 0 0 0 0 0 0 0 0 0 0 0 0 0 0 0 0 127 0" result="hardAlpha"/>
<feOffset dy="4"/>
<feGaussianBlur stdDeviation="2"/>
<feComposite in2="hardAlpha" operator="out"/>
<feColorMatrix type="matrix" values="0 0 0 0 0 0 0 0 0 0 0 0 0 0 0 0 0 0 0.25 0"/>
<feBlend mode="normal" in2="BackgroundImageFix" result="effect1_dropShadow_66_472"/>
<feBlend mode="normal" in="SourceGraphic" in2="effect1_dropShadow_66_472" result="shape"/>
</filter>
<filter id="filter5_d_66_472" x="175.247" y="57.3757" width="23.7061" height="34.7654" filterUnits="userSpaceOnUse" color-interpolation-filters="sRGB">
<feFlood flood-opacity="0" result="BackgroundImageFix"/>
<feColorMatrix in="SourceAlpha" type="matrix" values="0 0 0 0 0 0 0 0 0 0 0 0 0 0 0 0 0 0 127 0" result="hardAlpha"/>
<feOffset dy="4"/>
<feGaussianBlur stdDeviation="2"/>
<feComposite in2="hardAlpha" operator="out"/>
<feColorMatrix type="matrix" values="0 0 0 0 0 0 0 0 0 0 0 0 0 0 0 0 0 0 0.25 0"/>
<feBlend mode="normal" in2="BackgroundImageFix" result="effect1_dropShadow_66_472"/>
<feBlend mode="normal" in="SourceGraphic" in2="effect1_dropShadow_66_472" result="shape"/>
</filter>
<filter id="filter6_d_66_472" x="189.047" y="53.0295" width="24.4526" height="34.3142" filterUnits="userSpaceOnUse" color-interpolation-filters="sRGB">
<feFlood flood-opacity="0" result="BackgroundImageFix"/>
<feColorMatrix in="SourceAlpha" type="matrix" values="0 0 0 0 0 0 0 0 0 0 0 0 0 0 0 0 0 0 127 0" result="hardAlpha"/>
<feOffset dy="4"/>
<feGaussianBlur stdDeviation="2"/>
<feComposite in2="hardAlpha" operator="out"/>
<feColorMatrix type="matrix" values="0 0 0 0 0 0 0 0 0 0 0 0 0 0 0 0 0 0 0.25 0"/>
<feBlend mode="normal" in2="BackgroundImageFix" result="effect1_dropShadow_66_472"/>
<feBlend mode="normal" in="SourceGraphic" in2="effect1_dropShadow_66_472" result="shape"/>
</filter>
<filter id="filter7_d_66_472" x="201.745" y="46.7795" width="25.7754" height="33.4397" filterUnits="userSpaceOnUse" color-interpolation-filters="sRGB">
<feFlood flood-opacity="0" result="BackgroundImageFix"/>
<feColorMatrix in="SourceAlpha" type="matrix" values="0 0 0 0 0 0 0 0 0 0 0 0 0 0 0 0 0 0 127 0" result="hardAlpha"/>
<feOffset dy="4"/>
<feGaussianBlur stdDeviation="2"/>
<feComposite in2="hardAlpha" operator="out"/>
<feColorMatrix type="matrix" values="0 0 0 0 0 0 0 0 0 0 0 0 0 0 0 0 0 0 0.25 0"/>
<feBlend mode="normal" in2="BackgroundImageFix" result="effect1_dropShadow_66_472"/>
<feBlend mode="normal" in="SourceGraphic" in2="effect1_dropShadow_66_472" result="shape"/>
</filter>
<filter id="filter8_d_66_472" x="72.7441" y="47.7795" width="25.7754" height="33.4397" filterUnits="userSpaceOnUse" color-interpolation-filters="sRGB">
<feFlood flood-opacity="0" result="BackgroundImageFix"/>
<feColorMatrix in="SourceAlpha" type="matrix" values="0 0 0 0 0 0 0 0 0 0 0 0 0 0 0 0 0 0 127 0" result="hardAlpha"/>
<feOffset dy="4"/>
<feGaussianBlur stdDeviation="2"/>
<feComposite in2="hardAlpha" operator="out"/>
<feColorMatrix type="matrix" values="0 0 0 0 0 0 0 0 0 0 0 0 0 0 0 0 0 0 0.25 0"/>
<feBlend mode="normal" in2="BackgroundImageFix" result="effect1_dropShadow_66_472"/>
<feBlend mode="normal" in="SourceGraphic" in2="effect1_dropShadow_66_472" result="shape"/>
</filter>
<filter id="filter9_d_66_472" x="87.0479" y="53.0295" width="24.4526" height="34.3142" filterUnits="userSpaceOnUse" color-interpolation-filters="sRGB">
<feFlood flood-opacity="0" result="BackgroundImageFix"/>
<feColorMatrix in="SourceAlpha" type="matrix" values="0 0 0 0 0 0 0 0 0 0 0 0 0 0 0 0 0 0 127 0" result="hardAlpha"/>
<feOffset dy="4"/>
<feGaussianBlur stdDeviation="2"/>
<feComposite in2="hardAlpha" operator="out"/>
<feColorMatrix type="matrix" values="0 0 0 0 0 0 0 0 0 0 0 0 0 0 0 0 0 0 0.25 0"/>
<feBlend mode="normal" in2="BackgroundImageFix" result="effect1_dropShadow_66_472"/>
<feBlend mode="normal" in="SourceGraphic" in2="effect1_dropShadow_66_472" result="shape"/>
</filter>
<filter id="filter10_d_66_472" x="101.248" y="57.3757" width="23.7061" height="34.7654" filterUnits="userSpaceOnUse" color-interpolation-filters="sRGB">
<feFlood flood-opacity="0" result="BackgroundImageFix"/>
<feColorMatrix in="SourceAlpha" type="matrix" values="0 0 0 0 0 0 0 0 0 0 0 0 0 0 0 0 0 0 127 0" result="hardAlpha"/>
<feOffset dy="4"/>
<feGaussianBlur stdDeviation="2"/>
<feComposite in2="hardAlpha" operator="out"/>
<feColorMatrix type="matrix" values="0 0 0 0 0 0 0 0 0 0 0 0 0 0 0 0 0 0 0.25 0"/>
<feBlend mode="normal" in2="BackgroundImageFix" result="effect1_dropShadow_66_472"/>
<feBlend mode="normal" in="SourceGraphic" in2="effect1_dropShadow_66_472" result="shape"/>
</filter>
</defs>
</svg>
