<svg width="301" height="99" viewBox="0 0 301 99" fill="none" xmlns="http://www.w3.org/2000/svg">
<rect width="301" height="99" />
<g filter="url(#filter0_d_66_292)">
<path d="M14 16C14 16 94.2793 79.1404 154 77.9843C211.23 76.8765 287 16 287 16" stroke="#AFB4B9" stroke-width="4"/>
</g>
<g filter="url(#filter1_d_66_292)">
<path d="M135.029 76.9773C134.704 80.6679 133.573 83.9274 132.021 86.2136C130.464 88.5076 128.52 89.7744 126.567 89.6122C124.614 89.4501 122.92 87.8811 121.786 85.3637C120.656 82.8548 120.112 79.4563 120.437 75.7656C120.763 72.075 121.893 68.8155 123.445 66.5293C125.002 64.2354 126.947 62.9685 128.899 63.1307C130.852 63.2928 132.547 64.8618 133.68 67.3792C134.81 69.8881 135.354 73.2866 135.029 76.9773Z" fill="#969BFF" stroke="black" stroke-width="0.5"/>
<path d="M133.797 76.9759C133.542 79.8689 132.656 82.4213 131.442 84.2091C130.223 86.0046 128.711 86.9817 127.205 86.8566C125.698 86.7315 124.379 85.5193 123.492 83.5489C122.608 81.587 122.182 78.9256 122.436 76.0325C122.691 73.1394 123.577 70.5871 124.791 68.7993C126.01 67.0038 127.522 66.0267 129.029 66.1518C130.535 66.2769 131.854 67.489 132.741 69.4595C133.625 71.4214 134.052 74.0828 133.797 76.9759Z" fill="#E7E8FF" stroke="#210268" stroke-width="0.5"/>
</g>
<g filter="url(#filter2_d_66_292)">
<path d="M165.437 76.7334C165.762 80.4241 166.892 83.6835 168.445 85.9697C170.002 88.2637 171.946 89.5305 173.899 89.3683C175.852 89.2062 177.546 87.6372 178.68 85.1198C179.809 82.611 180.353 79.2124 180.028 75.5217C179.703 71.8311 178.573 68.5716 177.021 66.2854C175.463 63.9915 173.519 62.7246 171.566 62.8868C169.614 63.0489 167.919 64.6179 166.786 67.1353C165.656 69.6442 165.112 73.0427 165.437 76.7334Z" fill="#969BFF" stroke="black" stroke-width="0.5"/>
<path d="M166.669 76.732C166.924 79.625 167.81 82.1774 169.023 83.9652C170.242 85.7607 171.754 86.7378 173.261 86.6127C174.767 86.4876 176.087 85.2754 176.974 83.305C177.857 81.3431 178.284 78.6817 178.029 75.7886C177.775 72.8955 176.889 70.3432 175.675 68.5554C174.456 66.7599 172.944 65.7828 171.437 65.9079C169.931 66.033 168.612 67.2452 167.724 69.2156C166.841 71.1775 166.414 73.8389 166.669 76.732Z" fill="#E7E8FF" stroke="#210268" stroke-width="0.5"/>
</g>
<g filter="url(#filter3_d_66_292)">
<path d="M150.054 76.3715C150.035 80.0764 149.178 83.4182 147.821 85.825C146.459 88.24 144.626 89.6634 142.667 89.6634C140.707 89.6634 138.889 88.24 137.551 85.825C136.217 83.4182 135.394 80.0764 135.412 76.3715C135.431 72.6665 136.288 69.3247 137.645 66.9179C139.007 64.503 140.84 63.0796 142.8 63.0796C144.759 63.0796 146.577 64.503 147.915 66.9179C149.249 69.3247 150.072 72.6665 150.054 76.3715Z" fill="#969BFF" stroke="black" stroke-width="0.5"/>
<path d="M148.826 76.4719C148.812 79.3762 148.14 81.9931 147.078 83.8752C146.012 85.7654 144.586 86.8643 143.074 86.8643C141.563 86.8643 140.148 85.7654 139.101 83.8752C138.058 81.9931 137.412 79.3762 137.427 76.4719C137.441 73.5677 138.113 70.9507 139.175 69.0687C140.241 67.1784 141.667 66.0796 143.178 66.0796C144.69 66.0796 146.105 67.1784 147.152 69.0687C148.195 70.9507 148.841 73.5677 148.826 76.4719Z" fill="#E7E8FF" stroke="#210268" stroke-width="0.5"/>
</g>
<g filter="url(#filter4_d_66_292)">
<path d="M164.96 76.5419C164.941 80.2468 164.084 83.5887 162.727 85.9954C161.364 88.4104 159.532 89.8338 157.572 89.8338C155.613 89.8338 153.794 88.4104 152.456 85.9954C151.123 83.5887 150.299 80.2468 150.318 76.5419C150.337 72.837 151.193 69.4951 152.551 67.0883C153.913 64.6734 155.746 63.25 157.705 63.25C159.665 63.25 161.483 64.6734 162.821 67.0883C164.155 69.4951 164.978 72.837 164.96 76.5419Z" fill="#969BFF" stroke="black" stroke-width="0.5"/>
<path d="M163.732 76.6423C163.717 79.5466 163.046 82.1635 161.984 84.0456C160.918 85.9359 159.492 87.0347 157.98 87.0347C156.468 87.0347 155.054 85.9359 154.006 84.0456C152.964 82.1635 152.318 79.5466 152.332 76.6423C152.347 73.7381 153.019 71.1211 154.08 69.2391C155.147 67.3488 156.572 66.25 158.084 66.25C159.596 66.25 161.011 67.3488 162.058 69.2391C163.101 71.1211 163.747 73.7381 163.732 76.6423Z" fill="#E7E8FF" stroke="#210268" stroke-width="0.5"/>
</g>
<defs>
<filter id="filter0_d_66_292" x="8.76514" y="14.4282" width="283.486" height="73.5718" filterUnits="userSpaceOnUse" color-interpolation-filters="sRGB">
<feFlood flood-opacity="0" result="BackgroundImageFix"/>
<feColorMatrix in="SourceAlpha" type="matrix" values="0 0 0 0 0 0 0 0 0 0 0 0 0 0 0 0 0 0 127 0" result="hardAlpha"/>
<feOffset dy="4"/>
<feGaussianBlur stdDeviation="2"/>
<feComposite in2="hardAlpha" operator="out"/>
<feColorMatrix type="matrix" values="0 0 0 0 0 0 0 0 0 0 0 0 0 0 0 0 0 0 0.25 0"/>
<feBlend mode="normal" in2="BackgroundImageFix" result="effect1_dropShadow_66_292"/>
<feBlend mode="normal" in="SourceGraphic" in2="effect1_dropShadow_66_292" result="shape"/>
</filter>
<filter id="filter1_d_66_292" x="116.094" y="62.8667" width="23.2778" height="35.0093" filterUnits="userSpaceOnUse" color-interpolation-filters="sRGB">
<feFlood flood-opacity="0" result="BackgroundImageFix"/>
<feColorMatrix in="SourceAlpha" type="matrix" values="0 0 0 0 0 0 0 0 0 0 0 0 0 0 0 0 0 0 127 0" result="hardAlpha"/>
<feOffset dy="4"/>
<feGaussianBlur stdDeviation="2"/>
<feComposite in2="hardAlpha" operator="out"/>
<feColorMatrix type="matrix" values="0 0 0 0 0 0 0 0 0 0 0 0 0 0 0 0 0 0 0.25 0"/>
<feBlend mode="normal" in2="BackgroundImageFix" result="effect1_dropShadow_66_292"/>
<feBlend mode="normal" in="SourceGraphic" in2="effect1_dropShadow_66_292" result="shape"/>
</filter>
<filter id="filter2_d_66_292" x="161.094" y="62.6228" width="23.2778" height="35.0093" filterUnits="userSpaceOnUse" color-interpolation-filters="sRGB">
<feFlood flood-opacity="0" result="BackgroundImageFix"/>
<feColorMatrix in="SourceAlpha" type="matrix" values="0 0 0 0 0 0 0 0 0 0 0 0 0 0 0 0 0 0 127 0" result="hardAlpha"/>
<feOffset dy="4"/>
<feGaussianBlur stdDeviation="2"/>
<feComposite in2="hardAlpha" operator="out"/>
<feColorMatrix type="matrix" values="0 0 0 0 0 0 0 0 0 0 0 0 0 0 0 0 0 0 0.25 0"/>
<feBlend mode="normal" in2="BackgroundImageFix" result="effect1_dropShadow_66_292"/>
<feBlend mode="normal" in="SourceGraphic" in2="effect1_dropShadow_66_292" result="shape"/>
</filter>
<filter id="filter3_d_66_292" x="131.162" y="62.8296" width="23.1421" height="35.0837" filterUnits="userSpaceOnUse" color-interpolation-filters="sRGB">
<feFlood flood-opacity="0" result="BackgroundImageFix"/>
<feColorMatrix in="SourceAlpha" type="matrix" values="0 0 0 0 0 0 0 0 0 0 0 0 0 0 0 0 0 0 127 0" result="hardAlpha"/>
<feOffset dy="4"/>
<feGaussianBlur stdDeviation="2"/>
<feComposite in2="hardAlpha" operator="out"/>
<feColorMatrix type="matrix" values="0 0 0 0 0 0 0 0 0 0 0 0 0 0 0 0 0 0 0.25 0"/>
<feBlend mode="normal" in2="BackgroundImageFix" result="effect1_dropShadow_66_292"/>
<feBlend mode="normal" in="SourceGraphic" in2="effect1_dropShadow_66_292" result="shape"/>
</filter>
<filter id="filter4_d_66_292" x="146.068" y="63" width="23.1421" height="35.0837" filterUnits="userSpaceOnUse" color-interpolation-filters="sRGB">
<feFlood flood-opacity="0" result="BackgroundImageFix"/>
<feColorMatrix in="SourceAlpha" type="matrix" values="0 0 0 0 0 0 0 0 0 0 0 0 0 0 0 0 0 0 127 0" result="hardAlpha"/>
<feOffset dy="4"/>
<feGaussianBlur stdDeviation="2"/>
<feComposite in2="hardAlpha" operator="out"/>
<feColorMatrix type="matrix" values="0 0 0 0 0 0 0 0 0 0 0 0 0 0 0 0 0 0 0.25 0"/>
<feBlend mode="normal" in2="BackgroundImageFix" result="effect1_dropShadow_66_292"/>
<feBlend mode="normal" in="SourceGraphic" in2="effect1_dropShadow_66_292" result="shape"/>
</filter>
</defs>
</svg>
