<svg width="301" height="99" viewBox="0 0 301 99" fill="none" xmlns="http://www.w3.org/2000/svg">
<rect width="301" height="99" />
<g filter="url(#filter0_d_66_329)">
<path d="M14 16C14 16 94.2793 79.1404 154 77.9843C211.23 76.8765 287 16 287 16" stroke="#AFB4B9" stroke-width="4"/>
</g>
<g filter="url(#filter1_d_66_329)">
<path d="M143.029 76.9773C142.704 80.6679 141.573 83.9274 140.021 86.2136C138.464 88.5076 136.52 89.7744 134.567 89.6122C132.614 89.4501 130.92 87.8811 129.786 85.3637C128.656 82.8548 128.112 79.4563 128.437 75.7656C128.763 72.075 129.893 68.8155 131.445 66.5293C133.002 64.2354 134.947 62.9685 136.899 63.1307C138.852 63.2928 140.547 64.8618 141.68 67.3792C142.81 69.8881 143.354 73.2866 143.029 76.9773Z" fill="#969BFF" stroke="black" stroke-width="0.5"/>
<path d="M141.797 76.9759C141.542 79.8689 140.656 82.4213 139.442 84.2091C138.223 86.0046 136.711 86.9817 135.205 86.8566C133.698 86.7315 132.379 85.5193 131.492 83.5489C130.608 81.587 130.182 78.9256 130.436 76.0325C130.691 73.1394 131.577 70.5871 132.791 68.7993C134.01 67.0038 135.522 66.0267 137.029 66.1518C138.535 66.2769 139.854 67.489 140.741 69.4595C141.625 71.4214 142.052 74.0828 141.797 76.9759Z" fill="#E7E8FF" stroke="#210268" stroke-width="0.5"/>
</g>
<g filter="url(#filter2_d_66_329)">
<path d="M158.054 76.3715C158.035 80.0764 157.178 83.4182 155.821 85.825C154.459 88.24 152.626 89.6634 150.667 89.6634C148.707 89.6634 146.889 88.24 145.551 85.825C144.217 83.4182 143.394 80.0764 143.412 76.3715C143.431 72.6665 144.288 69.3247 145.645 66.9179C147.007 64.503 148.84 63.0796 150.8 63.0796C152.759 63.0796 154.577 64.503 155.915 66.9179C157.249 69.3247 158.072 72.6665 158.054 76.3715Z" fill="#969BFF" stroke="black" stroke-width="0.5"/>
<path d="M156.826 76.4719C156.812 79.3762 156.14 81.9931 155.078 83.8752C154.012 85.7654 152.586 86.8643 151.074 86.8643C149.563 86.8643 148.148 85.7654 147.101 83.8752C146.058 81.9931 145.412 79.3762 145.427 76.4719C145.441 73.5677 146.113 70.9507 147.175 69.0687C148.241 67.1784 149.667 66.0796 151.178 66.0796C152.69 66.0796 154.105 67.1784 155.152 69.0687C156.195 70.9507 156.841 73.5677 156.826 76.4719Z" fill="#E7E8FF" stroke="#210268" stroke-width="0.5"/>
</g>
<g filter="url(#filter3_d_66_329)">
<path d="M172.999 75.4797C173.432 79.1593 172.988 82.5807 171.934 85.1349C170.876 87.6978 169.23 89.3338 167.286 89.5725C165.341 89.8112 163.362 88.62 161.74 86.386C160.123 84.1596 158.899 80.9429 158.466 77.2633C158.033 73.5837 158.477 70.1624 159.531 67.6081C160.589 65.0453 162.235 63.4092 164.179 63.1705C166.124 62.9318 168.103 64.1231 169.725 66.3571C171.342 68.5835 172.566 71.8001 172.999 75.4797Z" fill="#969BFF" stroke="black" stroke-width="0.5"/>
<path d="M171.793 75.7291C172.132 78.6135 171.784 81.2928 170.96 83.2902C170.132 85.2962 168.85 86.5605 167.35 86.7447C165.849 86.9289 164.311 86.0106 163.041 84.262C161.777 82.5209 160.817 80.0021 160.478 77.1177C160.139 74.2333 160.487 71.5541 161.311 69.5567C162.139 67.5506 163.42 66.2863 164.921 66.1021C166.422 65.918 167.96 66.8363 169.229 68.5848C170.494 70.3259 171.453 72.8447 171.793 75.7291Z" fill="#E7E8FF" stroke="#210268" stroke-width="0.5"/>
</g>
<g filter="url(#filter4_d_66_329)">
<path d="M187.284 72.3502C187.979 75.9895 187.781 79.4337 186.911 82.0567C186.039 84.6885 184.514 86.4378 182.591 86.8147C180.669 87.1915 178.61 86.1445 176.833 84.0319C175.061 81.9266 173.61 78.8055 172.916 75.1661C172.222 71.5268 172.42 68.0826 173.289 65.4596C174.162 62.8278 175.686 61.0785 177.609 60.7016C179.532 60.3248 181.59 61.3718 183.368 63.4844C185.139 65.5898 186.59 68.7108 187.284 72.3502Z" fill="#969BFF" stroke="black" stroke-width="0.5"/>
<path d="M186.099 72.6848C186.644 75.5377 186.488 78.235 185.808 80.2861C185.125 82.3461 183.937 83.6986 182.454 83.9894C180.97 84.2801 179.37 83.4739 177.979 81.8204C176.594 80.174 175.457 77.7301 174.913 74.8773C174.368 72.0244 174.524 69.3271 175.204 67.276C175.887 65.216 177.075 63.8635 178.558 63.5727C180.042 63.282 181.642 64.0882 183.033 65.7417C184.418 67.3881 185.555 69.832 186.099 72.6848Z" fill="#E7E8FF" stroke="#210268" stroke-width="0.5"/>
</g>
<g filter="url(#filter5_d_66_329)">
<path d="M113.916 72.3502C113.222 75.9895 113.42 79.4337 114.289 82.0567C115.162 84.6885 116.687 86.4378 118.609 86.8147C120.532 87.1915 122.59 86.1445 124.368 84.0319C126.139 81.9266 127.59 78.8055 128.285 75.1661C128.979 71.5268 128.781 68.0826 127.911 65.4596C127.039 62.8278 125.514 61.0785 123.592 60.7016C121.669 60.3248 119.61 61.3718 117.833 63.4844C116.061 65.5898 114.611 68.7108 113.916 72.3502Z" fill="#969BFF" stroke="black" stroke-width="0.5"/>
<path d="M115.101 72.6848C114.557 75.5377 114.713 78.235 115.393 80.2861C116.075 82.3461 117.263 83.6986 118.747 83.9894C120.23 84.2801 121.83 83.4739 123.222 81.8204C124.607 80.174 125.744 77.7301 126.288 74.8773C126.832 72.0244 126.676 69.3271 125.997 67.276C125.314 65.216 124.126 63.8635 122.642 63.5727C121.159 63.282 119.559 64.0882 118.168 65.7417C116.782 67.3881 115.646 69.832 115.101 72.6848Z" fill="#E7E8FF" stroke="#210268" stroke-width="0.5"/>
</g>
<defs>
<filter id="filter0_d_66_329" x="8.76514" y="14.4282" width="283.486" height="73.5718" filterUnits="userSpaceOnUse" color-interpolation-filters="sRGB">
<feFlood flood-opacity="0" result="BackgroundImageFix"/>
<feColorMatrix in="SourceAlpha" type="matrix" values="0 0 0 0 0 0 0 0 0 0 0 0 0 0 0 0 0 0 127 0" result="hardAlpha"/>
<feOffset dy="4"/>
<feGaussianBlur stdDeviation="2"/>
<feComposite in2="hardAlpha" operator="out"/>
<feColorMatrix type="matrix" values="0 0 0 0 0 0 0 0 0 0 0 0 0 0 0 0 0 0 0.25 0"/>
<feBlend mode="normal" in2="BackgroundImageFix" result="effect1_dropShadow_66_329"/>
<feBlend mode="normal" in="SourceGraphic" in2="effect1_dropShadow_66_329" result="shape"/>
</filter>
<filter id="filter1_d_66_329" x="124.094" y="62.8667" width="23.2778" height="35.0093" filterUnits="userSpaceOnUse" color-interpolation-filters="sRGB">
<feFlood flood-opacity="0" result="BackgroundImageFix"/>
<feColorMatrix in="SourceAlpha" type="matrix" values="0 0 0 0 0 0 0 0 0 0 0 0 0 0 0 0 0 0 127 0" result="hardAlpha"/>
<feOffset dy="4"/>
<feGaussianBlur stdDeviation="2"/>
<feComposite in2="hardAlpha" operator="out"/>
<feColorMatrix type="matrix" values="0 0 0 0 0 0 0 0 0 0 0 0 0 0 0 0 0 0 0.25 0"/>
<feBlend mode="normal" in2="BackgroundImageFix" result="effect1_dropShadow_66_329"/>
<feBlend mode="normal" in="SourceGraphic" in2="effect1_dropShadow_66_329" result="shape"/>
</filter>
<filter id="filter2_d_66_329" x="139.162" y="62.8296" width="23.1421" height="35.0837" filterUnits="userSpaceOnUse" color-interpolation-filters="sRGB">
<feFlood flood-opacity="0" result="BackgroundImageFix"/>
<feColorMatrix in="SourceAlpha" type="matrix" values="0 0 0 0 0 0 0 0 0 0 0 0 0 0 0 0 0 0 127 0" result="hardAlpha"/>
<feOffset dy="4"/>
<feGaussianBlur stdDeviation="2"/>
<feComposite in2="hardAlpha" operator="out"/>
<feColorMatrix type="matrix" values="0 0 0 0 0 0 0 0 0 0 0 0 0 0 0 0 0 0 0.25 0"/>
<feBlend mode="normal" in2="BackgroundImageFix" result="effect1_dropShadow_66_329"/>
<feBlend mode="normal" in="SourceGraphic" in2="effect1_dropShadow_66_329" result="shape"/>
</filter>
<filter id="filter3_d_66_329" x="154.052" y="62.8901" width="23.3613" height="34.9629" filterUnits="userSpaceOnUse" color-interpolation-filters="sRGB">
<feFlood flood-opacity="0" result="BackgroundImageFix"/>
<feColorMatrix in="SourceAlpha" type="matrix" values="0 0 0 0 0 0 0 0 0 0 0 0 0 0 0 0 0 0 127 0" result="hardAlpha"/>
<feOffset dy="4"/>
<feGaussianBlur stdDeviation="2"/>
<feComposite in2="hardAlpha" operator="out"/>
<feColorMatrix type="matrix" values="0 0 0 0 0 0 0 0 0 0 0 0 0 0 0 0 0 0 0.25 0"/>
<feBlend mode="normal" in2="BackgroundImageFix" result="effect1_dropShadow_66_329"/>
<feBlend mode="normal" in="SourceGraphic" in2="effect1_dropShadow_66_329" result="shape"/>
</filter>
<filter id="filter4_d_66_329" x="168.247" y="60.3755" width="23.7061" height="34.7654" filterUnits="userSpaceOnUse" color-interpolation-filters="sRGB">
<feFlood flood-opacity="0" result="BackgroundImageFix"/>
<feColorMatrix in="SourceAlpha" type="matrix" values="0 0 0 0 0 0 0 0 0 0 0 0 0 0 0 0 0 0 127 0" result="hardAlpha"/>
<feOffset dy="4"/>
<feGaussianBlur stdDeviation="2"/>
<feComposite in2="hardAlpha" operator="out"/>
<feColorMatrix type="matrix" values="0 0 0 0 0 0 0 0 0 0 0 0 0 0 0 0 0 0 0.25 0"/>
<feBlend mode="normal" in2="BackgroundImageFix" result="effect1_dropShadow_66_329"/>
<feBlend mode="normal" in="SourceGraphic" in2="effect1_dropShadow_66_329" result="shape"/>
</filter>
<filter id="filter5_d_66_329" x="109.248" y="60.3755" width="23.7061" height="34.7654" filterUnits="userSpaceOnUse" color-interpolation-filters="sRGB">
<feFlood flood-opacity="0" result="BackgroundImageFix"/>
<feColorMatrix in="SourceAlpha" type="matrix" values="0 0 0 0 0 0 0 0 0 0 0 0 0 0 0 0 0 0 127 0" result="hardAlpha"/>
<feOffset dy="4"/>
<feGaussianBlur stdDeviation="2"/>
<feComposite in2="hardAlpha" operator="out"/>
<feColorMatrix type="matrix" values="0 0 0 0 0 0 0 0 0 0 0 0 0 0 0 0 0 0 0.25 0"/>
<feBlend mode="normal" in2="BackgroundImageFix" result="effect1_dropShadow_66_329"/>
<feBlend mode="normal" in="SourceGraphic" in2="effect1_dropShadow_66_329" result="shape"/>
</filter>
</defs>
</svg>
