<svg width="301" height="99" viewBox="0 0 301 99" fill="none" xmlns="http://www.w3.org/2000/svg">
<rect width="301" height="99" />
<g filter="url(#filter0_d_66_407)">
<path d="M14 13C14 13 94.2793 76.1404 154 74.9843C211.23 73.8765 287 13 287 13" stroke="#AFB4B9" stroke-width="4"/>
</g>
<g filter="url(#filter1_d_66_407)">
<path d="M135.029 73.9773C134.704 77.6679 133.573 80.9274 132.021 83.2136C130.464 85.5076 128.52 86.7744 126.567 86.6122C124.614 86.4501 122.92 84.8811 121.786 82.3637C120.656 79.8548 120.112 76.4563 120.437 72.7656C120.763 69.075 121.893 65.8155 123.445 63.5293C125.002 61.2354 126.947 59.9685 128.899 60.1307C130.852 60.2928 132.547 61.8618 133.68 64.3792C134.81 66.8881 135.354 70.2866 135.029 73.9773Z" fill="#969BFF" stroke="black" stroke-width="0.5"/>
<path d="M133.797 73.9759C133.542 76.8689 132.656 79.4213 131.442 81.2091C130.223 83.0046 128.711 83.9817 127.205 83.8566C125.698 83.7315 124.379 82.5193 123.492 80.5489C122.608 78.587 122.182 75.9256 122.436 73.0325C122.691 70.1394 123.577 67.5871 124.791 65.7993C126.01 64.0038 127.522 63.0267 129.029 63.1518C130.535 63.2769 131.854 64.489 132.741 66.4595C133.625 68.4214 134.052 71.0828 133.797 73.9759Z" fill="#E7E8FF" stroke="#210268" stroke-width="0.5"/>
</g>
<g filter="url(#filter2_d_66_407)">
<path d="M165.437 73.7334C165.762 77.4241 166.892 80.6835 168.445 82.9697C170.002 85.2637 171.946 86.5305 173.899 86.3683C175.852 86.2062 177.546 84.6372 178.68 82.1198C179.809 79.611 180.353 76.2124 180.028 72.5217C179.703 68.8311 178.573 65.5716 177.021 63.2854C175.463 60.9915 173.519 59.7246 171.566 59.8868C169.614 60.0489 167.919 61.6179 166.786 64.1353C165.656 66.6442 165.112 70.0427 165.437 73.7334Z" fill="#969BFF" stroke="black" stroke-width="0.5"/>
<path d="M166.669 73.732C166.924 76.625 167.81 79.1774 169.023 80.9652C170.242 82.7607 171.754 83.7378 173.261 83.6127C174.767 83.4876 176.087 82.2754 176.974 80.305C177.857 78.3431 178.284 75.6817 178.029 72.7886C177.775 69.8955 176.889 67.3432 175.675 65.5554C174.456 63.7599 172.944 62.7828 171.437 62.9079C169.931 63.033 168.612 64.2452 167.724 66.2156C166.841 68.1775 166.414 70.8389 166.669 73.732Z" fill="#E7E8FF" stroke="#210268" stroke-width="0.5"/>
</g>
<g filter="url(#filter3_d_66_407)">
<path d="M150.054 73.3715C150.035 77.0764 149.178 80.4182 147.821 82.825C146.459 85.24 144.626 86.6634 142.667 86.6634C140.707 86.6634 138.889 85.24 137.551 82.825C136.217 80.4182 135.394 77.0764 135.412 73.3715C135.431 69.6665 136.288 66.3247 137.645 63.9179C139.007 61.503 140.84 60.0796 142.8 60.0796C144.759 60.0796 146.577 61.503 147.915 63.9179C149.249 66.3247 150.072 69.6665 150.054 73.3715Z" fill="#969BFF" stroke="black" stroke-width="0.5"/>
<path d="M148.826 73.4719C148.812 76.3762 148.14 78.9931 147.078 80.8752C146.012 82.7654 144.586 83.8643 143.074 83.8643C141.563 83.8643 140.148 82.7654 139.101 80.8752C138.058 78.9931 137.412 76.3762 137.427 73.4719C137.441 70.5677 138.113 67.9507 139.175 66.0687C140.241 64.1784 141.667 63.0796 143.178 63.0796C144.69 63.0796 146.105 64.1784 147.152 66.0687C148.195 67.9507 148.841 70.5677 148.826 73.4719Z" fill="#E7E8FF" stroke="#210268" stroke-width="0.5"/>
</g>
<g filter="url(#filter4_d_66_407)">
<path d="M164.96 73.5419C164.941 77.2468 164.084 80.5887 162.727 82.9954C161.364 85.4104 159.532 86.8338 157.572 86.8338C155.613 86.8338 153.794 85.4104 152.456 82.9954C151.123 80.5887 150.299 77.2468 150.318 73.5419C150.337 69.837 151.193 66.4951 152.551 64.0883C153.913 61.6734 155.746 60.25 157.705 60.25C159.665 60.25 161.483 61.6734 162.821 64.0883C164.155 66.4951 164.978 69.837 164.96 73.5419Z" fill="#969BFF" stroke="black" stroke-width="0.5"/>
<path d="M163.732 73.6423C163.717 76.5466 163.046 79.1635 161.984 81.0456C160.918 82.9359 159.492 84.0347 157.98 84.0347C156.468 84.0347 155.054 82.9359 154.006 81.0456C152.964 79.1635 152.318 76.5466 152.332 73.6423C152.347 70.7381 153.019 68.1211 154.08 66.2391C155.147 64.3488 156.572 63.25 158.084 63.25C159.596 63.25 161.011 64.3488 162.058 66.2391C163.101 68.1211 163.747 70.7381 163.732 73.6423Z" fill="#E7E8FF" stroke="#210268" stroke-width="0.5"/>
</g>
<g filter="url(#filter5_d_66_407)">
<path d="M194.284 69.3502C194.979 72.9895 194.781 76.4337 193.911 79.0567C193.039 81.6885 191.514 83.4378 189.591 83.8147C187.669 84.1915 185.61 83.1445 183.833 81.0319C182.061 78.9266 180.61 75.8055 179.916 72.1661C179.222 68.5268 179.42 65.0826 180.289 62.4596C181.162 59.8278 182.686 58.0785 184.609 57.7016C186.532 57.3248 188.59 58.3718 190.368 60.4844C192.139 62.5898 193.59 65.7108 194.284 69.3502Z" fill="#969BFF" stroke="black" stroke-width="0.5"/>
<path d="M193.099 69.6848C193.644 72.5377 193.488 75.235 192.808 77.2861C192.125 79.3461 190.937 80.6986 189.454 80.9894C187.97 81.2801 186.37 80.4739 184.979 78.8204C183.594 77.174 182.457 74.7301 181.913 71.8773C181.368 69.0244 181.524 66.3271 182.204 64.276C182.887 62.216 184.075 60.8635 185.558 60.5727C187.042 60.282 188.642 61.0882 190.033 62.7417C191.418 64.3881 192.555 66.832 193.099 69.6848Z" fill="#E7E8FF" stroke="#210268" stroke-width="0.5"/>
</g>
<g filter="url(#filter6_d_66_407)">
<path d="M208.273 64.0395C209.341 67.587 209.502 71.0332 208.91 73.7323C208.316 76.4405 206.981 78.3388 205.108 78.9134C203.235 79.488 201.079 78.6605 199.091 76.7441C197.111 74.8342 195.344 71.8807 194.275 68.3332C193.206 64.7858 193.045 61.3396 193.637 58.6405C194.231 55.9323 195.566 54.034 197.439 53.4594C199.313 52.8848 201.469 53.7123 203.456 55.6287C205.437 57.5386 207.204 60.492 208.273 64.0395Z" fill="#969BFF" stroke="black" stroke-width="0.5"/>
<path d="M207.129 64.4957C207.967 67.2765 208.092 69.9754 207.629 72.0861C207.164 74.2059 206.123 75.6745 204.677 76.1179C203.232 76.5612 201.557 75.9256 200.002 74.4256C198.453 72.9321 197.068 70.6195 196.23 67.8387C195.393 65.0579 195.267 62.359 195.73 60.2483C196.195 58.1285 197.236 56.6598 198.682 56.2165C200.127 55.7732 201.802 56.4088 203.357 57.9088C204.906 59.4023 206.291 61.7149 207.129 64.4957Z" fill="#E7E8FF" stroke="#210268" stroke-width="0.5"/>
</g>
<g filter="url(#filter7_d_66_407)">
<path d="M92.2751 64.0395C91.2064 67.587 91.0455 71.0332 91.6376 73.7323C92.2317 76.4405 93.5665 78.3388 95.4397 78.9134C97.313 79.488 99.469 78.6605 101.456 76.7441C103.437 74.8342 105.204 71.8807 106.273 68.3332C107.342 64.7858 107.503 61.3396 106.911 58.6405C106.316 55.9323 104.982 54.034 103.108 53.4594C101.235 52.8848 99.0792 53.7123 97.0918 55.6287C95.1111 57.5386 93.3439 60.492 92.2751 64.0395Z" fill="#969BFF" stroke="black" stroke-width="0.5"/>
<path d="M93.4191 64.4957C92.5813 67.2765 92.4561 69.9754 92.9191 72.0861C93.3841 74.2059 94.4251 75.6745 95.8704 76.1179C97.3157 76.5612 98.9906 75.9256 100.546 74.4256C102.095 72.9321 103.48 70.6195 104.317 67.8387C105.155 65.0579 105.28 62.359 104.817 60.2483C104.352 58.1285 103.311 56.6598 101.866 56.2165C100.421 55.7732 98.746 56.4088 97.1904 57.9088C95.6415 59.4023 94.2569 61.7149 93.4191 64.4957Z" fill="#E7E8FF" stroke="#210268" stroke-width="0.5"/>
</g>
<g filter="url(#filter8_d_66_407)">
<path d="M105.916 69.3502C105.222 72.9895 105.42 76.4337 106.289 79.0567C107.162 81.6885 108.687 83.4378 110.609 83.8147C112.532 84.1915 114.59 83.1445 116.368 81.0319C118.139 78.9266 119.59 75.8055 120.285 72.1661C120.979 68.5268 120.781 65.0826 119.911 62.4596C119.039 59.8278 117.514 58.0785 115.592 57.7016C113.669 57.3248 111.61 58.3718 109.833 60.4844C108.061 62.5898 106.611 65.7108 105.916 69.3502Z" fill="#969BFF" stroke="black" stroke-width="0.5"/>
<path d="M107.101 69.6848C106.557 72.5377 106.713 75.235 107.393 77.2861C108.075 79.3461 109.263 80.6986 110.747 80.9894C112.23 81.2801 113.83 80.4739 115.222 78.8204C116.607 77.174 117.744 74.7301 118.288 71.8773C118.832 69.0244 118.676 66.3271 117.997 64.276C117.314 62.216 116.126 60.8635 114.642 60.5727C113.159 60.282 111.559 61.0882 110.168 62.7417C108.782 64.3881 107.646 66.832 107.101 69.6848Z" fill="#E7E8FF" stroke="#210268" stroke-width="0.5"/>
</g>
<defs>
<filter id="filter0_d_66_407" x="8.76514" y="11.4282" width="283.486" height="73.5718" filterUnits="userSpaceOnUse" color-interpolation-filters="sRGB">
<feFlood flood-opacity="0" result="BackgroundImageFix"/>
<feColorMatrix in="SourceAlpha" type="matrix" values="0 0 0 0 0 0 0 0 0 0 0 0 0 0 0 0 0 0 127 0" result="hardAlpha"/>
<feOffset dy="4"/>
<feGaussianBlur stdDeviation="2"/>
<feComposite in2="hardAlpha" operator="out"/>
<feColorMatrix type="matrix" values="0 0 0 0 0 0 0 0 0 0 0 0 0 0 0 0 0 0 0.25 0"/>
<feBlend mode="normal" in2="BackgroundImageFix" result="effect1_dropShadow_66_407"/>
<feBlend mode="normal" in="SourceGraphic" in2="effect1_dropShadow_66_407" result="shape"/>
</filter>
<filter id="filter1_d_66_407" x="116.094" y="59.8667" width="23.2778" height="35.0093" filterUnits="userSpaceOnUse" color-interpolation-filters="sRGB">
<feFlood flood-opacity="0" result="BackgroundImageFix"/>
<feColorMatrix in="SourceAlpha" type="matrix" values="0 0 0 0 0 0 0 0 0 0 0 0 0 0 0 0 0 0 127 0" result="hardAlpha"/>
<feOffset dy="4"/>
<feGaussianBlur stdDeviation="2"/>
<feComposite in2="hardAlpha" operator="out"/>
<feColorMatrix type="matrix" values="0 0 0 0 0 0 0 0 0 0 0 0 0 0 0 0 0 0 0.25 0"/>
<feBlend mode="normal" in2="BackgroundImageFix" result="effect1_dropShadow_66_407"/>
<feBlend mode="normal" in="SourceGraphic" in2="effect1_dropShadow_66_407" result="shape"/>
</filter>
<filter id="filter2_d_66_407" x="161.094" y="59.6228" width="23.2778" height="35.0093" filterUnits="userSpaceOnUse" color-interpolation-filters="sRGB">
<feFlood flood-opacity="0" result="BackgroundImageFix"/>
<feColorMatrix in="SourceAlpha" type="matrix" values="0 0 0 0 0 0 0 0 0 0 0 0 0 0 0 0 0 0 127 0" result="hardAlpha"/>
<feOffset dy="4"/>
<feGaussianBlur stdDeviation="2"/>
<feComposite in2="hardAlpha" operator="out"/>
<feColorMatrix type="matrix" values="0 0 0 0 0 0 0 0 0 0 0 0 0 0 0 0 0 0 0.25 0"/>
<feBlend mode="normal" in2="BackgroundImageFix" result="effect1_dropShadow_66_407"/>
<feBlend mode="normal" in="SourceGraphic" in2="effect1_dropShadow_66_407" result="shape"/>
</filter>
<filter id="filter3_d_66_407" x="131.162" y="59.8296" width="23.1421" height="35.0837" filterUnits="userSpaceOnUse" color-interpolation-filters="sRGB">
<feFlood flood-opacity="0" result="BackgroundImageFix"/>
<feColorMatrix in="SourceAlpha" type="matrix" values="0 0 0 0 0 0 0 0 0 0 0 0 0 0 0 0 0 0 127 0" result="hardAlpha"/>
<feOffset dy="4"/>
<feGaussianBlur stdDeviation="2"/>
<feComposite in2="hardAlpha" operator="out"/>
<feColorMatrix type="matrix" values="0 0 0 0 0 0 0 0 0 0 0 0 0 0 0 0 0 0 0.25 0"/>
<feBlend mode="normal" in2="BackgroundImageFix" result="effect1_dropShadow_66_407"/>
<feBlend mode="normal" in="SourceGraphic" in2="effect1_dropShadow_66_407" result="shape"/>
</filter>
<filter id="filter4_d_66_407" x="146.068" y="60" width="23.1421" height="35.0837" filterUnits="userSpaceOnUse" color-interpolation-filters="sRGB">
<feFlood flood-opacity="0" result="BackgroundImageFix"/>
<feColorMatrix in="SourceAlpha" type="matrix" values="0 0 0 0 0 0 0 0 0 0 0 0 0 0 0 0 0 0 127 0" result="hardAlpha"/>
<feOffset dy="4"/>
<feGaussianBlur stdDeviation="2"/>
<feComposite in2="hardAlpha" operator="out"/>
<feColorMatrix type="matrix" values="0 0 0 0 0 0 0 0 0 0 0 0 0 0 0 0 0 0 0.25 0"/>
<feBlend mode="normal" in2="BackgroundImageFix" result="effect1_dropShadow_66_407"/>
<feBlend mode="normal" in="SourceGraphic" in2="effect1_dropShadow_66_407" result="shape"/>
</filter>
<filter id="filter5_d_66_407" x="175.247" y="57.3755" width="23.7061" height="34.7654" filterUnits="userSpaceOnUse" color-interpolation-filters="sRGB">
<feFlood flood-opacity="0" result="BackgroundImageFix"/>
<feColorMatrix in="SourceAlpha" type="matrix" values="0 0 0 0 0 0 0 0 0 0 0 0 0 0 0 0 0 0 127 0" result="hardAlpha"/>
<feOffset dy="4"/>
<feGaussianBlur stdDeviation="2"/>
<feComposite in2="hardAlpha" operator="out"/>
<feColorMatrix type="matrix" values="0 0 0 0 0 0 0 0 0 0 0 0 0 0 0 0 0 0 0.25 0"/>
<feBlend mode="normal" in2="BackgroundImageFix" result="effect1_dropShadow_66_407"/>
<feBlend mode="normal" in="SourceGraphic" in2="effect1_dropShadow_66_407" result="shape"/>
</filter>
<filter id="filter6_d_66_407" x="189.047" y="53.0293" width="24.4526" height="34.3142" filterUnits="userSpaceOnUse" color-interpolation-filters="sRGB">
<feFlood flood-opacity="0" result="BackgroundImageFix"/>
<feColorMatrix in="SourceAlpha" type="matrix" values="0 0 0 0 0 0 0 0 0 0 0 0 0 0 0 0 0 0 127 0" result="hardAlpha"/>
<feOffset dy="4"/>
<feGaussianBlur stdDeviation="2"/>
<feComposite in2="hardAlpha" operator="out"/>
<feColorMatrix type="matrix" values="0 0 0 0 0 0 0 0 0 0 0 0 0 0 0 0 0 0 0.25 0"/>
<feBlend mode="normal" in2="BackgroundImageFix" result="effect1_dropShadow_66_407"/>
<feBlend mode="normal" in="SourceGraphic" in2="effect1_dropShadow_66_407" result="shape"/>
</filter>
<filter id="filter7_d_66_407" x="87.0479" y="53.0293" width="24.4526" height="34.3142" filterUnits="userSpaceOnUse" color-interpolation-filters="sRGB">
<feFlood flood-opacity="0" result="BackgroundImageFix"/>
<feColorMatrix in="SourceAlpha" type="matrix" values="0 0 0 0 0 0 0 0 0 0 0 0 0 0 0 0 0 0 127 0" result="hardAlpha"/>
<feOffset dy="4"/>
<feGaussianBlur stdDeviation="2"/>
<feComposite in2="hardAlpha" operator="out"/>
<feColorMatrix type="matrix" values="0 0 0 0 0 0 0 0 0 0 0 0 0 0 0 0 0 0 0.25 0"/>
<feBlend mode="normal" in2="BackgroundImageFix" result="effect1_dropShadow_66_407"/>
<feBlend mode="normal" in="SourceGraphic" in2="effect1_dropShadow_66_407" result="shape"/>
</filter>
<filter id="filter8_d_66_407" x="101.248" y="57.3755" width="23.7061" height="34.7654" filterUnits="userSpaceOnUse" color-interpolation-filters="sRGB">
<feFlood flood-opacity="0" result="BackgroundImageFix"/>
<feColorMatrix in="SourceAlpha" type="matrix" values="0 0 0 0 0 0 0 0 0 0 0 0 0 0 0 0 0 0 127 0" result="hardAlpha"/>
<feOffset dy="4"/>
<feGaussianBlur stdDeviation="2"/>
<feComposite in2="hardAlpha" operator="out"/>
<feColorMatrix type="matrix" values="0 0 0 0 0 0 0 0 0 0 0 0 0 0 0 0 0 0 0.25 0"/>
<feBlend mode="normal" in2="BackgroundImageFix" result="effect1_dropShadow_66_407"/>
<feBlend mode="normal" in="SourceGraphic" in2="effect1_dropShadow_66_407" result="shape"/>
</filter>
</defs>
</svg>
