<svg width="301" height="99" viewBox="0 0 301 99" fill="none" xmlns="http://www.w3.org/2000/svg">
<rect width="301" height="99" />
<g filter="url(#filter0_d_66_439)">
<path d="M14 16C14 16 94.2793 79.1404 154 77.9843C211.23 76.8765 287 16 287 16" stroke="#AFB4B9" stroke-width="4"/>
</g>
<g filter="url(#filter1_d_66_439)">
<path d="M143.029 76.9773C142.704 80.6679 141.573 83.9274 140.021 86.2136C138.464 88.5076 136.52 89.7744 134.567 89.6122C132.614 89.4501 130.92 87.8811 129.786 85.3637C128.656 82.8548 128.112 79.4563 128.437 75.7656C128.763 72.075 129.893 68.8155 131.445 66.5293C133.002 64.2354 134.947 62.9685 136.899 63.1307C138.852 63.2928 140.547 64.8618 141.68 67.3792C142.81 69.8881 143.354 73.2866 143.029 76.9773Z" fill="#969BFF" stroke="black" stroke-width="0.5"/>
<path d="M141.797 76.9759C141.542 79.8689 140.656 82.4213 139.442 84.2091C138.223 86.0046 136.711 86.9817 135.205 86.8566C133.698 86.7315 132.379 85.5193 131.492 83.5489C130.608 81.587 130.182 78.9256 130.436 76.0325C130.691 73.1394 131.577 70.5871 132.791 68.7993C134.01 67.0038 135.522 66.0267 137.029 66.1518C138.535 66.2769 139.854 67.489 140.741 69.4595C141.625 71.4214 142.052 74.0828 141.797 76.9759Z" fill="#E7E8FF" stroke="#210268" stroke-width="0.5"/>
</g>
<g filter="url(#filter2_d_66_439)">
<path d="M158.054 76.3715C158.035 80.0764 157.178 83.4182 155.821 85.825C154.459 88.24 152.626 89.6634 150.667 89.6634C148.707 89.6634 146.889 88.24 145.551 85.825C144.217 83.4182 143.394 80.0764 143.412 76.3715C143.431 72.6665 144.288 69.3247 145.645 66.9179C147.007 64.503 148.84 63.0796 150.8 63.0796C152.759 63.0796 154.577 64.503 155.915 66.9179C157.249 69.3247 158.072 72.6665 158.054 76.3715Z" fill="#969BFF" stroke="black" stroke-width="0.5"/>
<path d="M156.826 76.4719C156.812 79.3762 156.14 81.9931 155.078 83.8752C154.012 85.7654 152.586 86.8643 151.074 86.8643C149.563 86.8643 148.148 85.7654 147.101 83.8752C146.058 81.9931 145.412 79.3762 145.427 76.4719C145.441 73.5677 146.113 70.9507 147.175 69.0687C148.241 67.1784 149.667 66.0796 151.178 66.0796C152.69 66.0796 154.105 67.1784 155.152 69.0687C156.195 70.9507 156.841 73.5677 156.826 76.4719Z" fill="#E7E8FF" stroke="#210268" stroke-width="0.5"/>
</g>
<g filter="url(#filter3_d_66_439)">
<path d="M172.999 75.4797C173.432 79.1593 172.988 82.5807 171.934 85.1349C170.876 87.6978 169.23 89.3338 167.286 89.5725C165.341 89.8112 163.362 88.62 161.74 86.386C160.123 84.1596 158.899 80.9429 158.466 77.2633C158.033 73.5837 158.477 70.1624 159.531 67.6081C160.589 65.0453 162.235 63.4092 164.179 63.1705C166.124 62.9318 168.103 64.1231 169.725 66.3571C171.342 68.5835 172.566 71.8001 172.999 75.4797Z" fill="#969BFF" stroke="black" stroke-width="0.5"/>
<path d="M171.793 75.7291C172.132 78.6135 171.784 81.2928 170.96 83.2902C170.132 85.2962 168.85 86.5605 167.35 86.7447C165.849 86.9289 164.311 86.0106 163.041 84.262C161.777 82.5209 160.817 80.0021 160.478 77.1177C160.139 74.2333 160.487 71.5541 161.311 69.5567C162.139 67.5506 163.42 66.2863 164.921 66.1021C166.422 65.918 167.96 66.8363 169.229 68.5848C170.494 70.3259 171.453 72.8447 171.793 75.7291Z" fill="#E7E8FF" stroke="#210268" stroke-width="0.5"/>
</g>
<g filter="url(#filter4_d_66_439)">
<path d="M187.284 72.3502C187.979 75.9895 187.781 79.4337 186.911 82.0567C186.039 84.6885 184.514 86.4378 182.591 86.8147C180.669 87.1915 178.61 86.1445 176.833 84.0319C175.061 81.9266 173.61 78.8055 172.916 75.1661C172.222 71.5268 172.42 68.0826 173.289 65.4596C174.162 62.8278 175.686 61.0785 177.609 60.7016C179.532 60.3248 181.59 61.3718 183.368 63.4844C185.139 65.5898 186.59 68.7108 187.284 72.3502Z" fill="#969BFF" stroke="black" stroke-width="0.5"/>
<path d="M186.099 72.6848C186.644 75.5377 186.488 78.235 185.808 80.2861C185.125 82.3461 183.937 83.6986 182.454 83.9894C180.97 84.2801 179.37 83.4739 177.979 81.8204C176.594 80.174 175.457 77.7301 174.913 74.8773C174.368 72.0244 174.524 69.3271 175.204 67.276C175.887 65.216 177.075 63.8635 178.558 63.5727C180.042 63.282 181.642 64.0882 183.033 65.7417C184.418 67.3881 185.555 69.832 186.099 72.6848Z" fill="#E7E8FF" stroke="#210268" stroke-width="0.5"/>
</g>
<g filter="url(#filter5_d_66_439)">
<path d="M202.107 68.1071C203.107 71.6743 203.203 75.1229 202.559 77.8103C201.914 80.5067 200.543 82.3792 198.659 82.918C196.775 83.4568 194.635 82.5883 192.685 80.6344C190.741 78.6871 189.03 75.7005 188.029 72.1333C187.028 68.5661 186.933 65.1175 187.577 62.4302C188.222 59.7337 189.593 57.8612 191.477 57.3224C193.361 56.7836 195.501 57.6521 197.451 59.606C199.395 61.5533 201.106 64.5399 202.107 68.1071Z" fill="#969BFF" stroke="black" stroke-width="0.5"/>
<path d="M200.954 68.5414C201.738 71.3376 201.812 74.0384 201.309 76.1399C200.804 78.2504 199.735 79.699 198.281 80.1147C196.828 80.5304 195.165 79.863 193.639 78.3336C192.118 76.8109 190.778 74.4723 189.994 71.676C189.209 68.8797 189.135 66.1789 189.638 64.0775C190.144 61.967 191.212 60.5184 192.666 60.1027C194.119 59.687 195.782 60.3544 197.309 61.8837C198.829 63.4065 200.169 65.7451 200.954 68.5414Z" fill="#E7E8FF" stroke="#210268" stroke-width="0.5"/>
</g>
<g filter="url(#filter6_d_66_439)">
<path d="M215.954 63.1627C216.895 66.7462 216.933 70.1959 216.244 72.8721C215.554 75.5573 214.152 77.4065 212.259 77.9137C210.366 78.4208 208.241 77.5166 206.324 75.5302C204.413 73.5506 202.753 70.5357 201.812 66.9522C200.871 63.3687 200.833 59.919 201.522 57.2429C202.213 54.5576 203.615 52.7084 205.507 52.2013C207.4 51.6942 209.525 52.5984 211.442 54.5847C213.353 56.5644 215.013 59.5792 215.954 63.1627Z" fill="#969BFF" stroke="black" stroke-width="0.5"/>
<path d="M214.795 63.5775C215.533 66.3865 215.561 69.0881 215.023 71.1809C214.482 73.2826 213.389 74.7131 211.929 75.1044C210.469 75.4956 208.818 74.8004 207.317 73.2457C205.822 71.6976 204.521 69.3369 203.784 66.5279C203.046 63.7188 203.018 61.0172 203.556 58.9245C204.097 56.8227 205.19 55.3922 206.65 55.001C208.11 54.6097 209.761 55.3049 211.262 56.8596C212.756 58.4077 214.057 60.7684 214.795 63.5775Z" fill="#E7E8FF" stroke="#210268" stroke-width="0.5"/>
</g>
<g filter="url(#filter7_d_66_439)">
<path d="M85.8116 63.1627C84.8706 66.7462 84.8333 70.1959 85.5217 72.8721C86.2125 75.5573 87.6144 77.4065 89.507 77.9137C91.3997 78.4208 93.5246 77.5166 95.4421 75.5302C97.3531 73.5506 99.0133 70.5357 99.9543 66.9522C100.895 63.3687 100.933 59.919 100.244 57.2429C99.5535 54.5576 98.1516 52.7084 96.2589 52.2013C94.3663 51.6942 92.2413 52.5984 90.3239 54.5847C88.4129 56.5644 86.7526 59.5792 85.8116 63.1627Z" fill="#969BFF" stroke="black" stroke-width="0.5"/>
<path d="M86.9712 63.5775C86.2335 66.3865 86.2051 69.0881 86.7434 71.1809C87.2841 73.2826 88.377 74.7131 89.8372 75.1044C91.2975 75.4956 92.9485 74.8004 94.4494 73.2457C95.9438 71.6976 97.2446 69.3369 97.9823 66.5279C98.7199 63.7188 98.7484 61.0172 98.21 58.9245C97.6694 56.8227 96.5765 55.3922 95.1162 55.001C93.656 54.6097 92.0049 55.3049 90.5041 56.8596C89.0097 58.4077 87.7088 60.7684 86.9712 63.5775Z" fill="#E7E8FF" stroke="#210268" stroke-width="0.5"/>
</g>
<g filter="url(#filter8_d_66_439)">
<path d="M99.8989 68.1071C98.8979 71.6743 98.8027 75.1229 99.4462 77.8103C100.092 80.5067 101.462 82.3792 103.346 82.918C105.23 83.4568 107.37 82.5883 109.321 80.6344C111.264 78.6871 112.975 75.7005 113.976 72.1333C114.977 68.5661 115.072 65.1175 114.429 62.4302C113.783 59.7337 112.412 57.8612 110.529 57.3224C108.645 56.7836 106.505 57.6521 104.554 59.606C102.61 61.5533 100.9 64.5399 99.8989 68.1071Z" fill="#969BFF" stroke="black" stroke-width="0.5"/>
<path d="M101.052 68.5414C100.267 71.3376 100.193 74.0384 100.697 76.1399C101.202 78.2504 102.271 79.699 103.724 80.1147C105.178 80.5304 106.84 79.863 108.367 78.3336C109.887 76.8109 111.227 74.4723 112.012 71.676C112.796 68.8797 112.87 66.1789 112.367 64.0775C111.862 61.967 110.793 60.5184 109.34 60.1027C107.886 59.687 106.224 60.3544 104.697 61.8837C103.177 63.4065 101.836 65.7451 101.052 68.5414Z" fill="#E7E8FF" stroke="#210268" stroke-width="0.5"/>
</g>
<g filter="url(#filter9_d_66_439)">
<path d="M113.916 72.3502C113.222 75.9895 113.42 79.4337 114.289 82.0567C115.162 84.6885 116.687 86.4378 118.609 86.8147C120.532 87.1915 122.59 86.1445 124.368 84.0319C126.139 81.9266 127.59 78.8055 128.285 75.1661C128.979 71.5268 128.781 68.0826 127.911 65.4596C127.039 62.8278 125.514 61.0785 123.592 60.7016C121.669 60.3248 119.61 61.3718 117.833 63.4844C116.061 65.5898 114.611 68.7108 113.916 72.3502Z" fill="#969BFF" stroke="black" stroke-width="0.5"/>
<path d="M115.101 72.6848C114.557 75.5377 114.713 78.235 115.393 80.2861C116.075 82.3461 117.263 83.6986 118.747 83.9894C120.23 84.2801 121.83 83.4739 123.222 81.8204C124.607 80.174 125.744 77.7301 126.288 74.8773C126.832 72.0244 126.676 69.3271 125.997 67.276C125.314 65.216 124.126 63.8635 122.642 63.5727C121.159 63.282 119.559 64.0882 118.168 65.7417C116.782 67.3881 115.646 69.832 115.101 72.6848Z" fill="#E7E8FF" stroke="#210268" stroke-width="0.5"/>
</g>
<defs>
<filter id="filter0_d_66_439" x="8.76514" y="14.4282" width="283.486" height="73.5718" filterUnits="userSpaceOnUse" color-interpolation-filters="sRGB">
<feFlood flood-opacity="0" result="BackgroundImageFix"/>
<feColorMatrix in="SourceAlpha" type="matrix" values="0 0 0 0 0 0 0 0 0 0 0 0 0 0 0 0 0 0 127 0" result="hardAlpha"/>
<feOffset dy="4"/>
<feGaussianBlur stdDeviation="2"/>
<feComposite in2="hardAlpha" operator="out"/>
<feColorMatrix type="matrix" values="0 0 0 0 0 0 0 0 0 0 0 0 0 0 0 0 0 0 0.25 0"/>
<feBlend mode="normal" in2="BackgroundImageFix" result="effect1_dropShadow_66_439"/>
<feBlend mode="normal" in="SourceGraphic" in2="effect1_dropShadow_66_439" result="shape"/>
</filter>
<filter id="filter1_d_66_439" x="124.094" y="62.8667" width="23.2778" height="35.0093" filterUnits="userSpaceOnUse" color-interpolation-filters="sRGB">
<feFlood flood-opacity="0" result="BackgroundImageFix"/>
<feColorMatrix in="SourceAlpha" type="matrix" values="0 0 0 0 0 0 0 0 0 0 0 0 0 0 0 0 0 0 127 0" result="hardAlpha"/>
<feOffset dy="4"/>
<feGaussianBlur stdDeviation="2"/>
<feComposite in2="hardAlpha" operator="out"/>
<feColorMatrix type="matrix" values="0 0 0 0 0 0 0 0 0 0 0 0 0 0 0 0 0 0 0.25 0"/>
<feBlend mode="normal" in2="BackgroundImageFix" result="effect1_dropShadow_66_439"/>
<feBlend mode="normal" in="SourceGraphic" in2="effect1_dropShadow_66_439" result="shape"/>
</filter>
<filter id="filter2_d_66_439" x="139.162" y="62.8296" width="23.1421" height="35.0837" filterUnits="userSpaceOnUse" color-interpolation-filters="sRGB">
<feFlood flood-opacity="0" result="BackgroundImageFix"/>
<feColorMatrix in="SourceAlpha" type="matrix" values="0 0 0 0 0 0 0 0 0 0 0 0 0 0 0 0 0 0 127 0" result="hardAlpha"/>
<feOffset dy="4"/>
<feGaussianBlur stdDeviation="2"/>
<feComposite in2="hardAlpha" operator="out"/>
<feColorMatrix type="matrix" values="0 0 0 0 0 0 0 0 0 0 0 0 0 0 0 0 0 0 0.25 0"/>
<feBlend mode="normal" in2="BackgroundImageFix" result="effect1_dropShadow_66_439"/>
<feBlend mode="normal" in="SourceGraphic" in2="effect1_dropShadow_66_439" result="shape"/>
</filter>
<filter id="filter3_d_66_439" x="154.052" y="62.8901" width="23.3613" height="34.9629" filterUnits="userSpaceOnUse" color-interpolation-filters="sRGB">
<feFlood flood-opacity="0" result="BackgroundImageFix"/>
<feColorMatrix in="SourceAlpha" type="matrix" values="0 0 0 0 0 0 0 0 0 0 0 0 0 0 0 0 0 0 127 0" result="hardAlpha"/>
<feOffset dy="4"/>
<feGaussianBlur stdDeviation="2"/>
<feComposite in2="hardAlpha" operator="out"/>
<feColorMatrix type="matrix" values="0 0 0 0 0 0 0 0 0 0 0 0 0 0 0 0 0 0 0.25 0"/>
<feBlend mode="normal" in2="BackgroundImageFix" result="effect1_dropShadow_66_439"/>
<feBlend mode="normal" in="SourceGraphic" in2="effect1_dropShadow_66_439" result="shape"/>
</filter>
<filter id="filter4_d_66_439" x="168.247" y="60.3755" width="23.7061" height="34.7654" filterUnits="userSpaceOnUse" color-interpolation-filters="sRGB">
<feFlood flood-opacity="0" result="BackgroundImageFix"/>
<feColorMatrix in="SourceAlpha" type="matrix" values="0 0 0 0 0 0 0 0 0 0 0 0 0 0 0 0 0 0 127 0" result="hardAlpha"/>
<feOffset dy="4"/>
<feGaussianBlur stdDeviation="2"/>
<feComposite in2="hardAlpha" operator="out"/>
<feColorMatrix type="matrix" values="0 0 0 0 0 0 0 0 0 0 0 0 0 0 0 0 0 0 0.25 0"/>
<feBlend mode="normal" in2="BackgroundImageFix" result="effect1_dropShadow_66_439"/>
<feBlend mode="normal" in="SourceGraphic" in2="effect1_dropShadow_66_439" result="shape"/>
</filter>
<filter id="filter5_d_66_439" x="182.919" y="56.9146" width="24.2969" height="34.4111" filterUnits="userSpaceOnUse" color-interpolation-filters="sRGB">
<feFlood flood-opacity="0" result="BackgroundImageFix"/>
<feColorMatrix in="SourceAlpha" type="matrix" values="0 0 0 0 0 0 0 0 0 0 0 0 0 0 0 0 0 0 127 0" result="hardAlpha"/>
<feOffset dy="4"/>
<feGaussianBlur stdDeviation="2"/>
<feComposite in2="hardAlpha" operator="out"/>
<feColorMatrix type="matrix" values="0 0 0 0 0 0 0 0 0 0 0 0 0 0 0 0 0 0 0.25 0"/>
<feBlend mode="normal" in2="BackgroundImageFix" result="effect1_dropShadow_66_439"/>
<feBlend mode="normal" in="SourceGraphic" in2="effect1_dropShadow_66_439" result="shape"/>
</filter>
<filter id="filter6_d_66_439" x="196.8" y="51.812" width="24.1665" height="34.491" filterUnits="userSpaceOnUse" color-interpolation-filters="sRGB">
<feFlood flood-opacity="0" result="BackgroundImageFix"/>
<feColorMatrix in="SourceAlpha" type="matrix" values="0 0 0 0 0 0 0 0 0 0 0 0 0 0 0 0 0 0 127 0" result="hardAlpha"/>
<feOffset dy="4"/>
<feGaussianBlur stdDeviation="2"/>
<feComposite in2="hardAlpha" operator="out"/>
<feColorMatrix type="matrix" values="0 0 0 0 0 0 0 0 0 0 0 0 0 0 0 0 0 0 0.25 0"/>
<feBlend mode="normal" in2="BackgroundImageFix" result="effect1_dropShadow_66_439"/>
<feBlend mode="normal" in="SourceGraphic" in2="effect1_dropShadow_66_439" result="shape"/>
</filter>
<filter id="filter7_d_66_439" x="80.7998" y="51.812" width="24.1665" height="34.491" filterUnits="userSpaceOnUse" color-interpolation-filters="sRGB">
<feFlood flood-opacity="0" result="BackgroundImageFix"/>
<feColorMatrix in="SourceAlpha" type="matrix" values="0 0 0 0 0 0 0 0 0 0 0 0 0 0 0 0 0 0 127 0" result="hardAlpha"/>
<feOffset dy="4"/>
<feGaussianBlur stdDeviation="2"/>
<feComposite in2="hardAlpha" operator="out"/>
<feColorMatrix type="matrix" values="0 0 0 0 0 0 0 0 0 0 0 0 0 0 0 0 0 0 0.25 0"/>
<feBlend mode="normal" in2="BackgroundImageFix" result="effect1_dropShadow_66_439"/>
<feBlend mode="normal" in="SourceGraphic" in2="effect1_dropShadow_66_439" result="shape"/>
</filter>
<filter id="filter8_d_66_439" x="94.7891" y="56.9146" width="24.2969" height="34.4111" filterUnits="userSpaceOnUse" color-interpolation-filters="sRGB">
<feFlood flood-opacity="0" result="BackgroundImageFix"/>
<feColorMatrix in="SourceAlpha" type="matrix" values="0 0 0 0 0 0 0 0 0 0 0 0 0 0 0 0 0 0 127 0" result="hardAlpha"/>
<feOffset dy="4"/>
<feGaussianBlur stdDeviation="2"/>
<feComposite in2="hardAlpha" operator="out"/>
<feColorMatrix type="matrix" values="0 0 0 0 0 0 0 0 0 0 0 0 0 0 0 0 0 0 0.25 0"/>
<feBlend mode="normal" in2="BackgroundImageFix" result="effect1_dropShadow_66_439"/>
<feBlend mode="normal" in="SourceGraphic" in2="effect1_dropShadow_66_439" result="shape"/>
</filter>
<filter id="filter9_d_66_439" x="109.248" y="60.3755" width="23.7061" height="34.7654" filterUnits="userSpaceOnUse" color-interpolation-filters="sRGB">
<feFlood flood-opacity="0" result="BackgroundImageFix"/>
<feColorMatrix in="SourceAlpha" type="matrix" values="0 0 0 0 0 0 0 0 0 0 0 0 0 0 0 0 0 0 127 0" result="hardAlpha"/>
<feOffset dy="4"/>
<feGaussianBlur stdDeviation="2"/>
<feComposite in2="hardAlpha" operator="out"/>
<feColorMatrix type="matrix" values="0 0 0 0 0 0 0 0 0 0 0 0 0 0 0 0 0 0 0.25 0"/>
<feBlend mode="normal" in2="BackgroundImageFix" result="effect1_dropShadow_66_439"/>
<feBlend mode="normal" in="SourceGraphic" in2="effect1_dropShadow_66_439" result="shape"/>
</filter>
</defs>
</svg>
