<svg width="1091" height="115" viewBox="0 0 1091 115" fill="none" xmlns="http://www.w3.org/2000/svg">
<rect width="1091" height="115" fill="white"/>
<g filter="url(#filter0_d_66_113)">
<path d="M49.0205 57.7018H1032.87" stroke="#AFB4B9" stroke-width="4"/>
<ellipse cx="1032.67" cy="57.7972" rx="7.07807" ry="11.2245" fill="#AFB4B9"/>
<ellipse cx="56.6845" cy="57.7972" rx="7.07807" ry="11.2245" fill="#AFB4B9"/>
<path d="M1036.93 56.3778L1056.68 29.4326" stroke="#AFB4B9" stroke-width="3" stroke-linecap="round"/>
<path d="M1036.93 58.3987C1047.39 58.3987 1055.36 64.4277 1063.69 70.524" stroke="#AFB4B9" stroke-width="3" stroke-linecap="round"/>
<path d="M55.9028 56.1176C49.4401 52.0803 44.0853 45.4644 38.561 40.2283" stroke="#AFB4B9" stroke-width="3" stroke-linecap="round"/>
<path d="M53.5907 58.5621C43.0567 61.0369 34.3756 70.3207 27 78.1183" stroke="#AFB4B9" stroke-width="3" stroke-linecap="round"/>
</g>
<g filter="url(#filter1_d_66_113)">
<ellipse cx="9.32987" cy="30.609" rx="9.32987" ry="30.609" transform="matrix(0.793893 0.608058 -0.565277 0.824901 1024.72 5)" fill="#210268"/>
<ellipse cx="9.32987" cy="30.609" rx="9.32987" ry="30.609" transform="matrix(0.793893 -0.608058 -0.565277 -0.824901 1024.6 111.035)" fill="#210268"/>
</g>
<g filter="url(#filter2_d_66_113)">
<ellipse cx="9.32987" cy="30.609" rx="9.32987" ry="30.609" transform="matrix(-0.793893 0.608058 0.565277 0.824901 64.814 3)" fill="#210268"/>
<ellipse cx="9.32987" cy="30.609" rx="9.32987" ry="30.609" transform="matrix(-0.793893 -0.608058 0.565277 -0.824901 64.9302 109.743)" fill="#210268"/>
</g>
<defs>
<filter id="filter0_d_66_113" x="21.5" y="27.9325" width="1047.69" height="59.6858" filterUnits="userSpaceOnUse" color-interpolation-filters="sRGB">
<feFlood flood-opacity="0" result="BackgroundImageFix"/>
<feColorMatrix in="SourceAlpha" type="matrix" values="0 0 0 0 0 0 0 0 0 0 0 0 0 0 0 0 0 0 127 0" result="hardAlpha"/>
<feOffset dy="4"/>
<feGaussianBlur stdDeviation="2"/>
<feComposite in2="hardAlpha" operator="out"/>
<feColorMatrix type="matrix" values="0 0 0 0 0 0 0 0 0 0 0 0 0 0 0 0 0 0 0.25 0"/>
<feBlend mode="normal" in2="BackgroundImageFix" result="effect1_dropShadow_66_113"/>
<feBlend mode="normal" in="SourceGraphic" in2="effect1_dropShadow_66_113" result="shape"/>
</filter>
<filter id="filter1_d_66_113" x="991.883" y="10.038" width="45.769" height="103.959" filterUnits="userSpaceOnUse" color-interpolation-filters="sRGB">
<feFlood flood-opacity="0" result="BackgroundImageFix"/>
<feColorMatrix in="SourceAlpha" type="matrix" values="0 0 0 0 0 0 0 0 0 0 0 0 0 0 0 0 0 0 127 0" result="hardAlpha"/>
<feOffset dy="4"/>
<feGaussianBlur stdDeviation="2"/>
<feComposite in2="hardAlpha" operator="out"/>
<feColorMatrix type="matrix" values="0 0 0 0 0 0 0 0 0 0 0 0 0 0 0 0 0 0 0.25 0"/>
<feBlend mode="normal" in2="BackgroundImageFix" result="effect1_dropShadow_66_113"/>
<feBlend mode="normal" in="SourceGraphic" in2="effect1_dropShadow_66_113" result="shape"/>
</filter>
<filter id="filter2_d_66_113" x="51.8833" y="8.03796" width="45.7686" height="104.667" filterUnits="userSpaceOnUse" color-interpolation-filters="sRGB">
<feFlood flood-opacity="0" result="BackgroundImageFix"/>
<feColorMatrix in="SourceAlpha" type="matrix" values="0 0 0 0 0 0 0 0 0 0 0 0 0 0 0 0 0 0 127 0" result="hardAlpha"/>
<feOffset dy="4"/>
<feGaussianBlur stdDeviation="2"/>
<feComposite in2="hardAlpha" operator="out"/>
<feColorMatrix type="matrix" values="0 0 0 0 0 0 0 0 0 0 0 0 0 0 0 0 0 0 0.25 0"/>
<feBlend mode="normal" in2="BackgroundImageFix" result="effect1_dropShadow_66_113"/>
<feBlend mode="normal" in="SourceGraphic" in2="effect1_dropShadow_66_113" result="shape"/>
</filter>
</defs>
</svg>
