<svg width="1091" height="115" viewBox="0 0 1091 115" fill="none" xmlns="http://www.w3.org/2000/svg">
<rect width="1091" height="115" fill="white"/>
<g filter="url(#filter0_d_66_150)">
<path d="M49.0205 58.269H1032.87" stroke="#4D00FF" stroke-width="4"/>
<path d="M1039.25 58.3647C1039.25 61.3847 1038.48 64.0952 1037.25 66.0349C1036.03 67.9811 1034.39 69.0892 1032.67 69.0892C1030.95 69.0892 1029.32 67.9811 1028.09 66.0349C1026.87 64.0952 1026.09 61.3847 1026.09 58.3647C1026.09 55.3446 1026.87 52.6341 1028.09 50.6944C1029.32 48.7482 1030.95 47.6401 1032.67 47.6401C1034.39 47.6401 1036.03 48.7482 1037.25 50.6944C1038.48 52.6341 1039.25 55.3446 1039.25 58.3647Z" fill="#CFBEF7" stroke="#4D00FF"/>
<path d="M63.2626 58.3647C63.2626 61.3847 62.4897 64.0952 61.2665 66.0349C60.0393 67.9811 58.4066 69.0892 56.6845 69.0892C54.9624 69.0892 53.3297 67.9811 52.1025 66.0349C50.8793 64.0952 50.1064 61.3847 50.1064 58.3647C50.1064 55.3446 50.8793 52.6341 52.1025 50.6944C53.3297 48.7482 54.9624 47.6401 56.6845 47.6401C58.4066 47.6401 60.0393 48.7482 61.2665 50.6944C62.4897 52.6341 63.2626 55.3446 63.2626 58.3647Z" fill="#CFBEF7" stroke="#4D00FF"/>
<path d="M1036.93 56.9452L1056.68 30" stroke="#4D00FF" stroke-width="3" stroke-linecap="round"/>
<path d="M1036.93 58.9661C1047.39 58.9661 1055.36 64.995 1063.69 71.0914" stroke="#4D00FF" stroke-width="3" stroke-linecap="round"/>
<path d="M55.9028 56.6853C49.4401 52.6479 44.0853 46.0321 38.561 40.7959" stroke="#4D00FF" stroke-width="3" stroke-linecap="round"/>
<path d="M53.5907 59.1296C43.0567 61.6044 34.3756 70.8882 27 78.6858" stroke="#4D00FF" stroke-width="3" stroke-linecap="round"/>
</g>
<g filter="url(#filter1_dd_66_150)">
<ellipse cx="9.32987" cy="30.609" rx="9.32987" ry="30.609" transform="matrix(0.793893 0.608058 -0.565277 0.824901 1030.6 4)" fill="#CFBEF7"/>
<ellipse cx="9.32987" cy="30.609" rx="9.32987" ry="30.609" transform="matrix(0.793893 -0.608058 -0.565277 -0.824901 1030.63 110.845)" fill="#CFBEF7"/>
</g>
<g filter="url(#filter2_d_66_150)">
<ellipse cx="9.32987" cy="30.609" rx="9.32987" ry="30.609" transform="matrix(-0.793893 0.608058 0.565277 0.824901 59.814 4)" fill="#CFBEF7"/>
<ellipse cx="9.32987" cy="30.609" rx="9.32987" ry="30.609" transform="matrix(-0.793893 -0.608058 0.565277 -0.824901 59.9302 110.743)" fill="#CFBEF7"/>
</g>
<defs>
<filter id="filter0_d_66_150" x="21.5" y="28.5" width="1047.69" height="59.6858" filterUnits="userSpaceOnUse" color-interpolation-filters="sRGB">
<feFlood flood-opacity="0" result="BackgroundImageFix"/>
<feColorMatrix in="SourceAlpha" type="matrix" values="0 0 0 0 0 0 0 0 0 0 0 0 0 0 0 0 0 0 127 0" result="hardAlpha"/>
<feOffset dy="4"/>
<feGaussianBlur stdDeviation="2"/>
<feComposite in2="hardAlpha" operator="out"/>
<feColorMatrix type="matrix" values="0 0 0 0 0 0 0 0 0 0 0 0 0 0 0 0 0 0 0.25 0"/>
<feBlend mode="normal" in2="BackgroundImageFix" result="effect1_dropShadow_66_150"/>
<feBlend mode="normal" in="SourceGraphic" in2="effect1_dropShadow_66_150" result="shape"/>
</filter>
<filter id="filter1_dd_66_150" x="997.883" y="9.03809" width="45.6792" height="104.769" filterUnits="userSpaceOnUse" color-interpolation-filters="sRGB">
<feFlood flood-opacity="0" result="BackgroundImageFix"/>
<feColorMatrix in="SourceAlpha" type="matrix" values="0 0 0 0 0 0 0 0 0 0 0 0 0 0 0 0 0 0 127 0" result="hardAlpha"/>
<feOffset dy="4"/>
<feGaussianBlur stdDeviation="2"/>
<feComposite in2="hardAlpha" operator="out"/>
<feColorMatrix type="matrix" values="0 0 0 0 0 0 0 0 0 0 0 0 0 0 0 0 0 0 0.25 0"/>
<feBlend mode="normal" in2="BackgroundImageFix" result="effect1_dropShadow_66_150"/>
<feColorMatrix in="SourceAlpha" type="matrix" values="0 0 0 0 0 0 0 0 0 0 0 0 0 0 0 0 0 0 127 0" result="hardAlpha"/>
<feOffset dy="4"/>
<feGaussianBlur stdDeviation="2"/>
<feComposite in2="hardAlpha" operator="out"/>
<feColorMatrix type="matrix" values="0 0 0 0 0 0 0 0 0 0 0 0 0 0 0 0 0 0 0.25 0"/>
<feBlend mode="normal" in2="effect1_dropShadow_66_150" result="effect2_dropShadow_66_150"/>
<feBlend mode="normal" in="SourceGraphic" in2="effect2_dropShadow_66_150" result="shape"/>
</filter>
<filter id="filter2_d_66_150" x="46.8833" y="9.03809" width="45.7686" height="104.667" filterUnits="userSpaceOnUse" color-interpolation-filters="sRGB">
<feFlood flood-opacity="0" result="BackgroundImageFix"/>
<feColorMatrix in="SourceAlpha" type="matrix" values="0 0 0 0 0 0 0 0 0 0 0 0 0 0 0 0 0 0 127 0" result="hardAlpha"/>
<feOffset dy="4"/>
<feGaussianBlur stdDeviation="2"/>
<feComposite in2="hardAlpha" operator="out"/>
<feColorMatrix type="matrix" values="0 0 0 0 0 0 0 0 0 0 0 0 0 0 0 0 0 0 0.25 0"/>
<feBlend mode="normal" in2="BackgroundImageFix" result="effect1_dropShadow_66_150"/>
<feBlend mode="normal" in="SourceGraphic" in2="effect1_dropShadow_66_150" result="shape"/>
</filter>
</defs>
</svg>
